<svg width="28" height="34" viewBox="0 0 28 34" fill="none" xmlns="http://www.w3.org/2000/svg">
<path d="M4 33H24C25.6569 33 27 31.6569 27 30V10L18 1H4C2.34315 1 1 2.34315 1 4V30C1 31.6569 2.34315 33 4 33Z" stroke="#A4A5BB" stroke-width="1.5" stroke-linecap="round" stroke-linejoin="round"/>
<path d="M18 1V8C18 9.10457 18.8954 10 20 10H27" stroke="#A4A5BB" stroke-width="1.5" stroke-linecap="round" stroke-linejoin="round"/>
<path d="M7.94131 25H5.87881V19.1818H7.95835C8.54358 19.1818 9.04737 19.2983 9.46972 19.5312C9.89206 19.7623 10.2169 20.0947 10.4441 20.5284C10.6733 20.9621 10.7879 21.4811 10.7879 22.0852C10.7879 22.6913 10.6733 23.2121 10.4441 23.6477C10.2169 24.0833 9.89017 24.4176 9.46403 24.6506C9.03979 24.8835 8.53222 25 7.94131 25ZM7.10892 23.946H7.89017C8.25381 23.946 8.55968 23.8816 8.80778 23.7528C9.05778 23.6222 9.24528 23.4205 9.37028 23.1477C9.49718 22.8731 9.56063 22.5189 9.56063 22.0852C9.56063 21.6553 9.49718 21.304 9.37028 21.0312C9.24528 20.7585 9.05873 20.5578 8.81063 20.429C8.56252 20.3002 8.25665 20.2358 7.89301 20.2358H7.10892V23.946ZM17.1257 22.0909C17.1257 22.7254 17.0054 23.2652 16.7649 23.7102C16.5263 24.1553 16.2005 24.4953 15.7876 24.7301C15.3767 24.9631 14.9145 25.0795 14.4013 25.0795C13.8842 25.0795 13.4202 24.9621 13.0092 24.7273C12.5982 24.4924 12.2734 24.1525 12.0348 23.7074C11.7962 23.2623 11.6768 22.7235 11.6768 22.0909C11.6768 21.4564 11.7962 20.9167 12.0348 20.4716C12.2734 20.0265 12.5982 19.6875 13.0092 19.4545C13.4202 19.2197 13.8842 19.1023 14.4013 19.1023C14.9145 19.1023 15.3767 19.2197 15.7876 19.4545C16.2005 19.6875 16.5263 20.0265 16.7649 20.4716C17.0054 20.9167 17.1257 21.4564 17.1257 22.0909ZM15.8786 22.0909C15.8786 21.6799 15.817 21.3333 15.6939 21.0511C15.5727 20.7689 15.4013 20.5549 15.1797 20.4091C14.9581 20.2633 14.6986 20.1903 14.4013 20.1903C14.1039 20.1903 13.8445 20.2633 13.6229 20.4091C13.4013 20.5549 13.2289 20.7689 13.1058 21.0511C12.9846 21.3333 12.924 21.6799 12.924 22.0909C12.924 22.5019 12.9846 22.8485 13.1058 23.1307C13.2289 23.4129 13.4013 23.6269 13.6229 23.7727C13.8445 23.9186 14.1039 23.9915 14.4013 23.9915C14.6986 23.9915 14.9581 23.9186 15.1797 23.7727C15.4013 23.6269 15.5727 23.4129 15.6939 23.1307C15.817 22.8485 15.8786 22.5019 15.8786 22.0909ZM23.2505 21.2188H22.0061C21.9834 21.0578 21.937 20.9148 21.8669 20.7898C21.7969 20.6629 21.7069 20.5549 21.597 20.4659C21.4872 20.3769 21.3603 20.3087 21.2164 20.2614C21.0743 20.214 20.92 20.1903 20.7533 20.1903C20.4522 20.1903 20.1898 20.2652 19.9664 20.4148C19.7429 20.5625 19.5696 20.7784 19.4465 21.0625C19.3234 21.3447 19.2618 21.6875 19.2618 22.0909C19.2618 22.5057 19.3234 22.8542 19.4465 23.1364C19.5715 23.4186 19.7457 23.6316 19.9692 23.7756C20.1927 23.9195 20.4512 23.9915 20.7448 23.9915C20.9095 23.9915 21.062 23.9697 21.2022 23.9261C21.3442 23.8826 21.4702 23.8191 21.58 23.7358C21.6898 23.6506 21.7808 23.5473 21.8527 23.4261C21.9266 23.3049 21.9777 23.1667 22.0061 23.0114L23.2505 23.017C23.2183 23.2841 23.1378 23.5417 23.009 23.7898C22.8821 24.036 22.7107 24.2566 22.4948 24.4517C22.2808 24.6449 22.0251 24.7983 21.7277 24.9119C21.4323 25.0237 21.098 25.0795 20.7249 25.0795C20.2059 25.0795 19.7419 24.9621 19.3328 24.7273C18.9256 24.4924 18.6037 24.1525 18.3669 23.7074C18.1321 23.2623 18.0147 22.7235 18.0147 22.0909C18.0147 21.4564 18.134 20.9167 18.3726 20.4716C18.6112 20.0265 18.9351 19.6875 19.3442 19.4545C19.7533 19.2197 20.2135 19.1023 20.7249 19.1023C21.062 19.1023 21.3745 19.1496 21.6624 19.2443C21.9522 19.339 22.2088 19.4773 22.4323 19.6591C22.6558 19.839 22.8376 20.0597 22.9777 20.321C23.1198 20.5824 23.2107 20.8816 23.2505 21.2188Z" fill="#A4A5BB"/>
</svg>
