<svg width="28" height="34" viewBox="0 0 28 34" fill="none" xmlns="http://www.w3.org/2000/svg">
<path d="M4 33H24C25.6569 33 27 31.6569 27 30V10L18 1H4C2.34315 1 1 2.34315 1 4V30C1 31.6569 2.34315 33 4 33Z" stroke="#A4A5BB" stroke-width="1.5" stroke-linecap="round" stroke-linejoin="round"/>
<path d="M18 1V8C18 9.10457 18.8954 10 20 10H27" stroke="#A4A5BB" stroke-width="1.5" stroke-linecap="round" stroke-linejoin="round"/>
<path d="M6.58584 25V19.1818H8.88129C9.32258 19.1818 9.69853 19.2661 10.0091 19.4347C10.3197 19.6013 10.5565 19.8333 10.7194 20.1307C10.8841 20.4261 10.9665 20.767 10.9665 21.1534C10.9665 21.5398 10.8832 21.8807 10.7165 22.1761C10.5499 22.4716 10.3084 22.7017 9.99209 22.8665C9.67769 23.0312 9.29701 23.1136 8.85004 23.1136H7.38697V22.1278H8.65118C8.88792 22.1278 9.083 22.0871 9.23641 22.0057C9.39171 21.9223 9.50724 21.8078 9.583 21.6619C9.66065 21.5142 9.69947 21.3447 9.69947 21.1534C9.69947 20.9602 9.66065 20.7917 9.583 20.6477C9.50724 20.5019 9.39171 20.3892 9.23641 20.3097C9.0811 20.2282 8.88413 20.1875 8.6455 20.1875H7.81595V25H6.58584ZM13.908 25H11.8455V19.1818H13.9251C14.5103 19.1818 15.0141 19.2983 15.4364 19.5312C15.8588 19.7623 16.1836 20.0947 16.4109 20.5284C16.64 20.9621 16.7546 21.4811 16.7546 22.0852C16.7546 22.6913 16.64 23.2121 16.4109 23.6477C16.1836 24.0833 15.8569 24.4176 15.4308 24.6506C15.0065 24.8835 14.4989 25 13.908 25ZM13.0756 23.946H13.8569C14.2205 23.946 14.5264 23.8816 14.7745 23.7528C15.0245 23.6222 15.212 23.4205 15.337 23.1477C15.4639 22.8731 15.5273 22.5189 15.5273 22.0852C15.5273 21.6553 15.4639 21.304 15.337 21.0312C15.212 20.7585 15.0254 20.5578 14.7773 20.429C14.5292 20.3002 14.2234 20.2358 13.8597 20.2358H13.0756V23.946ZM17.7458 25V19.1818H21.5981V20.196H18.976V21.5824H21.3424V22.5966H18.976V25H17.7458Z" fill="#A4A5BB"/>
</svg>
