<svg width="87" height="22" viewBox="0 0 87 22" fill="none" xmlns="http://www.w3.org/2000/svg">
    <g clip-path="url(#clip0_508_12916)">
        <path fill-rule="evenodd" clip-rule="evenodd" d="M46.7722 5.327C46.9814 5.54844 48.8647 10.8237 49.0617 11.475C49.2578 12.1728 49.5348 12.8422 49.8864 13.4679C50.5387 13.6242 50.6003 12.9339 50.7972 12.3868C51.8681 9.43002 53.4929 5.1186 54.3053 2.21392C54.8715 0.807169 54.9207 0.429431 53.8991 0.429431C52.8774 0.429431 52.9882 1.13281 52.582 2.04459C52.2251 3.77697 50.8465 7.43713 50.3418 9.11741C50.3418 9.33884 50.3418 9.33884 50.0833 9.33884C49.234 6.83795 48.2493 3.77697 47.2892 1.30214C47.0307 0.820195 46.5752 0.715991 46.2675 1.7971C45.7505 3.51646 45.0366 5.56146 44.4827 7.22872C44.4827 7.22872 43.818 9.33884 43.7688 9.44305C43.4168 8.84411 43.159 8.18865 43.0056 7.50225C42.2425 5.50936 41.5778 3.36016 40.9254 1.36726C40.7654 0.989525 40.7654 0.768093 40.4084 0.54666C40.0506 0.406353 39.6637 0.370364 39.2883 0.442456C38.279 0.611787 38.9313 1.47147 39.1406 2.10971C40.3715 5.61356 41.7378 9.82078 43.1041 13.1553C43.1361 13.2379 43.1881 13.3102 43.2548 13.3648C43.3216 13.4193 43.4008 13.4543 43.4844 13.4662C43.568 13.4781 43.6531 13.4665 43.7312 13.4325C43.8092 13.3985 43.8773 13.3433 43.9288 13.2725C44.1257 12.8687 46.6245 5.327 46.7722 5.327Z" fill="#21222E"/>
        <path fill-rule="evenodd" clip-rule="evenodd" d="M0.19453 0.652913C0.143649 0.8699 0.160932 1.09852 0.243766 1.30419C0.453019 2.21597 -0.162431 12.6103 -0.00241389 13.0271C0.495823 13.2642 1.05443 13.3192 1.58545 13.1834C1.83163 12.9099 1.73315 12.6494 1.73315 12.2195C1.73315 10.3829 1.88086 8.61147 1.88086 6.72278C1.94241 6.0194 1.99164 5.53746 1.99164 5.10762C1.99164 4.67778 1.99164 4.72988 2.09012 4.62568C2.18859 4.52147 3.80107 7.49128 3.96108 7.81692C4.26881 8.45516 4.87195 9.43207 5.27815 10.1876C5.8936 11.3729 6.20132 10.5653 6.34903 10.2918C6.70599 9.80981 9.4632 4.69081 9.66015 4.5866C9.84478 4.79501 9.84478 9.91402 9.84478 10.2918C9.84478 13.0922 9.53706 13.3658 11.2111 13.2485C11.7281 13.2485 11.7773 12.8187 11.7281 12.3368C11.7281 11.425 11.7281 10.396 11.7281 9.48418C11.5927 7.16564 11.4942 4.52147 11.4942 2.21597C11.4942 1.94243 11.5927 0.913422 11.5927 0.757117C11.442 0.577423 11.2378 0.457532 11.014 0.417268C10.7902 0.377005 10.5601 0.418779 10.3618 0.535684C10.0048 0.757117 9.90633 1.23906 9.64784 1.5647C8.61388 3.50549 7.22297 5.70679 6.25056 7.54338C5.8936 8.19465 5.8936 7.97322 5.58587 7.54338C4.92119 6.51437 4.05956 4.74291 3.45641 3.7139L2.22551 1.5647C2.05442 1.19121 1.83484 0.844851 1.57314 0.535684C1.22849 0.275175 0.551491 0.483582 0.19453 0.652913Z" fill="#21222E"/>
        <path fill-rule="evenodd" clip-rule="evenodd" d="M65.1436 6.68042C65.5793 6.30425 66.0961 6.04794 66.648 5.93431C67.2 5.82068 67.7699 5.85326 68.307 6.02914C69.9318 6.78462 70.1411 9.32459 69.4272 10.562C69.1231 11.0443 68.6851 11.4148 68.1736 11.6224C67.6621 11.8301 67.1023 11.8646 66.5715 11.7213C66.0572 11.6139 65.5705 11.3919 65.1436 11.07V6.68042ZM65.1436 4.84383C65.0668 3.42522 65.0668 2.00312 65.1436 0.584503C65.1436 -0.00164307 64.9467 -0.105847 64.4297 0.102561C63.1988 0.64963 63.1988 0.428197 63.3711 1.61351C63.4696 2.21269 63.3711 9.15526 63.3711 10.1322C63.3711 12.0599 63.1126 12.5028 65.7591 13.3104C66.5126 13.4776 67.2903 13.4819 68.0455 13.323C68.8007 13.1641 69.5177 12.8452 70.1534 12.3856C72.7506 10.1322 72.0367 3.77574 67.2977 4.25768C66.8846 4.28134 66.4734 4.33355 66.0668 4.41399C65.9068 4.46609 65.3036 4.84383 65.2298 4.84383H65.1436Z" fill="#21222E"/>
        <path fill-rule="evenodd" clip-rule="evenodd" d="M29.2551 13.1415C29.4476 12.4623 29.5021 11.7476 29.4151 11.0444C29.3647 10.3073 29.3647 9.56726 29.4151 8.83011C29.5628 8.83011 29.7228 9.10365 30.0305 9.42928C30.3382 9.75492 32.8739 12.5554 33.2801 12.868C33.4218 13.0076 33.5927 13.1098 33.7787 13.1664C33.9648 13.223 34.1609 13.2323 34.351 13.1936C34.7079 13.1936 35.2742 13.1936 35.4711 12.9331C35.4711 12.5554 34.7572 11.9562 34.4495 11.6306C34.1417 11.3049 33.7478 10.8881 33.3909 10.4453C32.608 9.71614 31.8757 8.92822 31.1999 8.08766C31.1999 7.97043 33.994 5.48257 34.511 5.01365C34.7079 4.79222 34.9172 4.74012 34.868 4.41448C34.2344 4.20767 33.5567 4.20767 32.9231 4.41448C32.677 4.53171 30.9906 6.14687 30.5352 6.57671C30.3875 6.73301 29.5135 7.70992 29.4151 7.65782C29.2674 7.16285 29.4151 0.428692 29.3166 0.0509533C29.2181 -0.326785 27.4826 0.272386 27.5318 0.923659C27.6283 1.38125 27.6778 1.84854 27.6795 2.31738V11.6306C27.6795 11.9562 27.581 12.9331 27.7903 13.0894C28.2692 13.219 28.769 13.2367 29.2551 13.1415Z" fill="#21222E"/>
        <path fill-rule="evenodd" clip-rule="evenodd" d="M15.9966 8.72682C16.5628 8.57051 18.4584 9.05245 18.5445 9.5865C18.5937 10.1628 18.5937 10.7426 18.5445 11.3189C18.1876 11.8008 15.7381 12.7647 14.9257 11.0453C14.8162 10.8011 14.7594 10.5342 14.7594 10.2638C14.7594 9.99349 14.8162 9.72654 14.9257 9.48229C15.0439 9.2837 15.2004 9.11375 15.3849 8.98356C15.5694 8.85338 15.7779 8.76589 15.9966 8.72682ZM18.5938 8.07554C18.1155 7.74024 17.5805 7.50583 17.0182 7.38519C16.3175 7.30309 15.6085 7.35604 14.9257 7.5415C14.3507 7.71576 13.8438 8.08065 13.4794 8.58251C13.115 9.08437 12.9124 9.69671 12.9014 10.3295C12.8903 10.9623 13.0715 11.5821 13.4181 12.0978C13.7648 12.6136 14.2587 12.998 14.8272 13.1945C15.8008 13.5459 16.857 13.5459 17.8306 13.1945C18.0399 13.0903 18.4461 12.8168 18.5938 12.7647C18.7415 12.7126 18.803 13.1424 19 13.2467C19.1969 13.3509 20.1201 13.2467 20.3786 12.9861C20.6371 12.7256 20.6863 12.7647 20.5263 12.387C20.2881 11.8886 20.2021 11.3242 20.2801 10.7718V6.89023C20.3445 6.34062 20.2176 5.785 19.9231 5.32717C18.9507 3.28217 13.0916 4.08975 13.5594 5.82214C14.0271 7.55452 14.7903 5.22297 17.3752 5.5486C18.7661 5.70491 18.6184 7.11166 18.6184 8.07554H18.5938Z" fill="#21222E"/>
        <path fill-rule="evenodd" clip-rule="evenodd" d="M78.8413 7.81539H74.6194C74.6759 7.28056 74.9066 6.78322 75.2717 6.40864C75.6703 6.03875 76.1711 5.8149 76.6996 5.77039C76.9748 5.74633 77.2519 5.78122 77.5141 5.87298C77.7764 5.96473 78.0184 6.11147 78.2259 6.30444C78.4347 6.48626 78.5995 6.71822 78.7066 6.98102C78.8136 7.24383 78.8598 7.52988 78.8413 7.81539ZM74.5086 9.20911C74.8163 9.05281 79.4322 9.20911 80.2692 9.20911C81.1062 9.20911 80.7246 6.30444 79.1983 5.11912C78.5747 4.62718 77.8324 4.33189 77.057 4.26735C76.2817 4.2028 75.5048 4.37163 74.8163 4.75435C74.1277 5.13706 73.5554 5.71806 73.1656 6.43025C72.7757 7.14244 72.5842 7.95679 72.613 8.77927C72.5838 9.57811 72.7594 10.3704 73.1213 11.0722C73.4832 11.7739 74.0179 12.3589 74.6686 12.7651C76.0349 13.742 79.703 13.6899 80.1584 12.1789C80.7246 10.2381 79.3952 11.3192 78.9275 11.5276C78.5341 11.6983 78.1196 11.808 77.6966 11.8533C74.9763 12.1789 74.3116 9.63895 74.5086 9.20911Z" fill="#21222E"/>
        <path fill-rule="evenodd" clip-rule="evenodd" d="M56.0403 7.8103C56.0834 7.25396 56.3225 6.73507 56.71 6.35635C57.0975 5.97763 57.6053 5.76669 58.1328 5.7653C59.1914 5.64807 60.4223 6.62498 60.213 7.8103H56.0403ZM55.831 9.11284C56.0895 9.11284 60.8777 9.11284 61.5424 9.11284C62.2071 9.11284 62.0963 8.683 62.047 8.14896C62.0111 7.42572 61.7982 6.72478 61.4293 6.11478C61.0603 5.50478 60.548 5.00664 59.9424 4.66917C59.3369 4.3317 58.6589 4.16646 57.9748 4.18964C57.2908 4.21283 56.6242 4.42363 56.0403 4.80142C55.3837 5.21188 54.8468 5.80593 54.4885 6.51829C54.1301 7.23064 53.9644 8.03373 54.0093 8.83931C53.957 9.63453 54.1263 10.4285 54.496 11.123C54.8657 11.8175 55.4197 12.3821 56.0895 12.7469C57.8251 13.8802 61.2346 13.3982 61.5424 12.1087C61.5424 11.731 61.7886 10.8062 61.2346 11.0276C60.5656 11.4279 59.8372 11.7053 59.0806 11.8482C58.6772 11.9052 58.2672 11.877 57.8742 11.7652C57.4812 11.6534 57.1131 11.4603 56.7911 11.1969C56.348 10.8192 55.6341 9.68596 55.831 9.11284Z" fill="#21222E"/>
        <path fill-rule="evenodd" clip-rule="evenodd" d="M83.4769 13.1933C83.7846 12.8676 83.7354 12.7113 83.7354 12.2294V10.9269C83.7354 9.20749 83.4277 6.35491 85.3109 5.92507C85.7171 5.82087 85.8156 6.18558 86.3326 6.08138C86.6375 5.79194 86.8664 5.424 86.9973 5.01329C86.9973 4.19269 85.7664 4.03638 84.6463 4.57042C84.2893 4.73975 83.9939 5.3259 83.7354 5.378C83.7354 4.89606 83.8339 4.68765 83.5261 4.25781C83.1316 4.29785 82.7497 4.42664 82.406 4.63555C81.9014 4.89606 81.8029 4.89606 81.9014 5.54733C81.9998 6.19861 81.9014 10.6663 81.9014 11.7344C81.9506 13.3626 81.9506 13.3105 83.4769 13.1933Z" fill="#21222E"/>
        <path fill-rule="evenodd" clip-rule="evenodd" d="M23.4588 13.1411V13.0369C23.6017 11.714 23.6388 10.3807 23.5696 9.05115C23.5696 8.02214 23.8158 6.35488 24.8867 6.02925C25.7483 5.70361 25.7976 6.56329 26.3638 6.02925C27.6808 4.5704 25.9083 3.98425 24.8375 4.46619C23.7666 4.94814 23.9143 5.32587 23.6066 5.43008C23.5818 5.21813 23.5818 5.00377 23.6066 4.79183C23.6066 4.5183 23.4958 4.5183 23.3973 4.36199C23.0026 4.35859 22.6148 4.47133 22.2772 4.68763C21.7725 4.89603 21.6125 4.94814 21.7725 5.59941C21.8808 6.59801 21.9137 7.60415 21.871 8.60829V11.5781C21.9818 13.1932 21.7725 13.3105 23.4588 13.1411Z" fill="#21222E"/>
        <path fill-rule="evenodd" clip-rule="evenodd" d="M46.4131 14.8737C44.3811 15.1389 42.3831 15.6413 40.4555 16.3716C39.8524 16.6451 39.2246 16.8014 38.6215 17.075C37.3906 17.5569 36.2335 17.9867 35.0149 18.4817C34.6088 18.638 31.7038 19.5498 31.1992 19.667C28.7374 20.3053 25.0447 21.0607 22.6936 19.9275C21.5735 19.3414 21.4627 21.1649 24.0107 21.8162C25.5007 22.0924 27.0298 22.0212 28.4912 21.6078C29.7221 21.3343 31.1992 20.8523 32.3685 20.4746C33.5379 20.0969 34.9165 19.667 36.1843 19.2893C36.492 19.1721 36.7382 19.0679 37.0952 18.9636L38.9784 18.3645C39.3354 18.2603 39.5939 18.104 39.9016 17.9867L41.8464 17.5048C42.2034 17.4006 42.4619 17.2964 42.7696 17.1792C45.3468 16.5974 47.9753 16.3092 50.6105 16.3195C51.2628 16.3195 52.2352 16.4888 52.8999 16.593C54.1308 16.7493 53.86 16.059 53.0476 15.6161C50.9354 14.7597 48.6479 14.5037 46.4131 14.8737Z" fill="#F9CC46"/>
    </g>
    <defs>
        <clipPath id="clip0_508_12916">
            <rect width="87" height="22" fill="white"/>
        </clipPath>
    </defs>
</svg>
