<svg width="1426" height="823" viewBox="0 0 1426 823" fill="none" xmlns="http://www.w3.org/2000/svg">
<circle r="228.916" transform="matrix(0.5 -0.866025 1 -4.33996e-08 712.499 411.36)" fill="white" fill-opacity="0.06"/>
<circle r="46.9277" transform="matrix(0.5 -0.866025 1 -4.33996e-08 373.705 411.36)" fill="white" fill-opacity="0.06"/>
<circle r="25.1807" transform="matrix(0.5 -0.866025 1 -4.33996e-08 262.682 411.362)" fill="white" fill-opacity="0.06"/>
<circle r="46.9277" transform="matrix(-0.5 0.866025 -1 4.33996e-08 1051.3 411.361)" fill="white" fill-opacity="0.06"/>
<circle r="25.1807" transform="matrix(-0.5 0.866025 -1 4.33996e-08 1162.32 411.359)" fill="white" fill-opacity="0.06"/>
<circle r="46.9277" transform="matrix(1.11603 -0.433013 0.0669875 0.75 689.803 157.262)" fill="white" fill-opacity="0.06"/>
<circle r="25.1807" transform="matrix(1.11603 -0.433013 0.0669875 0.75 682.366 73.9956)" fill="white" fill-opacity="0.06"/>
<circle r="46.9277" transform="matrix(-1.11603 0.433013 -0.0669874 -0.75 735.198 665.458)" fill="white" fill-opacity="0.06"/>
<circle r="25.1807" transform="matrix(-1.11603 0.433013 -0.0669874 -0.75 742.634 748.723)" fill="white" fill-opacity="0.06"/>
<circle r="46.9277" transform="matrix(0.616026 0.433013 -0.933013 0.75 1028.6 157.262)" fill="white" fill-opacity="0.06"/>
<circle r="25.1807" transform="matrix(0.616026 0.433013 -0.933013 0.75 1132.19 73.9962)" fill="white" fill-opacity="0.06"/>
<circle r="46.9277" transform="matrix(-0.616025 -0.433013 0.933013 -0.75 396.402 665.456)" fill="white" fill-opacity="0.06"/>
<circle r="25.1807" transform="matrix(-0.616026 -0.433013 0.933013 -0.75 292.813 748.722)" fill="white" fill-opacity="0.06"/>
<circle r="91.5663" transform="matrix(1 -4.33996e-08 -0.5 0.866025 904.215 79.2988)" fill="white" fill-opacity="0.06"/>
<circle r="91.5663" transform="matrix(1 -4.33996e-08 -0.5 0.866025 520.782 743.427)" fill="white" fill-opacity="0.06"/>
<circle r="91.5663" transform="matrix(0.933013 -0.75 0.616025 0.433013 476.295 245.33)" fill="white" fill-opacity="0.06"/>
<circle r="91.5663" transform="matrix(0.933013 -0.75 0.616025 0.433013 948.702 577.393)" fill="white" fill-opacity="0.06"/>
<circle r="91.5663" transform="matrix(-0.0669873 -0.75 1.11603 -0.433013 284.579 577.394)" fill="white" fill-opacity="0.06"/>
<circle r="91.5663" transform="matrix(-0.0669875 -0.75 1.11603 -0.433013 1140.42 245.33)" fill="white" fill-opacity="0.06"/>
</svg>
