<svg width="863" height="565" viewBox="0 0 863 565" fill="none" xmlns="http://www.w3.org/2000/svg">
<circle r="228.916" transform="matrix(0.5 -0.866025 1 -4.33996e-08 712.499 386.36)" fill="white" fill-opacity="0.06"/>
<circle r="46.9277" transform="matrix(0.5 -0.866025 1 -4.33996e-08 373.704 386.36)" fill="white" fill-opacity="0.06"/>
<circle r="25.1807" transform="matrix(0.5 -0.866025 1 -4.33996e-08 262.681 386.362)" fill="white" fill-opacity="0.06"/>
<circle r="46.9277" transform="matrix(1.11603 -0.433013 0.0669875 0.75 689.805 132.262)" fill="white" fill-opacity="0.06"/>
<circle r="25.1807" transform="matrix(1.11603 -0.433013 0.0669875 0.75 682.367 48.9952)" fill="white" fill-opacity="0.06"/>
<circle r="91.5663" transform="matrix(1 -4.33996e-08 -0.5 0.866025 904.217 54.2988)" fill="white" fill-opacity="0.06"/>
<circle r="91.5663" transform="matrix(0.933013 -0.75 0.616025 0.433013 476.297 220.33)" fill="white" fill-opacity="0.06"/>
<circle r="91.5663" transform="matrix(0.933013 -0.75 0.616025 0.433013 948.703 552.393)" fill="white" fill-opacity="0.06"/>
<circle r="91.5663" transform="matrix(-0.0669873 -0.75 1.11603 -0.433013 284.58 552.394)" fill="white" fill-opacity="0.06"/>
</svg>
