<svg width="714" height="581" viewBox="0 0 714 581" fill="none" xmlns="http://www.w3.org/2000/svg">
<path d="M543.278 133.407C540.078 168.593 530.961 205.695 516.663 241.493C498.982 285.763 474.824 324.755 446.802 354.255L445.247 352.902C473.134 323.544 497.181 284.724 514.789 240.637C530.702 200.797 540.166 159.337 542.172 120.759L544.16 121.091C543.949 125.165 543.655 129.27 543.278 133.407Z" fill="#4B4C94"/>
<path d="M556.024 337.762C516.665 400.25 468.914 444.898 421.566 463.48L420.608 461.727C467.628 443.274 515.099 398.854 554.279 336.652L556.024 337.762Z" fill="#4B4C94"/>
<path d="M542.323 177.215C539.123 212.401 530.006 249.503 515.708 285.302C498.027 329.571 473.869 368.564 445.847 398.064L444.292 396.71C472.179 367.353 496.226 328.532 513.834 284.446C529.746 244.606 539.211 203.146 541.217 164.567L543.204 164.899C542.994 168.974 542.7 173.079 542.323 177.215Z" fill="#4B4C94"/>
<path d="M100.468 267.549H74.6437C74.092 267.55 73.5472 267.427 73.0501 267.188C72.553 266.949 72.1166 266.601 71.7736 266.169C71.4348 265.749 71.1957 265.258 71.0744 264.732C70.953 264.206 70.9526 263.66 71.073 263.134C73.5325 252.304 73.378 241.046 70.6222 230.288C70.4479 229.579 70.4901 228.835 70.7432 228.151C70.9964 227.466 71.449 226.873 72.0428 226.448C85.3217 216.917 95.7792 217.194 103.125 227.271C103.456 227.731 103.676 228.26 103.768 228.819C105.731 240.594 105.839 252.603 104.09 264.412C103.968 265.283 103.534 266.081 102.868 266.658C102.203 267.235 101.35 267.551 100.468 267.549Z" fill="#4B4C93"/>
<path d="M92.4614 241.743H83.5778C83.0866 241.743 82.6154 241.548 82.2681 241.201C81.9207 240.855 81.7256 240.385 81.7256 239.894C81.7256 239.404 81.9207 238.934 82.2681 238.587C82.6154 238.241 83.0866 238.046 83.5778 238.046H92.4614C92.952 238.047 93.4221 238.242 93.7686 238.589C94.1151 238.935 94.3098 239.405 94.3098 239.894C94.3098 240.384 94.1151 240.853 93.7686 241.2C93.4221 241.546 92.952 241.742 92.4614 241.743Z" fill="#E4E4FE"/>
<path d="M92.4614 248.223H83.5778C83.0866 248.223 82.6154 248.028 82.2681 247.682C81.9207 247.335 81.7256 246.865 81.7256 246.375C81.7256 245.885 81.9207 245.414 82.2681 245.068C82.6154 244.721 83.0866 244.526 83.5778 244.526H92.4614C92.952 244.527 93.4221 244.723 93.7686 245.069C94.1151 245.416 94.3098 245.885 94.3098 246.375C94.3098 246.864 94.1151 247.334 93.7686 247.68C93.4221 248.027 92.952 248.222 92.4614 248.223Z" fill="#E4E4FE"/>
<path d="M92.4614 254.708H83.5778C83.0866 254.708 82.6154 254.513 82.2681 254.166C81.9207 253.819 81.7256 253.349 81.7256 252.859C81.7256 252.369 81.9207 251.899 82.2681 251.552C82.6154 251.205 83.0866 251.011 83.5778 251.011H92.4614C92.952 251.012 93.4221 251.207 93.7686 251.553C94.1151 251.9 94.3098 252.37 94.3098 252.859C94.3098 253.349 94.1151 253.818 93.7686 254.165C93.4221 254.511 92.952 254.706 92.4614 254.708Z" fill="#E4E4FE"/>
<path d="M569.798 382.614H543.973C543.422 382.616 542.877 382.492 542.38 382.253C541.883 382.014 541.446 381.666 541.103 381.235C540.764 380.815 540.525 380.323 540.404 379.797C540.283 379.272 540.282 378.726 540.403 378.2C542.862 367.37 542.708 356.112 539.952 345.353C539.778 344.645 539.82 343.9 540.073 343.216C540.326 342.532 540.779 341.939 541.372 341.514C554.651 331.983 565.109 332.259 572.455 342.337C572.786 342.796 573.006 343.326 573.098 343.884C575.06 355.66 575.169 367.669 573.419 379.477C573.298 380.349 572.864 381.147 572.198 381.724C571.532 382.3 570.679 382.617 569.798 382.614Z" fill="#4B4C93"/>
<path d="M561.792 356.807H552.908C552.418 356.806 551.948 356.611 551.601 356.264C551.255 355.918 551.06 355.448 551.06 354.959C551.06 354.469 551.255 354 551.601 353.653C551.948 353.307 552.418 353.111 552.908 353.11H561.792C562.283 353.11 562.754 353.305 563.102 353.652C563.449 353.998 563.644 354.469 563.644 354.959C563.644 355.449 563.449 355.919 563.102 356.266C562.754 356.612 562.283 356.807 561.792 356.807Z" fill="#E4E4FE"/>
<path d="M561.792 363.288H552.908C552.417 363.287 551.947 363.091 551.601 362.745C551.254 362.398 551.06 361.929 551.06 361.439C551.06 360.95 551.254 360.48 551.601 360.134C551.947 359.787 552.417 359.592 552.908 359.591H561.792C562.283 359.591 562.754 359.786 563.101 360.132C563.449 360.479 563.644 360.949 563.644 361.439C563.644 361.929 563.449 362.4 563.101 362.746C562.754 363.093 562.283 363.288 561.792 363.288Z" fill="#E4E4FE"/>
<path d="M561.792 369.772H552.908C552.418 369.771 551.948 369.576 551.601 369.229C551.255 368.883 551.06 368.413 551.06 367.924C551.06 367.434 551.255 366.964 551.601 366.618C551.948 366.271 552.418 366.076 552.908 366.075H561.792C562.283 366.075 562.754 366.27 563.102 366.617C563.449 366.963 563.644 367.433 563.644 367.924C563.644 368.414 563.449 368.884 563.102 369.231C562.754 369.577 562.283 369.772 561.792 369.772Z" fill="#E4E4FE"/>
<path d="M213.478 481.184L211.868 458.829C201.317 453.566 189.639 450.952 177.846 451.215C194.436 464.012 193.108 489.59 204.597 507.094C208.223 512.526 213.027 517.074 218.653 520.402C224.279 523.729 230.584 525.75 237.099 526.316L250.906 534.243C252.486 523.825 251.783 513.19 248.848 503.069C245.912 492.949 240.812 483.584 233.9 475.62C229.978 471.19 225.513 467.271 220.609 463.955C217.591 472.602 213.478 481.184 213.478 481.184Z" fill="#4B4C94"/>
<path d="M505.521 484.428L507.132 462.073C517.682 456.81 529.361 454.196 541.153 454.459C524.563 467.257 525.892 492.834 514.402 510.338C510.777 515.77 505.973 520.318 500.347 523.646C494.72 526.973 488.416 528.994 481.9 529.56L468.093 537.487C466.513 527.069 467.216 516.434 470.152 506.314C473.088 496.193 478.187 486.828 485.099 478.864C489.021 474.435 493.487 470.516 498.39 467.2C501.408 475.846 505.521 484.428 505.521 484.428Z" fill="#4B4C94"/>
<path d="M352.192 232.15C360.712 232.15 367.62 225.257 367.62 216.754C367.62 208.251 360.712 201.358 352.192 201.358C343.671 201.358 336.764 208.251 336.764 216.754C336.764 225.257 343.671 232.15 352.192 232.15Z" fill="#6263C7"/>
<path d="M360.112 210.339C359.88 210.118 359.572 209.995 359.251 209.995C358.93 209.995 358.622 210.118 358.39 210.339C355.116 212.945 352.176 215.942 349.635 219.263C349.011 218.059 348.388 216.854 347.764 215.65C347.044 214.259 344.941 215.488 345.66 216.877C346.573 218.638 347.485 220.4 348.398 222.162C348.508 222.342 348.662 222.49 348.846 222.593C349.03 222.696 349.238 222.751 349.449 222.751C349.66 222.751 349.868 222.696 350.052 222.593C350.236 222.49 350.391 222.342 350.501 222.162C353.209 218.356 356.445 214.954 360.112 212.058C360.339 211.829 360.466 211.521 360.466 211.199C360.466 210.877 360.339 210.568 360.112 210.339Z" fill="#E4E4FE"/>
<path d="M283.16 260.413L259.896 223.953L286.835 209.555L293.906 237.372L343.726 264.238C345.693 263.531 347.823 263.411 349.858 263.892C351.892 264.373 353.742 265.435 355.182 266.947C356.622 268.459 357.59 270.356 357.968 272.408C358.346 274.46 358.118 276.577 357.312 278.501C356.505 280.426 355.154 282.074 353.425 283.246C351.696 284.418 349.662 285.062 347.572 285.101C345.482 285.139 343.426 284.569 341.654 283.462C339.883 282.354 338.473 280.756 337.596 278.863L283.16 260.413Z" fill="#FED4D4"/>
<path d="M242.898 180.22C235.588 190.93 261.566 229.861 261.566 229.861C262.831 227.139 274.929 257.708 276.955 255.903C282.714 250.77 291.728 236.474 296.739 235.837C299.605 235.473 290.093 215.192 290.093 215.192C290.093 215.192 285.746 203.216 279.847 187.918C278.26 183.562 275.594 179.678 272.098 176.626C268.602 173.575 264.389 171.457 259.851 170.467C259.851 170.467 250.208 169.509 242.898 180.22Z" fill="#3F3D56"/>
<path d="M243.256 529.167L254.305 529.166L259.561 486.637L243.254 486.638L243.256 529.167Z" fill="#FED4D4"/>
<path d="M240.437 525.569L243.546 525.569L255.688 520.642L262.196 525.568H262.197C265.874 525.569 269.401 527.027 272.002 529.622C274.602 532.217 276.063 535.736 276.063 539.406V539.856L240.437 539.857L240.437 525.569Z" fill="#2F2E41"/>
<path d="M294.587 529.167L305.635 529.166L310.892 486.637L294.585 486.638L294.587 529.167Z" fill="#FED4D4"/>
<path d="M291.768 525.569L294.878 525.569L307.019 520.642L313.527 525.568H313.528C317.205 525.569 320.732 527.027 323.333 529.622C325.933 532.217 327.394 535.736 327.395 539.406V539.856L291.768 539.857L291.768 525.569Z" fill="#2F2E41"/>
<path d="M299.369 296.659L227.502 298.452C213.853 305.85 213.646 321.863 218.118 340.874C218.118 340.874 216.608 352.173 219.628 355.186C222.647 358.2 224.157 358.2 222.647 363.473C221.137 368.746 229.114 377.359 228.145 378.325C227.176 379.292 224.912 384.565 224.912 384.565L232.461 427.504C232.461 427.504 237.745 502.081 239.254 503.588C240.764 505.095 242.274 503.588 240.764 507.355C239.254 511.121 237.745 509.614 239.254 511.121C240.592 512.56 241.852 514.069 243.029 515.641H261.279C261.279 515.641 262.655 508.108 262.655 507.355C262.655 506.601 264.165 502.081 264.165 501.328C264.165 500.575 262.831 499.243 262.831 499.243C262.37 497.712 262.058 496.14 261.9 494.548C261.9 493.042 257.371 435.037 257.371 435.037L266.43 359.706L288.321 433.53C288.321 433.53 288.321 498.315 289.831 499.821C291.34 501.328 291.34 500.575 290.586 503.588C289.831 506.601 286.811 505.848 289.076 508.108C291.34 510.368 292.095 506.601 291.34 510.368L290.586 514.134L313.232 514.458C313.232 514.458 316.251 508.108 314.741 505.848C313.232 503.588 313.322 504.205 315.164 500.507C317.006 496.808 317.761 496.055 317.006 495.302C316.251 494.548 316.251 490.542 316.251 490.542L312.477 418.464C312.477 418.464 311.722 342.38 311.722 340.12C311.665 338.957 311.88 337.797 312.349 336.731V333.664L309.457 322.794L299.369 296.659Z" fill="#2F2E41"/>
<path d="M256.197 147.533C268.529 147.533 278.527 137.557 278.527 125.25C278.527 112.943 268.529 102.967 256.197 102.967C243.865 102.967 233.868 112.943 233.868 125.25C233.868 137.557 243.865 147.533 256.197 147.533Z" fill="#FED4D4"/>
<path d="M267.362 162.26C272.173 165.114 275.05 170.358 276.702 175.694C279.761 185.573 281.602 195.787 282.184 206.11L283.929 237.017L305.538 302.825C286.81 318.639 216.415 306.419 216.415 306.419C216.415 306.419 214.254 305.7 216.415 303.544C218.576 301.387 220.679 303.298 218.518 301.141C216.358 298.985 217.847 301.387 218.568 299.231C219.288 297.074 218.568 298.512 217.847 297.793C217.127 297.074 223.423 290.605 223.423 290.605L217.661 252.83L210.458 176.636C219.102 165.854 236.485 159.498 236.485 159.498L240.977 151.43L263.435 153.223L267.362 162.26Z" fill="#3F3D56"/>
<path d="M274.605 113.411C276.34 114.703 277.626 116.505 278.281 118.564C278.533 115.199 278.549 111.82 278.329 108.453C278.066 106.086 276.396 105.554 274.463 104.937C272.718 104.38 270.743 103.751 270.212 101.453C263.193 94.6393 250.974 94.9829 242.612 97.3598C238.01 98.6677 235.363 100.348 235.126 101.333L235.077 101.535L234.89 101.629C231.343 103.398 230.653 108.987 230.698 113.363C230.785 121.609 233.638 130.974 235.245 131.734C235.33 131.775 235.351 131.759 235.388 131.728C237.808 129.798 240.761 131.875 242.058 133.004C242.824 127.879 245.288 123.158 249.057 119.595C252.826 116.032 257.684 113.832 262.853 113.346C264.541 113.183 266.216 112.903 267.865 112.508C268.701 112.292 269.561 112.179 270.425 112.172C271.912 112.15 273.371 112.582 274.605 113.411Z" fill="#2F2E41"/>
<path d="M413.223 314.415L456.177 270.887L467.493 236.074L449.282 228.723C440.26 237.804 430.974 265.604 430.974 265.604L401.656 304.87C401.422 304.957 401.189 305.049 400.959 305.157C399.609 305.793 398.447 306.766 397.584 307.981C396.721 309.197 396.186 310.613 396.033 312.095C395.879 313.577 396.11 315.073 396.705 316.439C397.3 317.805 398.238 318.995 399.429 319.894C400.619 320.792 402.022 321.37 403.501 321.569C404.98 321.769 406.486 321.584 407.873 321.034C409.26 320.483 410.481 319.584 411.418 318.425C412.355 317.265 412.977 315.884 413.223 314.415Z" fill="#FFB8B8"/>
<path d="M444.314 232.704L467.345 239.352L467.431 239.336C475.896 237.695 482.593 223.656 486.72 212.167C488.077 208.378 487.942 204.215 486.342 200.521C484.742 196.827 481.797 193.878 478.101 192.268C475.366 191.099 472.358 190.717 469.417 191.164C466.477 191.612 463.72 192.871 461.459 194.8L449.976 204.668L444.314 232.704Z" fill="#4B4C93"/>
<path d="M424.61 527.874L412.224 527.873L406.333 480.198L424.612 480.199L424.61 527.874Z" fill="#FFB8B8"/>
<path d="M427.77 523.84L424.283 523.84L410.673 518.316L403.378 523.839H403.377C399.254 523.84 395.3 525.474 392.385 528.383C389.47 531.292 387.832 535.237 387.832 539.351V539.856L427.769 539.857L427.77 523.84Z" fill="#2F2E41"/>
<path d="M479.568 527.874L467.182 527.873L461.291 480.198L479.571 480.199L479.568 527.874Z" fill="#FFB8B8"/>
<path d="M482.728 523.84L479.242 523.84L465.631 518.316L458.336 523.839H458.335C454.213 523.84 450.259 525.474 447.344 528.383C444.429 531.292 442.791 535.237 442.791 539.351V539.856L482.727 539.857L482.728 523.84Z" fill="#2F2E41"/>
<path d="M498.454 322.522C498.454 322.522 499.901 339.841 496.285 356.439C492.669 373.036 492.669 419.781 492.669 419.781L484.715 510.869L460.851 508.704L454.343 356.439L431.203 407.675L433.372 414.891L430.483 416.695C430.483 416.695 432.649 430.767 431.203 430.767C429.757 430.767 426.141 432.932 426.141 432.932L429.034 507.26L404.447 506.539L395.77 401.902L405.17 342.006L405.893 330.46L409.147 330.594L410.804 325.77L413.848 317.471L498.454 322.522Z" fill="#2F2E41"/>
<path d="M499.704 326.162L499.833 325.981C506.716 316.365 496.364 293.256 494.802 289.906L501.379 287.777L499.898 275.215L499.196 269.614L504.222 264.598L504.237 264.473L507.129 239.216L511.335 222.44C512.919 216.099 512.784 209.45 510.943 203.178C509.103 196.905 505.622 191.235 500.86 186.748L491.138 177.601L479.324 160.156H460.272L453.739 172.47C447.406 173.931 441.787 177.562 437.86 182.732C433.934 187.902 431.95 194.283 432.253 200.763L433.734 233.058L427.938 273.268L427.934 280.545L421.412 287.779L422.836 294.885L417.872 297.008L415.68 307.216C414.773 308.41 408.786 316.377 408.786 318.555C408.786 318.882 409.028 319.198 409.547 319.549C413.627 322.306 436.18 327.927 446.161 323.941C456.793 319.699 499.058 326.063 499.484 326.128L499.704 326.162Z" fill="#6263C7"/>
<path d="M467.337 154.522C481.272 154.522 492.569 143.248 492.569 129.342C492.569 115.436 481.272 104.162 467.337 104.162C453.401 104.162 442.104 115.436 442.104 129.342C442.104 143.248 453.401 154.522 467.337 154.522Z" fill="#FFB8B8"/>
<path d="M464.92 154.93C468.827 154.89 472.724 154.517 476.568 153.815C480.374 152.94 488.77 146.461 491.059 142.633C492.759 139.789 493.779 135.391 494.336 132.201C495.088 127.981 494.943 123.649 493.911 119.488C492.879 115.327 490.982 111.428 488.344 108.045C487.327 106.628 485.946 105.511 484.345 104.813C484.203 104.762 484.058 104.717 483.911 104.679C481.591 104.133 479.487 102.908 477.869 101.16C477.555 100.807 477.216 100.476 476.855 100.171C475.04 98.721 472.908 97.7204 470.632 97.2507C466.955 96.3694 461.695 97.4737 454.998 100.536C451.634 102.074 447.9 101.645 445.022 101.099C444.861 101.072 444.695 101.088 444.542 101.145C444.389 101.202 444.253 101.298 444.148 101.423C442.96 102.595 441.371 103.275 439.701 103.326C438.68 103.398 437.643 104.839 436.393 106.715C436.11 107.141 435.779 107.639 435.539 107.942L435.491 107.372L434.929 108.024C434.045 109.048 433.435 110.278 433.156 111.601C432.878 112.923 432.939 114.294 433.334 115.587C433.729 116.879 434.445 118.051 435.417 118.993C436.388 119.935 437.582 120.616 438.888 120.973C439.924 121.22 440.983 121.36 442.047 121.392C442.693 121.433 443.36 121.476 444.002 121.57C446.061 121.936 447.991 122.829 449.601 124.161C451.212 125.493 452.449 127.219 453.192 129.171C453.367 129.622 453.644 130.027 454.001 130.354C454.358 130.681 454.786 130.922 455.251 131.059C455.716 131.195 456.206 131.223 456.684 131.14C457.162 131.057 457.614 130.865 458.006 130.58C458.657 130.047 459.429 129.678 460.254 129.506C461.079 129.334 461.934 129.363 462.745 129.592C463.451 129.96 464.008 130.559 464.324 131.289C464.705 132.1 465.32 132.78 466.091 133.242C468.718 134.509 469.049 140.413 468.246 145.363C467.471 150.135 465.786 153.615 464.147 153.827C462.886 153.991 462.744 154.084 462.658 154.309L462.581 154.511L462.728 154.695C463.433 154.929 464.181 155.009 464.92 154.93Z" fill="#2F2E41"/>
<path d="M443.985 235.397L431.857 219.976C419.503 223.371 397.582 242.869 397.582 242.869L352.564 262.364C351.061 262.113 349.519 262.26 348.091 262.792C346.664 263.324 345.403 264.222 344.434 265.395C343.465 266.569 342.822 267.976 342.572 269.476C342.321 270.976 342.471 272.515 343.006 273.938C343.541 275.362 344.442 276.62 345.619 277.586C346.796 278.551 348.207 279.19 349.71 279.439C351.213 279.687 352.755 279.536 354.181 279C355.607 278.465 356.867 277.564 357.833 276.388L416.805 259.97L443.985 235.397Z" fill="#FFB8B8"/>
<path d="M441.079 238.924L460.216 217.635L461.278 202.55C461.476 199.588 460.84 196.63 459.441 194.009C458.043 191.389 455.937 189.212 453.364 187.723C449.861 185.728 445.731 185.135 441.807 186.063C437.883 186.991 434.458 189.372 432.226 192.723C425.464 202.893 418.19 216.643 421.933 224.396L421.97 224.474L441.079 238.924Z" fill="#6263C7"/>
<path d="M264.696 318.94L214.958 293.52C211.42 291.712 210.248 286.916 212.345 282.829L244.776 219.638C246.873 215.551 251.458 213.697 254.996 215.505L304.733 240.926C308.271 242.734 309.443 247.53 307.346 251.617L274.916 314.808C272.818 318.894 268.234 320.748 264.696 318.94Z" fill="#4B4C93"/>
<path d="M256.197 307.254L222.405 289.983C219.091 288.289 217.994 283.798 219.958 279.97L246.9 227.472C248.865 223.645 253.159 221.909 256.472 223.602L297.287 244.462C300.6 246.155 301.698 250.647 299.733 254.474L285.097 282.994C276.347 300.043 270.957 314.797 256.197 307.254Z" fill="#E4E4FE"/>
<path d="M272.905 278.586L242.974 263.289C242.608 263.029 242.348 262.646 242.242 262.21C242.135 261.774 242.189 261.315 242.394 260.916C242.599 260.517 242.941 260.205 243.357 260.036C243.774 259.868 244.237 259.854 244.663 259.999L274.594 275.296C274.96 275.556 275.22 275.939 275.326 276.375C275.433 276.811 275.379 277.27 275.174 277.669C274.969 278.068 274.627 278.381 274.21 278.549C273.794 278.717 273.331 278.731 272.905 278.586Z" fill="#4B4C93"/>
<path d="M246.468 273.278L239.638 269.787C239.272 269.527 239.012 269.144 238.905 268.708C238.799 268.273 238.853 267.813 239.058 267.414C239.263 267.015 239.605 266.703 240.021 266.534C240.438 266.366 240.901 266.353 241.326 266.497L248.157 269.988C248.523 270.248 248.783 270.631 248.889 271.067C248.996 271.502 248.942 271.962 248.737 272.361C248.532 272.76 248.19 273.072 247.774 273.241C247.357 273.409 246.894 273.422 246.468 273.278Z" fill="#4B4C93"/>
<path d="M255.23 285.963L236.302 276.289C235.936 276.029 235.676 275.646 235.569 275.21C235.463 274.775 235.517 274.315 235.722 273.916C235.927 273.517 236.269 273.205 236.685 273.036C237.102 272.868 237.565 272.854 237.99 272.999L256.919 282.673C257.285 282.933 257.545 283.316 257.651 283.752C257.758 284.187 257.703 284.647 257.499 285.046C257.294 285.445 256.952 285.757 256.535 285.926C256.119 286.094 255.656 286.107 255.23 285.963V285.963Z" fill="#4B4C93"/>
<path d="M284.75 255.505L254.819 240.208C254.453 239.948 254.193 239.565 254.087 239.129C253.98 238.693 254.034 238.234 254.239 237.835C254.444 237.436 254.786 237.123 255.202 236.955C255.619 236.787 256.082 236.773 256.507 236.918L286.439 252.215C286.805 252.475 287.064 252.858 287.171 253.294C287.277 253.73 287.223 254.189 287.018 254.588C286.814 254.987 286.472 255.299 286.055 255.468C285.639 255.636 285.175 255.65 284.75 255.505Z" fill="#4B4C93"/>
<path d="M258.313 250.201L251.482 246.71C251.116 246.45 250.856 246.067 250.75 245.631C250.643 245.195 250.697 244.736 250.902 244.337C251.107 243.938 251.449 243.625 251.865 243.457C252.282 243.289 252.745 243.275 253.171 243.42L260.001 246.911C260.367 247.171 260.627 247.554 260.734 247.989C260.84 248.425 260.786 248.885 260.581 249.284C260.376 249.683 260.034 249.995 259.618 250.164C259.201 250.332 258.738 250.345 258.313 250.201Z" fill="#4B4C93"/>
<path d="M267.075 262.885L248.147 253.211C247.781 252.951 247.521 252.568 247.414 252.132C247.308 251.696 247.362 251.237 247.567 250.838C247.772 250.439 248.113 250.126 248.53 249.958C248.946 249.79 249.41 249.776 249.835 249.921L268.764 259.595C269.129 259.855 269.389 260.238 269.496 260.673C269.602 261.109 269.548 261.569 269.343 261.968C269.139 262.367 268.797 262.679 268.38 262.848C267.964 263.016 267.5 263.029 267.075 262.885L267.075 262.885Z" fill="#4B4C93"/>
<path d="M223.48 263.928L212.244 222.183L242.27 216.511L240.656 245.164L280.109 285.703C282.197 285.618 284.266 286.141 286.061 287.209C287.857 288.276 289.303 289.842 290.223 291.716C291.142 293.589 291.495 295.689 291.24 297.76C290.984 299.83 290.13 301.781 288.782 303.376C287.434 304.97 285.65 306.139 283.648 306.739C281.646 307.34 279.513 307.346 277.507 306.757C275.502 306.168 273.712 305.009 272.355 303.422C270.998 301.836 270.133 299.889 269.865 297.82L223.48 263.928Z" fill="#FED4D4"/>
<path d="M209.171 175.376C198.979 183.406 212.061 228.32 212.061 228.32C214.086 226.101 216.44 258.884 218.915 257.768C225.951 254.595 238.847 243.655 243.819 244.547C246.662 245.057 243.683 222.863 243.683 222.863C243.683 222.863 243.136 210.137 242.106 193.778C241.901 189.148 240.525 184.644 238.107 180.687C235.688 176.73 232.306 173.448 228.275 171.147C228.275 171.147 219.363 167.347 209.171 175.376Z" fill="#3F3D56"/>
<path d="M378.759 356.583L351.617 343.793C351.037 343.521 350.526 343.122 350.122 342.624C349.719 342.127 349.433 341.545 349.287 340.922C349.14 340.312 349.133 339.677 349.267 339.065C349.401 338.452 349.672 337.878 350.06 337.385C357.922 327.357 363.321 315.631 365.823 303.146C366.012 302.19 366.528 301.329 367.282 300.71C368.036 300.091 368.982 299.752 369.958 299.751C383.801 299.798 394.146 304.842 400.707 314.741C401.052 315.256 401.282 315.84 401.378 316.452C401.475 317.065 401.436 317.691 401.265 318.287C397.467 331.352 391.687 343.76 384.126 355.08C383.565 355.936 382.712 356.56 381.725 356.836C380.738 357.112 379.685 357.023 378.759 356.583Z" fill="#4B4C93"/>
<path d="M386.744 338.643L365.991 328.864C365.475 328.62 365.076 328.182 364.884 327.646C364.691 327.11 364.72 326.519 364.963 326.004C365.207 325.488 365.646 325.091 366.184 324.899C366.721 324.706 367.313 324.735 367.829 324.978L388.582 334.758C388.838 334.878 389.067 335.048 389.257 335.257C389.447 335.465 389.594 335.71 389.69 335.975C389.785 336.241 389.827 336.523 389.813 336.804C389.8 337.086 389.731 337.363 389.61 337.618C389.489 337.873 389.319 338.102 389.11 338.291C388.9 338.481 388.656 338.627 388.39 338.723C388.123 338.818 387.841 338.86 387.559 338.846C387.276 338.832 386.999 338.763 386.744 338.643H386.744Z" fill="#E4E4FE"/>
<path d="M389.968 331.829L369.215 322.05C368.699 321.807 368.3 321.369 368.108 320.832C367.915 320.296 367.944 319.705 368.188 319.19C368.431 318.675 368.87 318.277 369.408 318.085C369.945 317.893 370.537 317.921 371.054 318.165L391.806 327.944C392.323 328.187 392.721 328.625 392.914 329.162C393.106 329.698 393.078 330.289 392.834 330.804C392.59 331.319 392.151 331.717 391.614 331.909C391.076 332.101 390.484 332.073 389.968 331.83V331.829Z" fill="#E4E4FE"/>
<path d="M362.238 117.956L360.306 118.167C351.693 84.3898 334.998 60.9894 312.024 50.4949C282.818 37.1547 246.705 46.1129 210.335 75.7198C173.78 105.478 141.42 152.483 119.216 208.078L117.341 207.222C139.643 151.384 172.17 104.152 208.929 74.2284C245.873 44.1537 282.723 35.1298 312.693 48.8193C336.326 59.6145 353.458 83.5215 362.238 117.956Z" fill="#4B4C94"/>
<path d="M149.111 161.946C144.059 172.567 139.254 183.57 134.829 194.649C109.365 258.406 96.4603 323.518 97.5148 382.951L95.5246 382.739C94.469 323.085 107.41 257.748 132.955 193.793C137.392 182.682 142.211 171.648 147.278 160.998L149.111 161.946Z" fill="#4B4C94"/>
<path d="M148.156 205.755C143.104 216.375 138.299 227.378 133.874 238.457C108.409 302.214 95.5052 367.327 96.5597 426.76L94.5695 426.548C93.514 366.894 106.455 301.557 131.999 237.601C136.437 226.491 141.256 215.457 146.323 204.807L148.156 205.755Z" fill="#4B4C94"/>
<path d="M94.665 221.686C96.865 218.386 95.5628 213.663 91.7565 211.135C87.9501 208.608 83.081 209.235 80.881 212.535C78.6809 215.835 79.9831 220.558 83.7895 223.086C87.5958 225.613 92.4649 224.986 94.665 221.686Z" fill="#5F60AA"/>
<path d="M563.136 340.858C565.336 337.558 564.034 332.834 560.227 330.307C556.421 327.78 551.552 328.407 549.352 331.707C547.152 335.007 548.454 339.73 552.26 342.257C556.067 344.785 560.936 344.158 563.136 340.858Z" fill="#5F60AA"/>
</svg>
