<svg width="1988" height="1731" viewBox="0 0 1988 1731" fill="none" xmlns="http://www.w3.org/2000/svg">
<g clip-path="url(#clip0_649_31383)">
<path d="M1643.05 984.59H1641.91C1631.87 984.292 1622.36 980.029 1615.46 972.735C1608.56 965.44 1604.84 955.71 1605.1 945.675C1610.72 752.949 1567.38 607.71 1476.32 514.002C1386.26 421.179 1244.88 374.224 1056.14 374.224C1046.07 374.224 1036.42 370.228 1029.31 363.115C1022.19 356.002 1018.19 346.355 1018.19 336.295C1018.19 326.236 1022.19 316.589 1029.31 309.476C1036.42 302.363 1046.07 298.367 1056.14 298.367C1266.1 298.367 1425.85 353.11 1530.76 461.079C1636.7 570.009 1687.29 733.758 1680.94 947.749C1680.66 957.61 1676.54 966.972 1669.47 973.85C1662.39 980.728 1652.92 984.581 1643.05 984.59Z" fill="white"/>
<path d="M929.657 374.224H803.174C793.11 374.224 783.458 370.228 776.342 363.115C769.226 356.002 765.229 346.355 765.229 336.295C765.229 326.236 769.226 316.589 776.342 309.476C783.458 302.363 793.11 298.367 803.174 298.367H929.657C939.721 298.367 949.373 302.363 956.489 309.476C963.605 316.589 967.603 326.236 967.603 336.295C967.603 346.355 963.605 356.002 956.489 363.115C949.373 370.228 939.721 374.224 929.657 374.224Z" fill="white"/>
<path d="M689.331 374.224H393.359C383.296 374.224 373.644 370.228 366.528 363.115C359.412 356.002 355.414 346.355 355.414 336.295C355.414 326.236 359.412 316.589 366.528 309.476C373.644 302.363 383.296 298.367 393.359 298.367H689.331C699.395 298.367 709.047 302.363 716.163 309.476C723.279 316.589 727.276 326.236 727.276 336.295C727.276 346.355 723.279 356.002 716.163 363.115C709.047 370.228 699.395 374.224 689.331 374.224Z" fill="white"/>
<path d="M1753.31 1061.71C1744.93 1061.71 1736.89 1058.38 1730.96 1052.45C1725.03 1046.53 1721.69 1038.49 1721.69 1030.1C1721.69 826.884 1705.07 719.977 1672.29 629.228C1670.79 625.305 1670.09 621.124 1670.23 616.928C1670.37 612.732 1671.34 608.605 1673.09 604.789C1674.84 600.973 1677.33 597.543 1680.43 594.701C1683.52 591.859 1687.14 589.66 1691.09 588.234C1695.04 586.809 1699.24 586.184 1703.43 586.396C1707.63 586.608 1711.74 587.654 1715.52 589.472C1719.31 591.289 1722.7 593.843 1725.48 596.983C1728.27 600.123 1730.41 603.787 1731.76 607.76C1767.05 705.387 1784.89 824.28 1784.89 1030.03C1784.9 1034.18 1784.09 1038.29 1782.5 1042.13C1780.92 1045.97 1778.6 1049.47 1775.67 1052.41C1772.74 1055.35 1769.25 1057.69 1765.42 1059.28C1761.58 1060.88 1757.47 1061.7 1753.31 1061.71V1061.71Z" fill="white"/>
<path d="M1663.11 563.004C1657.42 563.012 1651.83 561.485 1646.93 558.583C1642.03 555.682 1638.01 551.514 1635.28 546.518C1597.91 476.828 1544.07 417.317 1478.44 373.161C1418.77 333.134 1346.9 304.056 1264.76 286.71C1256.56 284.973 1249.38 280.049 1244.8 273.022C1240.23 265.994 1238.64 257.439 1240.37 249.237C1242.11 241.035 1247.04 233.86 1254.07 229.288C1261.1 224.717 1269.66 223.125 1277.86 224.862C1468.55 265.167 1607.51 363.198 1690.88 516.277C1693.5 521.096 1694.82 526.513 1694.71 531.996C1694.61 537.478 1693.07 542.839 1690.27 547.551C1687.46 552.264 1683.48 556.166 1678.71 558.875C1673.94 561.584 1668.54 563.007 1663.06 563.004H1663.11Z" fill="white"/>
<path d="M1167.5 271.767C1166.48 271.767 1165.47 271.767 1164.46 271.767C1130.11 268.505 1093.63 266.71 1056.14 266.71H932.186C923.8 266.71 915.757 263.38 909.827 257.452C903.897 251.525 900.565 243.486 900.565 235.103C900.565 226.72 903.897 218.681 909.827 212.754C915.757 206.826 923.8 203.496 932.186 203.496H1056.14C1095.65 203.496 1134.13 205.266 1170.43 208.705C1178.5 209.497 1185.95 213.354 1191.25 219.481C1196.56 225.608 1199.3 233.536 1198.93 241.629C1198.55 249.722 1195.08 257.361 1189.23 262.969C1183.38 268.578 1175.6 271.727 1167.5 271.767V271.767Z" fill="white"/>
<path d="M823.411 266.71H488.229C479.843 266.71 471.8 263.38 465.87 257.452C459.94 251.525 456.608 243.486 456.608 235.103C456.608 226.72 459.94 218.681 465.87 212.754C471.8 206.826 479.843 203.496 488.229 203.496H823.411C831.798 203.496 839.841 206.826 845.771 212.754C851.701 218.681 855.032 226.72 855.032 235.103C855.032 243.486 851.701 251.525 845.771 257.452C839.841 263.38 831.798 266.71 823.411 266.71Z" fill="white"/>
<path d="M393.369 266.71H360.913C352.527 266.71 344.484 263.38 338.554 257.452C332.623 251.525 329.292 243.486 329.292 235.103C329.292 226.72 332.623 218.681 338.554 212.754C344.484 206.826 352.527 203.496 360.913 203.496H393.369C401.755 203.496 409.798 206.826 415.728 212.754C421.658 218.681 424.99 226.72 424.99 235.103C424.99 243.486 421.658 251.525 415.728 257.452C409.798 263.38 401.755 266.71 393.369 266.71Z" fill="white"/>
<path d="M266.879 266.71H158.103C149.717 266.71 141.674 263.38 135.744 257.452C129.814 251.525 126.482 243.486 126.482 235.103C126.482 226.72 129.814 218.681 135.744 212.754C141.674 206.826 149.717 203.496 158.103 203.496H266.879C275.266 203.496 283.309 206.826 289.239 212.754C295.169 218.681 298.5 226.72 298.5 235.103C298.5 243.486 295.169 251.525 289.239 257.452C283.309 263.38 275.266 266.71 266.879 266.71Z" fill="white"/>
<path d="M1861.38 985.856C1849.64 985.85 1838.39 981.185 1830.09 972.888C1821.79 964.592 1817.12 953.34 1817.11 941.607C1817.11 788.655 1792.42 654.743 1743.75 543.613C1741.22 538.259 1739.78 532.449 1739.53 526.529C1739.28 520.608 1740.22 514.699 1742.3 509.15C1744.38 503.6 1747.55 498.525 1751.63 494.225C1755.71 489.925 1760.61 486.487 1766.04 484.116C1771.48 481.745 1777.33 480.488 1783.26 480.421C1789.19 480.354 1795.07 481.477 1800.55 483.725C1806.04 485.972 1811.01 489.298 1815.19 493.504C1819.36 497.711 1822.65 502.713 1824.85 508.214C1878.48 630.621 1905.8 776.467 1905.8 941.708C1905.79 947.523 1904.63 953.279 1902.39 958.645C1900.15 964.012 1896.87 968.885 1892.75 972.985C1888.62 977.086 1883.73 980.333 1878.35 982.541C1872.97 984.75 1867.2 985.876 1861.38 985.856V985.856Z" fill="white"/>
<path d="M1709.8 440.144C1702.86 440.155 1696 438.529 1689.8 435.396C1683.6 432.264 1678.22 427.714 1674.11 422.116C1570.04 280.846 1408.8 198.213 1194.84 176.518C1188.95 176.073 1183.2 174.453 1177.95 171.754C1172.69 169.055 1168.03 165.332 1164.24 160.804C1160.44 156.275 1157.59 151.034 1155.86 145.388C1154.12 139.742 1153.54 133.806 1154.13 127.93C1154.73 122.054 1156.5 116.356 1159.33 111.173C1162.16 105.991 1166.01 101.427 1170.63 97.7525C1175.26 94.0777 1180.57 91.3657 1186.26 89.7765C1191.95 88.1873 1197.91 87.7529 1203.77 88.499C1443.66 112.773 1625.9 207.341 1745.47 369.648C1750.32 376.239 1753.24 384.043 1753.92 392.195C1754.6 400.346 1753.01 408.527 1749.32 415.828C1745.63 423.13 1739.99 429.267 1733.02 433.559C1726.06 437.851 1718.04 440.131 1709.86 440.144H1709.8Z" fill="white"/>
<path d="M1043.49 170.624H578.029C566.288 170.624 555.028 165.962 546.726 157.664C538.424 149.365 533.76 138.11 533.76 126.375C533.76 114.639 538.424 103.384 546.726 95.0854C555.028 86.787 566.288 82.125 578.029 82.125H1043.49C1055.23 82.125 1066.49 86.787 1074.79 95.0854C1083.09 103.384 1087.76 114.639 1087.76 126.375C1087.76 138.11 1083.09 149.365 1074.79 157.664C1066.49 165.962 1055.23 170.624 1043.49 170.624Z" fill="white"/>
<path d="M443.957 170.624H254.231C242.49 170.624 231.23 165.962 222.928 157.664C214.626 149.365 209.962 138.11 209.962 126.375C209.962 114.639 214.626 103.384 222.928 95.0854C231.23 86.787 242.49 82.125 254.231 82.125H443.957C455.698 82.125 466.958 86.787 475.26 95.0854C483.562 103.384 488.226 114.639 488.226 126.375C488.226 138.11 483.562 149.365 475.26 157.664C466.958 165.962 455.698 170.624 443.957 170.624Z" fill="white"/>
<path d="M125.219 170.624H44.2693C32.5284 170.624 21.2683 165.962 12.9662 157.664C4.66408 149.365 0 138.11 0 126.375C0 114.639 4.66408 103.384 12.9662 95.0854C21.2683 86.787 32.5284 82.125 44.2693 82.125H125.219C136.96 82.125 148.22 86.787 156.522 95.0854C164.824 103.384 169.488 114.639 169.488 126.375C169.488 138.11 164.824 149.365 156.522 157.664C148.22 165.962 136.96 170.624 125.219 170.624Z" fill="white"/>
<path d="M1961.57 982.063C1954.86 982.063 1948.42 979.399 1943.68 974.657C1938.93 969.915 1936.27 963.484 1936.27 956.777C1936.27 865.421 1929.14 779.526 1915.05 701.394C1913.97 694.843 1915.51 688.132 1919.34 682.708C1923.17 677.285 1928.98 673.584 1935.52 672.406C1942.05 671.227 1948.79 672.665 1954.27 676.409C1959.76 680.154 1963.55 685.903 1964.83 692.418C1979.45 773.331 1986.86 862.311 1986.86 956.676C1986.88 960.005 1986.23 963.304 1984.97 966.384C1983.7 969.463 1981.84 972.262 1979.49 974.621C1977.14 976.98 1974.35 978.851 1971.27 980.129C1968.19 981.406 1964.9 982.063 1961.57 982.063Z" fill="white"/>
<path d="M1922.86 643.793C1917.24 643.794 1911.78 641.926 1907.34 638.483C1902.91 635.04 1899.74 630.219 1898.35 624.778C1890.59 594.26 1881.3 564.149 1870.52 534.56C1869.26 531.419 1868.65 528.057 1868.71 524.674C1868.78 521.291 1869.52 517.955 1870.9 514.864C1872.27 511.774 1874.26 508.991 1876.73 506.681C1879.21 504.371 1882.12 502.58 1885.3 501.416C1888.48 500.251 1891.86 499.736 1895.24 499.901C1898.62 500.066 1901.93 500.908 1904.98 502.376C1908.03 503.845 1910.76 505.91 1912.99 508.45C1915.23 510.99 1916.93 513.953 1918 517.163C1929.11 547.506 1939 579.416 1947.42 612.211C1948.25 615.429 1948.43 618.778 1947.96 622.066C1947.49 625.354 1946.38 628.517 1944.68 631.375C1942.99 634.232 1940.75 636.728 1938.09 638.72C1935.43 640.712 1932.4 642.161 1929.18 642.984C1927.12 643.529 1924.99 643.801 1922.86 643.793Z" fill="white"/>
<path d="M1861.41 473.698C1856.66 473.698 1852 472.36 1847.97 469.838C1843.95 467.316 1840.71 463.711 1838.64 459.437C1830.19 442.04 1821.09 424.947 1811.55 408.663C1808.27 402.882 1807.41 396.045 1809.14 389.63C1810.87 383.216 1815.05 377.739 1820.79 374.384C1826.52 371.029 1833.35 370.065 1839.79 371.7C1846.23 373.336 1851.77 377.44 1855.21 383.125C1865.33 400.547 1875.15 418.803 1884.15 437.362C1886.03 441.218 1886.89 445.487 1886.66 449.768C1886.43 454.048 1885.11 458.2 1882.84 461.833C1880.56 465.467 1877.4 468.462 1873.64 470.537C1869.89 472.612 1865.67 473.7 1861.38 473.698H1861.41Z" fill="white"/>
<path d="M1784.35 348.027C1780.44 348.051 1776.58 347.168 1773.07 345.448C1769.56 343.728 1766.49 341.218 1764.12 338.115C1688.23 238.819 1585.75 164.353 1459.62 116.564C1453.48 114.09 1448.56 109.313 1445.91 103.256C1443.26 97.1994 1443.08 90.3444 1445.42 84.1605C1447.77 77.9766 1452.44 72.9558 1458.44 70.1742C1464.44 67.3927 1471.29 67.0716 1477.53 69.2799C1612.61 120.357 1722.58 200.486 1804.44 307.368C1807.31 311.113 1809.07 315.586 1809.53 320.282C1809.99 324.977 1809.13 329.707 1807.04 333.937C1804.95 338.166 1801.72 341.728 1797.71 344.218C1793.7 346.708 1789.07 348.027 1784.35 348.027V348.027Z" fill="white"/>
<path d="M1382.39 90.522C1380.16 90.5122 1377.94 90.2148 1375.79 89.637C1279.36 63.7194 1169.27 50.5709 1048.55 50.5709C963.249 50.5709 876.659 50.7227 803.171 50.8744C796.462 50.8744 790.028 48.2104 785.284 43.4684C780.54 38.7265 777.875 32.295 777.875 25.5889C777.875 18.8828 780.54 12.4513 785.284 7.70937C790.028 2.96742 796.462 0.303426 803.171 0.303426C876.532 0.151713 963.249 0 1048.55 0C1173.77 0 1288.21 13.73 1388.94 40.8107C1394.87 42.3972 1400.02 46.0849 1403.43 51.1865C1406.85 56.2882 1408.28 62.4556 1407.48 68.5391C1406.68 74.6226 1403.69 80.2071 1399.08 84.2517C1394.46 88.2962 1388.53 90.5248 1382.39 90.522Z" fill="white"/>
<path d="M599.206 51.3022C592.497 51.3022 586.063 48.6382 581.318 43.8963C576.574 39.1543 573.909 32.7229 573.909 26.0167C573.909 19.3106 576.574 12.8792 581.318 8.13721C586.063 3.39526 592.497 0.731265 599.206 0.731265L661.917 0.579552L716.406 0.453125C723.115 0.453125 729.549 3.11712 734.293 7.85907C739.037 12.601 741.703 19.0325 741.703 25.7386C741.703 32.4447 739.037 38.8762 734.293 43.6181C729.549 48.3601 723.115 51.0241 716.406 51.0241L661.942 51.1505L599.155 51.3022H599.206Z" fill="white"/>
<path d="M194.787 51.7884C188.078 51.7884 181.644 49.1244 176.899 44.3825C172.155 39.6405 169.49 33.2091 169.49 26.503C169.49 19.7968 172.155 13.3654 176.899 8.62343C181.644 3.88149 188.078 1.21749 194.787 1.21749C295.544 1.21749 397.161 1.21749 514.589 0.914063C521.298 0.914062 527.732 3.57806 532.476 8.32001C537.22 13.062 539.885 19.4934 539.885 26.1995C539.885 32.9057 537.22 39.3371 532.476 44.0791C527.732 48.821 521.298 51.485 514.589 51.485C397.161 51.7126 295.569 51.7884 194.787 51.7884Z" fill="white"/>
<path d="M1861.84 1234.84C1850.1 1234.84 1838.84 1230.18 1830.53 1221.88C1822.23 1213.58 1817.57 1202.33 1817.57 1190.59V1063.94C1817.57 1052.2 1822.23 1040.95 1830.53 1032.65C1838.84 1024.35 1850.1 1019.69 1861.84 1019.69C1873.58 1019.69 1884.84 1024.35 1893.14 1032.65C1901.44 1040.95 1906.11 1052.2 1906.11 1063.94V1190.59C1906.1 1202.33 1901.43 1213.58 1893.13 1221.87C1884.83 1230.17 1873.58 1234.83 1861.84 1234.84Z" fill="white"/>
<path d="M1754.06 1480.8C1745.67 1480.8 1737.63 1477.47 1731.7 1471.54C1725.77 1465.61 1722.44 1457.57 1722.44 1449.19V1127.1C1722.44 1118.72 1725.77 1110.68 1731.7 1104.75C1737.63 1098.83 1745.67 1095.5 1754.06 1095.5C1762.44 1095.5 1770.49 1098.83 1776.42 1104.75C1782.35 1110.68 1785.68 1118.72 1785.68 1127.1V1449.19C1785.68 1457.57 1782.35 1465.61 1776.42 1471.54C1770.49 1477.47 1762.44 1480.8 1754.06 1480.8Z" fill="white"/>
<path d="M1754.06 1622.64C1745.67 1622.64 1737.63 1619.31 1731.7 1613.39C1725.77 1607.46 1722.44 1599.42 1722.44 1591.04V1550.73C1722.44 1542.35 1725.77 1534.31 1731.7 1528.38C1737.63 1522.46 1745.67 1519.12 1754.06 1519.12C1762.44 1519.12 1770.49 1522.46 1776.42 1528.38C1782.35 1534.31 1785.68 1542.35 1785.68 1550.73V1591.04C1785.68 1599.42 1782.35 1607.46 1776.42 1613.39C1770.49 1619.31 1762.44 1622.64 1754.06 1622.64Z" fill="white"/>
<path d="M1861.84 1730.21C1856.02 1730.21 1850.27 1729.07 1844.89 1726.85C1839.52 1724.62 1834.64 1721.37 1830.53 1717.26C1826.42 1713.15 1823.16 1708.27 1820.93 1702.9C1818.71 1697.53 1817.57 1691.77 1817.57 1685.96V1312.32C1817.57 1300.58 1822.23 1289.33 1830.54 1281.03C1838.84 1272.73 1850.1 1268.07 1861.84 1268.07C1873.58 1268.07 1884.84 1272.73 1893.14 1281.03C1901.44 1289.33 1906.11 1300.58 1906.11 1312.32V1685.96C1906.11 1697.7 1901.44 1708.95 1893.14 1717.25C1884.84 1725.55 1873.58 1730.21 1861.84 1730.21Z" fill="white"/>
<path d="M1962.7 1113.07C1955.99 1113.07 1949.56 1110.4 1944.82 1105.66C1940.07 1100.92 1937.41 1094.49 1937.41 1087.78V1047.48C1937.41 1040.77 1940.07 1034.34 1944.82 1029.6C1949.56 1024.86 1955.99 1022.19 1962.7 1022.19C1969.41 1022.19 1975.85 1024.86 1980.59 1029.6C1985.33 1034.34 1988 1040.77 1988 1047.48V1087.78C1988 1094.49 1985.33 1100.92 1980.59 1105.66C1975.85 1110.4 1969.41 1113.07 1962.7 1113.07Z" fill="white"/>
<path d="M1962.7 1394.11C1955.99 1394.11 1949.56 1391.45 1944.82 1386.71C1940.07 1381.96 1937.41 1375.53 1937.41 1368.83V1176.23C1937.41 1169.52 1940.07 1163.09 1944.82 1158.35C1949.56 1153.61 1955.99 1150.94 1962.7 1150.94C1969.41 1150.94 1975.85 1153.61 1980.59 1158.35C1985.33 1163.09 1988 1169.52 1988 1176.23V1368.83C1988 1375.53 1985.33 1381.96 1980.59 1386.71C1975.85 1391.45 1969.41 1394.11 1962.7 1394.11Z" fill="white"/>
</g>
<defs>
<clipPath id="clip0_649_31383">
<rect width="1988" height="1730.21" fill="white"/>
</clipPath>
</defs>
</svg>
