<svg width="728" height="299" viewBox="0 0 728 299" fill="none" xmlns="http://www.w3.org/2000/svg">
    <path d="M475.012 722.137H474.177C466.815 721.919 459.84 718.792 454.78 713.442C449.72 708.092 446.988 700.956 447.183 693.596C451.301 552.243 419.521 445.719 352.731 376.99C286.684 308.911 182.993 274.472 44.5715 274.472C37.1908 274.472 30.1124 271.541 24.8935 266.324C19.6745 261.107 16.7426 254.032 16.7426 246.654C16.7426 239.276 19.6745 232.201 24.8935 226.984C30.1124 221.767 37.1908 218.836 44.5715 218.836C198.559 218.836 315.719 258.987 392.656 338.175C470.355 418.068 507.46 538.168 502.803 695.117C502.596 702.349 499.578 709.216 494.389 714.26C489.201 719.305 482.25 722.13 475.012 722.137Z" fill="white"/>
    <path d="M489.724 412.931C485.549 412.937 481.449 411.817 477.858 409.689C474.266 407.561 471.315 404.504 469.316 400.84C441.905 349.726 402.418 306.079 354.29 273.693C310.524 244.336 257.816 223.009 197.576 210.287C191.558 209.013 186.293 205.402 182.939 200.247C179.585 195.093 178.416 188.818 179.691 182.803C180.965 176.787 184.578 171.524 189.734 168.172C194.891 164.819 201.168 163.651 207.186 164.925C347.036 194.486 448.945 266.386 510.095 378.66C512.015 382.194 512.983 386.167 512.904 390.188C512.824 394.21 511.7 398.141 509.642 401.598C507.584 405.054 504.663 407.916 501.164 409.903C497.666 411.89 493.711 412.933 489.687 412.931H489.724Z" fill="white"/>
    <path d="M126.242 199.322C125.5 199.322 124.758 199.322 124.016 199.322C98.8215 196.93 72.0686 195.613 44.5736 195.613H-46.3344C-52.485 195.613 -58.3837 193.171 -62.7328 188.824C-67.082 184.476 -69.5253 178.58 -69.5253 172.432C-69.5253 166.283 -67.082 160.387 -62.7328 156.04C-58.3837 151.692 -52.485 149.25 -46.3344 149.25H44.5736C73.5528 149.25 101.771 150.548 128.394 153.07C134.31 153.651 139.777 156.48 143.666 160.974C147.555 165.468 149.57 171.283 149.294 177.218C149.017 183.154 146.472 188.756 142.182 192.87C137.893 196.983 132.187 199.293 126.242 199.322Z" fill="white"/>
    <path d="M523.971 322.818C518.875 322.826 513.849 321.633 509.301 319.336C504.752 317.038 500.81 313.701 497.794 309.595C421.468 205.983 303.213 145.377 146.295 129.465C141.974 129.138 137.762 127.95 133.907 125.971C130.052 123.991 126.633 121.26 123.851 117.939C121.068 114.618 118.979 110.774 117.707 106.633C116.434 102.492 116.004 98.1382 116.441 93.8284C116.878 89.5186 118.174 85.3399 120.252 81.5387C122.331 77.7374 125.149 74.3905 128.542 71.6953C131.935 69 135.833 67.011 140.006 65.8454C144.18 64.6798 148.545 64.3612 152.844 64.9085C328.779 82.7119 462.432 152.071 550.131 271.114C553.685 275.948 555.83 281.672 556.328 287.65C556.826 293.629 555.658 299.629 552.952 304.984C550.247 310.339 546.11 314.84 541.001 317.988C535.892 321.136 530.01 322.808 524.008 322.818H523.971Z" fill="white"/>
    <path d="M35.2951 125.143H-306.074C-314.684 125.143 -322.943 121.724 -329.031 115.637C-335.12 109.551 -338.541 101.296 -338.541 92.6887C-338.541 84.0812 -335.12 75.8264 -329.031 69.74C-322.943 63.6537 -314.684 60.2344 -306.074 60.2344H35.2951C43.9059 60.2344 52.1641 63.6537 58.2528 69.74C64.3416 75.8264 67.7623 84.0812 67.7623 92.6887C67.7623 101.296 64.3416 109.551 58.2528 115.637C52.1641 121.724 43.9059 125.143 35.2951 125.143Z" fill="white"/>
    <path d="M635.158 347.426C631.673 347.427 628.258 346.446 625.305 344.596C622.352 342.746 619.98 340.102 618.46 336.967C612.264 324.208 605.585 311.671 598.59 299.728C596.189 295.488 595.554 290.473 596.822 285.768C598.09 281.064 601.159 277.047 605.366 274.586C609.573 272.125 614.58 271.418 619.304 272.618C624.028 273.818 628.09 276.828 630.612 280.997C638.034 293.775 645.232 307.165 651.837 320.777C653.211 323.605 653.844 326.736 653.675 329.875C653.507 333.015 652.542 336.06 650.873 338.725C649.203 341.389 646.883 343.586 644.131 345.108C641.379 346.63 638.285 347.428 635.139 347.426H635.158Z" fill="white"/>
    <path d="M578.646 255.258C575.779 255.276 572.946 254.628 570.371 253.367C567.795 252.105 565.548 250.264 563.804 247.988C508.146 175.161 432.989 120.545 340.486 85.4945C335.986 83.6805 332.377 80.1769 330.431 75.7345C328.484 71.292 328.357 66.2643 330.075 61.7288C331.792 57.1932 335.219 53.5108 339.621 51.4707C344.022 49.4306 349.048 49.1951 353.621 50.8148C452.692 88.2763 533.341 147.046 593.377 225.437C595.482 228.184 596.775 231.465 597.112 234.909C597.449 238.352 596.815 241.821 595.283 244.924C593.75 248.026 591.38 250.638 588.44 252.464C585.5 254.291 582.108 255.258 578.646 255.258Z" fill="white"/>
    <path d="M283.846 66.3922C282.211 66.3851 280.584 66.1669 279.004 65.7431C208.281 46.7342 127.54 37.0906 39.007 37.0906C-23.5525 37.0906 -87.0582 37.2019 -140.954 37.3132C-145.874 37.3132 -150.593 35.3593 -154.072 31.8814C-157.552 28.4034 -159.506 23.6864 -159.506 18.7679C-159.506 13.8493 -157.552 9.13226 -154.072 5.65434C-150.593 2.17642 -145.874 0.222544 -140.954 0.222544C-87.151 0.111272 -23.5525 0 39.007 0C130.843 0 214.775 10.0701 288.652 29.9321C293.001 31.0957 296.778 33.8004 299.28 37.5421C301.781 41.2838 302.837 45.8072 302.249 50.2691C301.661 54.731 299.469 58.8269 296.084 61.7933C292.698 64.7597 288.349 66.3943 283.846 66.3922Z" fill="white"/>
</svg>