<svg width="885" height="701" viewBox="0 0 885 701" fill="none" xmlns="http://www.w3.org/2000/svg">
    <path d="M929.657 374.224H803.174C793.11 374.224 783.458 370.228 776.342 363.115C769.226 356.002 765.229 346.355 765.229 336.295C765.229 326.236 769.226 316.589 776.342 309.476C783.458 302.363 793.11 298.367 803.174 298.367H929.657C939.721 298.367 949.373 302.363 956.489 309.476C963.605 316.589 967.603 326.236 967.603 336.295C967.603 346.355 963.605 356.002 956.489 363.115C949.373 370.228 939.721 374.224 929.657 374.224Z" fill="#EFF1F4"/>
    <path d="M689.331 374.224H393.359C383.296 374.224 373.644 370.228 366.528 363.115C359.412 356.002 355.414 346.355 355.414 336.295C355.414 326.236 359.412 316.589 366.528 309.476C373.644 302.363 383.296 298.367 393.359 298.367H689.331C699.395 298.367 709.047 302.363 716.163 309.476C723.279 316.589 727.276 326.236 727.276 336.295C727.276 346.355 723.279 356.002 716.163 363.115C709.047 370.228 699.395 374.224 689.331 374.224Z" fill="#EFF1F4"/>
    <path d="M823.411 266.71H488.229C479.843 266.71 471.8 263.38 465.87 257.452C459.94 251.525 456.608 243.486 456.608 235.103C456.608 226.72 459.94 218.681 465.87 212.754C471.8 206.826 479.843 203.496 488.229 203.496H823.411C831.798 203.496 839.841 206.826 845.771 212.754C851.701 218.681 855.032 226.72 855.032 235.103C855.032 243.486 851.701 251.525 845.771 257.452C839.841 263.38 831.798 266.71 823.411 266.71Z" fill="#EFF1F4"/>
    <path d="M393.369 266.71H360.913C352.527 266.71 344.484 263.38 338.554 257.452C332.623 251.525 329.292 243.486 329.292 235.103C329.292 226.72 332.623 218.681 338.554 212.754C344.484 206.826 352.527 203.496 360.913 203.496H393.369C401.755 203.496 409.798 206.826 415.728 212.754C421.658 218.681 424.99 226.72 424.99 235.103C424.99 243.486 421.658 251.525 415.728 257.452C409.798 263.38 401.755 266.71 393.369 266.71Z" fill="#EFF1F4"/>
    <path d="M266.879 266.71H158.103C149.717 266.71 141.674 263.38 135.744 257.452C129.814 251.525 126.482 243.486 126.482 235.103C126.482 226.72 129.814 218.681 135.744 212.754C141.674 206.826 149.717 203.496 158.103 203.496H266.879C275.266 203.496 283.308 206.826 289.239 212.754C295.169 218.681 298.5 226.72 298.5 235.103C298.5 243.486 295.169 251.525 289.239 257.452C283.308 263.38 275.266 266.71 266.879 266.71Z" fill="#EFF1F4"/>
    <path d="M1043.49 170.624H578.029C566.288 170.624 555.028 165.962 546.726 157.664C538.424 149.365 533.76 138.11 533.76 126.375C533.76 114.639 538.424 103.384 546.726 95.0854C555.028 86.787 566.288 82.125 578.029 82.125H1043.49C1055.23 82.125 1066.49 86.787 1074.79 95.0854C1083.09 103.384 1087.76 114.639 1087.76 126.375C1087.76 138.11 1083.09 149.365 1074.79 157.664C1066.49 165.962 1055.23 170.624 1043.49 170.624Z" fill="#EFF1F4"/>
    <path d="M443.957 170.624H254.231C242.49 170.624 231.23 165.962 222.928 157.664C214.626 149.365 209.962 138.11 209.962 126.375C209.962 114.639 214.626 103.384 222.928 95.0854C231.23 86.787 242.49 82.125 254.231 82.125H443.957C455.698 82.125 466.958 86.787 475.26 95.0854C483.562 103.384 488.226 114.639 488.226 126.375C488.226 138.11 483.562 149.365 475.26 157.664C466.958 165.962 455.698 170.624 443.957 170.624Z" fill="#EFF1F4"/>
    <path d="M125.219 170.624H44.2693C32.5284 170.624 21.2683 165.962 12.9662 157.664C4.66408 149.365 0 138.11 0 126.375C0 114.639 4.66408 103.384 12.9662 95.0854C21.2683 86.787 32.5284 82.125 44.2693 82.125H125.219C136.96 82.125 148.22 86.787 156.522 95.0854C164.824 103.384 169.488 114.639 169.488 126.375C169.488 138.11 164.824 149.365 156.522 157.664C148.22 165.962 136.96 170.624 125.219 170.624Z" fill="#EFF1F4"/>
    <path d="M1382.39 90.522C1380.16 90.5122 1377.94 90.2148 1375.79 89.637C1279.36 63.7194 1169.27 50.5709 1048.55 50.5709C963.25 50.5709 876.659 50.7227 803.172 50.8744C796.463 50.8744 790.028 48.2104 785.284 43.4684C780.54 38.7265 777.875 32.295 777.875 25.5889C777.875 18.8828 780.54 12.4513 785.284 7.70937C790.028 2.96742 796.463 0.303426 803.172 0.303426C876.532 0.151713 963.25 0 1048.55 0C1173.77 0 1288.21 13.73 1388.94 40.8107C1394.87 42.3972 1400.02 46.0849 1403.44 51.1865C1406.85 56.2882 1408.29 62.4556 1407.48 68.5391C1406.68 74.6226 1403.69 80.2071 1399.08 84.2517C1394.46 88.2962 1388.53 90.5248 1382.39 90.522Z" fill="#EFF1F4"/>
    <path d="M599.206 51.3022C592.497 51.3022 586.063 48.6382 581.318 43.8963C576.574 39.1543 573.909 32.7229 573.909 26.0167C573.909 19.3106 576.574 12.8792 581.318 8.13721C586.063 3.39526 592.497 0.731265 599.206 0.731265L661.917 0.579552L716.406 0.453125C723.115 0.453125 729.549 3.11712 734.293 7.85907C739.037 12.601 741.703 19.0325 741.703 25.7386C741.703 32.4447 739.037 38.8762 734.293 43.6181C729.549 48.3601 723.115 51.0241 716.406 51.0241L661.942 51.1505L599.155 51.3022H599.206Z" fill="#EFF1F4"/>
    <path d="M194.787 51.7884C188.078 51.7884 181.644 49.1244 176.899 44.3825C172.155 39.6405 169.49 33.2091 169.49 26.503C169.49 19.7968 172.155 13.3654 176.899 8.62343C181.644 3.88149 188.078 1.21749 194.787 1.21749C295.544 1.21749 397.161 1.21749 514.589 0.914063C521.298 0.914062 527.732 3.57806 532.476 8.32001C537.22 13.062 539.885 19.4934 539.885 26.1995C539.885 32.9057 537.22 39.3371 532.476 44.0791C527.732 48.821 521.298 51.485 514.589 51.485C397.161 51.7126 295.569 51.7884 194.787 51.7884Z" fill="#EFF1F4"/>
</svg>