<svg width="383" height="299" viewBox="0 0 383 299" fill="none" xmlns="http://www.w3.org/2000/svg">
    <g clip-path="url(#clip0_507_13708)">
        <path d="M186.013 281.487L185.697 274.387C185.664 274.37 185.632 274.352 185.599 274.335C182.212 272.56 178.33 275.774 179.412 279.439C180.43 282.887 181.114 286.605 182.977 289.623C184.078 291.377 185.559 292.86 187.312 293.963C189.064 295.067 191.043 295.762 193.101 295.997L197.404 298.629C197.994 295.341 197.864 291.964 197.022 288.73C196.18 285.497 194.647 282.484 192.527 279.9C191.324 278.462 189.944 277.181 188.421 276.088C187.39 278.803 186.013 281.487 186.013 281.487Z" fill="#EFF1F4"/>
        <path d="M147.49 209.435C139.206 200.899 127.201 196.004 114.554 196.004L114.066 196.006C105.736 196.009 97.5542 193.801 90.3579 189.609L89.6091 189.173L90.2122 188.552C93.4774 185.177 96.2039 181.32 98.2961 177.118C96.8102 178.502 95.0379 179.542 93.1048 180.166C91.1716 180.79 89.1248 180.982 87.1092 180.728C84.9812 180.475 82.9383 179.743 81.1337 178.588C79.3291 177.433 77.8097 175.885 76.6894 174.06C72.2691 166.895 67 156.728 67 148.982C67.0069 142.435 68.3789 135.962 71.0287 129.974C73.6785 123.986 77.5479 118.616 82.3902 114.205C85.4559 111.443 87.9045 108.067 89.5765 104.296C91.2486 100.526 92.1064 96.4455 92.0942 92.3215L92.0917 91.7346C92.0909 86.3051 92.755 80.8959 94.0693 75.6276L94.2027 75.0956L94.7506 75.1147C98.2836 75.2348 101.818 74.9389 105.282 74.2332C102.033 73.835 98.8548 72.9904 95.8372 71.7234L95.2478 71.4852L95.4478 70.8818C109.236 62.3524 140.36 66.7694 158.426 25.475C173.074 -8.00908 224.759 55.1989 224.759 91.7346C224.759 95.4626 221.066 100.389 223.831 102.853C253.715 129.49 233.096 146.594 226.594 163.805C225.052 167.889 228.396 172.372 228.396 176.789C228.396 177.539 228.377 178.313 228.34 179.089L228.282 180.283L227.286 179.621C225.314 178.331 223.487 176.833 221.835 175.154C223.549 179.094 224.357 183.368 224.199 187.662C224.041 191.955 222.922 196.158 220.923 199.962C217.791 205.868 214.761 210.096 211.918 212.528C202.808 220.316 191.065 224.333 179.089 223.758C167.114 223.183 155.81 218.06 147.49 209.435Z" fill="#EFF1F4"/>
        <path d="M197.522 298.28C197.726 298.28 197.923 298.207 198.076 298.073C198.23 297.94 198.33 297.755 198.359 297.554C198.395 297.302 201.918 271.921 198.754 238.189C195.833 207.037 186.45 162.167 158.345 125.316C158.278 125.228 158.194 125.154 158.098 125.098C158.001 125.042 157.895 125.005 157.785 124.99C157.675 124.975 157.563 124.982 157.455 125.01C157.348 125.039 157.247 125.088 157.158 125.155C157.07 125.223 156.995 125.307 156.939 125.403C156.883 125.499 156.847 125.605 156.832 125.715C156.817 125.826 156.824 125.938 156.853 126.045C156.882 126.152 156.931 126.253 156.999 126.342C184.861 162.874 194.168 207.415 197.069 238.347C200.214 271.882 196.719 297.065 196.683 297.316C196.666 297.436 196.675 297.558 196.71 297.674C196.744 297.79 196.803 297.898 196.882 297.989C196.962 298.081 197.06 298.154 197.171 298.204C197.281 298.254 197.401 298.28 197.522 298.28Z" fill="#21222E"/>
        <path d="M174.587 177.297C174.766 177.297 174.941 177.24 175.085 177.135C175.23 177.031 175.338 176.883 175.393 176.713C175.448 176.543 175.448 176.36 175.393 176.19C175.338 176.02 175.23 175.872 175.086 175.767C174.984 175.693 164.702 168.291 149.331 162.668C135.122 157.471 113.514 152.759 91.2697 159.833C91.1636 159.866 91.0652 159.92 90.9801 159.992C90.895 160.063 90.8248 160.151 90.7736 160.25C90.7224 160.348 90.6912 160.456 90.6818 160.567C90.6723 160.678 90.6848 160.789 90.7186 160.895C90.7523 161.001 90.8066 161.099 90.8784 161.184C90.9502 161.269 91.038 161.339 91.1369 161.39C91.2357 161.441 91.3437 161.472 91.4546 161.481C91.5655 161.491 91.6771 161.478 91.783 161.444C113.572 154.516 134.788 159.15 148.749 164.257C163.901 169.799 173.99 177.062 174.091 177.135C174.235 177.24 174.409 177.297 174.587 177.297Z" fill="#21222E"/>
        <path d="M213.327 80.8975C213.34 80.7193 213.296 80.5416 213.202 80.3898C213.108 80.2381 212.968 80.12 212.802 80.0527C212.636 79.9853 212.454 79.9721 212.28 80.0148C212.107 80.0576 211.951 80.1542 211.836 80.2907C211.754 80.3871 203.625 90.0996 196.904 105.012C190.693 118.797 184.433 139.989 189.892 162.664C189.944 162.883 190.081 163.071 190.273 163.188C190.464 163.305 190.695 163.341 190.913 163.289C191.131 163.236 191.319 163.1 191.437 162.908C191.554 162.717 191.59 162.487 191.538 162.269C186.191 140.058 192.345 119.251 198.448 105.706C205.073 91.0068 213.05 81.4756 213.13 81.381C213.245 81.2447 213.314 81.0754 213.327 80.8975Z" fill="#21222E"/>
        <path d="M212.182 124.502C212.896 130.258 216.889 135.005 222.695 135.005C225.483 135.005 228.157 133.898 230.128 131.928C232.1 129.959 233.207 127.287 233.207 124.502C233.207 118.701 228.476 114.535 222.695 113.999C216.56 113.43 211.265 117.111 212.182 124.502Z" fill="#2F2E41"/>
        <path d="M227.563 293.654L231.567 293.654L233.471 278.227L227.562 278.227L227.563 293.654Z" fill="#FFB6B6"/>
        <path d="M227.423 297.827L239.733 297.827V297.671C239.733 296.402 239.228 295.184 238.33 294.286C237.431 293.389 236.212 292.884 234.942 292.884H234.941L232.693 291.18L228.497 292.884L227.422 292.884L227.423 297.827Z" fill="#21222E"/>
        <path d="M211.795 293.654L215.798 293.654L217.702 278.227L211.794 278.227L211.795 293.654Z" fill="#FFB6B6"/>
        <path d="M211.654 297.827L223.965 297.827V297.671C223.965 296.402 223.46 295.184 222.561 294.286C221.663 293.389 220.444 292.884 219.173 292.884H219.173L216.924 291.18L212.728 292.884L211.654 292.884L211.654 297.827Z" fill="#21222E"/>
        <path d="M241.34 197.031L244.171 206.726L240.836 247.786C240.836 247.786 242.553 250.354 241.34 250.354C240.127 250.354 238.572 250.923 239.552 252.456C240.532 253.989 237.183 259.494 237.183 259.494L232.445 288.73L226.409 288.641C226.409 288.641 223.34 286.933 225.062 285.206C226.784 283.478 227.997 283.479 226.38 281.863C224.763 280.247 224.763 280.733 224.763 279.48C224.763 278.227 223.142 262.911 226.985 257.037L225.827 233.083L223.1 256.579L217.485 287.922L211.67 287.874C211.67 287.874 208.984 285.288 208.989 283.373C208.994 281.459 210.648 281.3 209.417 280.167C208.185 279.035 208.185 261.639 211.824 251.97C211.824 251.97 213.883 246.567 211.819 244.716C209.756 242.864 211.817 240.746 211.817 240.746C211.817 240.746 215.085 239.566 211.814 236.166C208.543 232.765 211.796 208.717 211.796 208.717C211.796 208.717 208.221 199.009 211.842 195.192C215.463 191.375 241.34 197.031 241.34 197.031Z" fill="#2F2E41"/>
        <path d="M190.93 213.734L195.98 201.541L199.959 203.749L197.556 216.152C197.796 216.938 197.813 217.775 197.603 218.57C197.394 219.364 196.967 220.085 196.37 220.65C195.773 221.216 195.03 221.603 194.225 221.77C193.419 221.937 192.583 221.876 191.811 221.594C191.038 221.312 190.36 220.82 189.852 220.174C189.343 219.528 189.026 218.753 188.934 217.936C188.843 217.119 188.981 216.293 189.334 215.551C189.686 214.809 190.239 214.179 190.93 213.734Z" fill="#FFB6B6"/>
        <path d="M275.667 117.321L267.984 128.053L264.609 125.001L269.763 113.465C269.706 112.645 269.88 111.826 270.264 111.099C270.649 110.373 271.228 109.768 271.938 109.352C272.647 108.937 273.459 108.727 274.281 108.747C275.103 108.767 275.904 109.016 276.592 109.466C277.281 109.915 277.83 110.548 278.178 111.292C278.527 112.037 278.661 112.863 278.564 113.679C278.468 114.495 278.146 115.269 277.635 115.912C277.123 116.555 276.442 117.043 275.667 117.321Z" fill="#FFB6B6"/>
        <path d="M242.103 198.024C247.086 205.747 222.035 215.548 212.423 211.613C210.739 210.924 204.95 208.649 208.907 205.494C212.865 202.338 208.448 201.894 208.344 199.841C208.274 198.467 209.338 195.455 208.228 195.584C207.118 195.713 205.818 193.815 208.236 192.997C210.654 192.18 208.262 191.435 208.283 190.659C208.515 182.194 215.015 168.729 215.015 168.729L203.301 198.646C203.301 198.646 203.388 203.821 201.894 202.24C200.4 200.658 200.509 205.777 200.509 205.777C200.509 205.777 198.288 207.326 199.565 208.188C200.842 209.05 198.19 211.7 198.19 211.7L192.001 211.258C192.001 211.258 192.098 206.665 193.155 205.649C194.211 204.633 193.692 203.035 193.692 203.035C193.692 203.035 196.444 200.601 194.599 198.626C192.227 196.085 200.876 153.168 203.861 153.593C204.283 151.541 205.265 149.646 206.697 148.116C208.13 146.587 209.959 145.483 211.98 144.927L218.665 143.088L219.852 138.383H229.264L230.903 141.475L238.059 144.701C239.407 142.801 240.414 140.799 245.934 140.15C245.934 140.15 260.806 126.631 260.08 125.575C259.354 124.519 261.66 122.048 261.66 122.048C261.66 122.048 263.628 121.404 262.517 121.06C261.406 120.717 263.506 119.922 263.506 119.922C263.506 119.922 265.451 119.411 264.534 118.739C263.617 118.067 267.595 117.625 267.595 117.625L272.758 121.833L271.714 123.6C271.714 123.6 272.35 126.007 271.52 125.129C270.69 124.25 270.534 126.8 270.534 126.8C270.534 126.8 270.11 129.592 267.595 130.433C265.081 131.275 263.175 139.267 263.175 139.267C257.245 146.969 250.248 152.978 241.955 156.933C245.187 160.639 242.103 198.024 242.103 198.024Z" fill="#6263C7"/>
        <path d="M223.856 135.629C229.005 135.629 233.179 131.459 233.179 126.316C233.179 121.172 229.005 117.002 223.856 117.002C218.708 117.002 214.534 121.172 214.534 126.316C214.534 131.459 218.708 135.629 223.856 135.629Z" fill="#FFB6B6"/>
        <path d="M214.203 127.33C214.498 129.354 216.225 132.178 215.821 132.178C215.416 132.178 212.541 123.835 215.416 123.291C217.501 122.896 217.968 123.242 219.916 122.398L219.642 122.656C220.931 123.594 222.727 123.016 224.198 122.406C225.674 121.8 227.465 121.222 228.759 122.156C229.572 122.741 229.916 123.759 230.421 124.624C230.927 125.492 231.861 126.312 232.823 126.046C233.595 125.832 234.04 124.967 234.036 124.167C234.032 123.367 232.989 122.607 233.34 121.889C234.381 119.762 233.445 118.313 231.177 117.312C230.352 117.187 229.528 117.059 228.703 116.928C229.135 116.33 229.659 115.804 230.255 115.369C230.003 114.723 229.568 114.166 229.002 113.765C228.343 113.373 227.526 113.402 226.762 113.442C225.056 113.531 223.351 113.62 221.647 113.709C220.386 113.773 219.079 113.85 217.951 114.428C216.544 115.151 215.622 116.561 214.951 117.995C213.447 121.218 213.686 123.812 214.203 127.33Z" fill="#2F2E41"/>
        <path d="M175.424 298.876L267.107 299C267.234 299 267.357 298.95 267.447 298.859C267.537 298.769 267.588 298.647 267.588 298.519C267.588 298.392 267.537 298.269 267.447 298.179C267.357 298.089 267.234 298.038 267.107 298.038L175.424 297.914C175.296 297.914 175.174 297.965 175.083 298.055C174.993 298.145 174.942 298.267 174.942 298.395C174.942 298.523 174.993 298.645 175.083 298.735C175.174 298.825 175.296 298.876 175.424 298.876Z" fill="#A4A5BB"/>
        <path d="M142.264 256.948C142.433 255.787 141.216 254.649 139.546 254.407C137.876 254.164 136.386 254.908 136.217 256.068C136.048 257.229 137.264 258.367 138.934 258.609C140.604 258.852 142.095 258.108 142.264 256.948Z" fill="#E6E6E6"/>
        <path d="M162.146 255.01C162.315 253.849 161.098 252.712 159.428 252.469C157.758 252.226 156.268 252.97 156.099 254.131C155.929 255.292 157.146 256.429 158.816 256.672C160.486 256.915 161.977 256.171 162.146 255.01Z" fill="#21222E"/>
        <path d="M136.82 240.867C136.989 239.707 135.772 238.569 134.102 238.327C132.433 238.084 130.942 238.828 130.773 239.988C130.604 241.149 131.82 242.287 133.49 242.529C135.16 242.772 136.651 242.028 136.82 240.867Z" fill="#FF6584"/>
        <path d="M128.181 234.281C128.189 233.215 127.594 232.347 126.852 232.341C126.11 232.336 125.502 233.195 125.494 234.26C125.486 235.326 126.081 236.194 126.823 236.2C127.565 236.205 128.173 235.346 128.181 234.281Z" fill="#E6E6E6"/>
        <path d="M125.251 222.013C125.259 220.948 124.664 220.079 123.922 220.074C123.18 220.068 122.572 220.927 122.564 221.993C122.556 223.058 123.151 223.926 123.893 223.932C124.635 223.938 125.243 223.078 125.251 222.013Z" fill="#21222E"/>
        <path d="M148.033 243.605C148.041 242.539 147.446 241.671 146.704 241.665C145.962 241.66 145.354 242.519 145.346 243.584C145.338 244.65 145.933 245.518 146.675 245.524C147.417 245.529 148.025 244.67 148.033 243.605Z" fill="#E6E6E6"/>
        <path d="M138.425 248.396C138.433 247.33 137.838 246.462 137.097 246.456C136.355 246.451 135.747 247.31 135.739 248.376C135.731 249.441 136.326 250.309 137.067 250.315C137.809 250.32 138.417 249.461 138.425 248.396Z" fill="#FF6584"/>
        <path d="M151.8 257.255C151.808 256.19 151.213 255.321 150.472 255.316C149.73 255.31 149.122 256.169 149.114 257.235C149.106 258.3 149.701 259.169 150.442 259.174C151.184 259.18 151.792 258.321 151.8 257.255Z" fill="#21222E"/>
        <path d="M295.103 194.739C295.272 193.578 294.055 192.44 292.385 192.198C290.715 191.955 289.225 192.699 289.056 193.859C288.887 195.02 290.103 196.158 291.773 196.4C293.443 196.643 294.934 195.899 295.103 194.739Z" fill="#CCCDE2"/>
        <path d="M314.985 192.799C315.154 191.639 313.937 190.501 312.267 190.258C310.597 190.015 309.106 190.759 308.937 191.92C308.768 193.081 309.985 194.218 311.655 194.461C313.325 194.704 314.816 193.96 314.985 192.799Z" fill="#21222E"/>
        <path d="M289.658 178.656C289.827 177.496 288.611 176.358 286.941 176.116C285.271 175.873 283.78 176.617 283.611 177.777C283.442 178.938 284.659 180.076 286.329 180.318C287.999 180.561 289.489 179.817 289.658 178.656Z" fill="#FF6584"/>
        <path d="M281.019 172.07C281.027 171.004 280.432 170.136 279.69 170.13C278.948 170.125 278.341 170.984 278.332 172.049C278.324 173.115 278.919 173.983 279.661 173.989C280.403 173.994 281.011 173.135 281.019 172.07Z" fill="#CCCDE2"/>
        <path d="M278.089 159.8C278.097 158.735 277.503 157.866 276.761 157.861C276.019 157.855 275.411 158.714 275.403 159.78C275.395 160.845 275.99 161.714 276.731 161.719C277.473 161.725 278.081 160.866 278.089 159.8Z" fill="#21222E"/>
        <path d="M300.872 181.394C300.88 180.328 300.285 179.46 299.543 179.454C298.801 179.449 298.193 180.308 298.185 181.374C298.177 182.439 298.772 183.307 299.514 183.313C300.256 183.318 300.863 182.459 300.872 181.394Z" fill="#CCCDE2"/>
        <path d="M291.264 186.187C291.272 185.121 290.677 184.253 289.935 184.247C289.193 184.242 288.585 185.101 288.577 186.167C288.569 187.232 289.164 188.1 289.906 188.106C290.648 188.111 291.256 187.252 291.264 186.187Z" fill="#FF6584"/>
        <path d="M304.639 195.044C304.647 193.979 304.052 193.111 303.31 193.105C302.568 193.099 301.96 193.958 301.952 195.024C301.944 196.089 302.539 196.958 303.281 196.963C304.023 196.969 304.631 196.11 304.639 195.044Z" fill="#21222E"/>
        <path d="M221.109 79.6096C221.278 78.449 220.061 77.3114 218.392 77.0687C216.722 76.826 215.231 77.57 215.062 78.7306C214.893 79.8912 216.11 81.0288 217.779 81.2715C219.449 81.5143 220.94 80.7702 221.109 79.6096Z" fill="white"/>
        <path d="M240.991 77.6722C241.16 76.5116 239.943 75.374 238.273 75.1312C236.603 74.8885 235.113 75.6325 234.944 76.7931C234.775 77.9537 235.991 79.0913 237.661 79.334C239.331 79.5768 240.822 78.8327 240.991 77.6722Z" fill="#21222E"/>
        <path d="M215.665 63.5276C215.834 62.367 214.618 61.2294 212.948 60.9867C211.278 60.7439 209.787 61.488 209.618 62.6486C209.449 63.8091 210.666 64.9468 212.336 65.1895C214.005 65.4323 215.496 64.6882 215.665 63.5276Z" fill="#FF6584"/>
        <path d="M207.026 56.9407C207.034 55.8753 206.44 55.007 205.698 55.0014C204.956 54.9958 204.348 55.855 204.34 56.9204C204.332 57.9859 204.927 58.8542 205.668 58.8598C206.41 58.8654 207.018 58.0062 207.026 56.9407Z" fill="#CCCDE2"/>
        <path d="M204.096 44.6712C204.104 43.6057 203.509 42.7374 202.768 42.7318C202.026 42.7262 201.418 43.5854 201.41 44.6509C201.402 45.7163 201.996 46.5846 202.738 46.5902C203.48 46.5958 204.088 45.7366 204.096 44.6712Z" fill="#21222E"/>
        <path d="M226.879 66.2649C226.887 65.1995 226.292 64.3312 225.55 64.3256C224.808 64.32 224.2 65.1792 224.192 66.2446C224.184 67.3101 224.779 68.1784 225.521 68.184C226.263 68.1896 226.871 67.3304 226.879 66.2649Z" fill="#CCCDE2"/>
        <path d="M217.271 71.0579C217.279 69.9924 216.684 69.1242 215.942 69.1186C215.2 69.113 214.592 69.9721 214.584 71.0376C214.576 72.1031 215.171 72.9713 215.913 72.9769C216.655 72.9825 217.263 72.1234 217.271 71.0579Z" fill="#FF6584"/>
        <path d="M230.645 79.9153C230.653 78.8499 230.058 77.9816 229.316 77.976C228.574 77.9704 227.967 78.8296 227.958 79.895C227.95 80.9605 228.545 81.8288 229.287 81.8344C230.029 81.84 230.637 80.9808 230.645 79.9153Z" fill="#21222E"/>
    </g>
    <defs>
        <clipPath id="clip0_507_13708">
            <rect width="248" height="283" fill="white" transform="translate(67 16)"/>
        </clipPath>
    </defs>
</svg>