<svg width="38" height="38" viewBox="0 0 38 38" fill="none" xmlns="http://www.w3.org/2000/svg">
<path d="M25.7175 17.0325C29.4275 20.7425 29.4275 26.7575 25.7175 30.4675C22.0075 34.1775 15.9925 34.1775 12.2825 30.4675C8.5725 26.7575 8.5725 20.7425 12.2825 17.0325C15.9925 13.3225 22.0075 13.3225 25.7175 17.0325" stroke="#21222E" stroke-width="2" stroke-linecap="round" stroke-linejoin="round"/>
<path d="M17.4167 22.1673L19.0001 20.584V26.9173" stroke="#21222E" stroke-width="2" stroke-linecap="round" stroke-linejoin="round"/>
<path d="M17.4167 26.9167H20.5834" stroke="#21222E" stroke-width="2" stroke-linecap="round" stroke-linejoin="round"/>
<path d="M26.1725 17.5322L32.1227 7.11867C32.7259 6.06258 31.9627 4.75 30.7483 4.75L25.3476 4.75C24.7792 4.75 24.2551 5.054 23.9732 5.548L19 14.25" stroke="#21222E" stroke-width="2" stroke-linecap="round" stroke-linejoin="round"/>
<path d="M11.8275 17.5322L5.87734 7.11867C5.27409 6.06258 6.03568 4.75 7.25168 4.75L12.6524 4.75C13.2208 4.75 13.7449 5.054 14.0268 5.548L19 14.25" stroke="#21222E" stroke-width="2" stroke-linecap="round" stroke-linejoin="round"/>
</svg>
