<svg width="38" height="38" viewBox="0 0 38 38" fill="none" xmlns="http://www.w3.org/2000/svg">
<path d="M10.2485 27.7129V29.2969" stroke="#21222E" stroke-width="2" stroke-linecap="round" stroke-linejoin="round"/>
<path d="M15.0005 27.7129V29.2969" stroke="#21222E" stroke-width="2" stroke-linecap="round" stroke-linejoin="round"/>
<path d="M20.584 28.5049H28.504" stroke="#21222E" stroke-width="2" stroke-linecap="round" stroke-linejoin="round"/>
<rect x="4.74414" y="23.752" width="28.5119" height="9.50396" rx="1.5" stroke="#21222E" stroke-width="2" stroke-linecap="round" stroke-linejoin="round"/>
<path fill-rule="evenodd" clip-rule="evenodd" d="M12.5787 7.76764C9.63262 8.16315 7.49884 10.7766 7.70071 13.7422C7.90258 16.7078 10.3708 19.0081 13.3433 19.0007H25.7861C27.4032 19.0007 28.8975 18.138 29.706 16.7375C30.5146 15.3371 30.5146 13.6116 29.706 12.2112C28.8975 10.8107 27.4032 9.94798 25.7861 9.94798C25.7881 6.62664 23.3849 3.79234 20.1079 3.25136C16.8309 2.71038 13.6442 4.62187 12.5787 7.76764Z" stroke="#21222E" stroke-width="2" stroke-linecap="round" stroke-linejoin="round"/>
</svg>
