<svg width="38" height="38" viewBox="0 0 38 38" fill="none" xmlns="http://www.w3.org/2000/svg">
<path fill-rule="evenodd" clip-rule="evenodd" d="M15.363 6.48466L5.58752 11.9155C3.53235 13.0571 3.53235 16.0116 5.58752 17.1532L15.363 22.584C17.624 23.8396 20.3743 23.8396 22.6369 22.584L32.4124 17.1532C34.4675 16.0116 34.4675 13.0571 32.4124 11.9155L22.6369 6.48466C20.3743 5.22907 17.6256 5.22907 15.363 6.48466Z" stroke="#21222E" stroke-width="2" stroke-linecap="round" stroke-linejoin="round"/>
<path d="M9.48584 19.3164V25.5294C9.48584 27.032 10.2379 28.4332 11.4872 29.2645L14.0316 30.9571C17.0415 32.9584 20.9587 32.9584 23.967 30.9571L26.5114 29.2645C27.7623 28.4332 28.5128 27.0304 28.5128 25.5294V19.3164" stroke="#21222E" stroke-width="2" stroke-linecap="round" stroke-linejoin="round"/>
</svg>
