<svg width="38" height="38" viewBox="0 0 38 38" fill="none" xmlns="http://www.w3.org/2000/svg">
<path d="M14.136 25.334L13.3443 31.6673" stroke="#21222E" stroke-width="2" stroke-linecap="round" stroke-linejoin="round"/>
<path d="M31.6667 14.25V8.59433C31.6667 6.47117 29.9455 4.75 27.8223 4.75L8.59433 4.75C6.47117 4.75 4.75 6.47117 4.75 8.59433L4.75 21.489C4.75 23.6122 6.47117 25.3333 8.59433 25.3333H19" stroke="#21222E" stroke-width="2" stroke-linecap="round" stroke-linejoin="round"/>
<path d="M10.9692 31.6667H18.9999" stroke="#21222E" stroke-width="2" stroke-linecap="round" stroke-linejoin="round"/>
<rect x="23.75" y="25.334" width="11.0833" height="7.91667" rx="1.5" stroke="#21222E" stroke-width="2" stroke-linecap="round" stroke-linejoin="round"/>
<path d="M26.125 25.3327V22.9577C26.125 21.2088 27.5428 19.791 29.2917 19.791V19.791C31.0406 19.791 32.4583 21.2088 32.4583 22.9577V22.9577V25.3327" stroke="#21222E" stroke-width="2" stroke-linecap="round" stroke-linejoin="round"/>
<path d="M19 18.2077H22.1667" stroke="#21222E" stroke-width="2" stroke-linecap="round" stroke-linejoin="round"/>
<path d="M12.1069 18.7633L14.2226 16.8633" stroke="#21222E" stroke-width="2" stroke-linecap="round" stroke-linejoin="round"/>
<path d="M11.056 17.8176L12.107 18.7619" stroke="#21222E" stroke-width="2" stroke-linecap="round" stroke-linejoin="round"/>
<path d="M19 11.8757H25.3333" stroke="#21222E" stroke-width="2" stroke-linecap="round" stroke-linejoin="round"/>
<path d="M12.1069 12.4293L14.2226 10.5293" stroke="#21222E" stroke-width="2" stroke-linecap="round" stroke-linejoin="round"/>
<path d="M11.056 11.4855L12.107 12.4298" stroke="#21222E" stroke-width="2" stroke-linecap="round" stroke-linejoin="round"/>
</svg>
