<svg width="24" height="24" viewBox="0 0 24 24" xmlns="http://www.w3.org/2000/svg">
    <path d="M0.292893 22.9203C-0.0976311 22.5298 -0.0976311 21.8966 0.292893 21.5061L21.5061 0.292894C21.8966 -0.0976301 22.5298 -0.0976301 22.9203 0.292894C23.3108 0.683418 23.3108 1.31658 22.9203 1.70711L1.70711 22.9203C1.31658 23.3108 0.683417 23.3108 0.292893 22.9203Z"/>
    <path d="M0.292893 0.292893C0.683418 -0.0976311 1.31658 -0.0976311 1.70711 0.292893L22.9203 21.5061C23.3108 21.8966 23.3108 22.5298 22.9203 22.9203C22.5298 23.3108 21.8966 23.3108 21.5061 22.9203L0.292893 1.70711C-0.0976309 1.31658 -0.0976309 0.683417 0.292893 0.292893Z"/>
</svg>