<svg width="20" height="20" viewBox="0 0 20 20" fill="none" xmlns="http://www.w3.org/2000/svg">
<path fill-rule="evenodd" clip-rule="evenodd" d="M2.59812 10.3905C2.46729 10.148 2.46729 9.8538 2.59812 9.6113C4.17479 6.69547 7.08729 4.16797 9.99979 4.16797C12.9123 4.16797 15.8248 6.69547 17.4015 9.61214C17.5323 9.85464 17.5323 10.1488 17.4015 10.3913C15.8248 13.3071 12.9123 15.8346 9.99979 15.8346C7.08729 15.8346 4.17479 13.3071 2.59812 10.3905Z" stroke-linecap="round" stroke-linejoin="round"/>
<path d="M11.7678 8.23223C12.7441 9.20854 12.7441 10.7915 11.7678 11.7678C10.7915 12.7441 9.20854 12.7441 8.23223 11.7678C7.25592 10.7915 7.25592 9.20854 8.23223 8.23223C9.20854 7.25592 10.7915 7.25592 11.7678 8.23223" stroke-linecap="round" stroke-linejoin="round"/>
</svg>
