<svg width="748" height="379" viewBox="0 0 748 379" fill="none" xmlns="http://www.w3.org/2000/svg">
<g opacity="0.1">
<path d="M118.141 304.311C131.679 304.311 142.655 293.167 142.655 279.422C142.655 265.676 131.679 254.533 118.141 254.533C104.602 254.533 93.627 265.676 93.627 279.422C93.627 293.167 104.602 304.311 118.141 304.311Z" fill="white"/>
<path d="M222.861 157.21C243.169 157.21 259.631 140.495 259.631 119.877C259.631 99.2585 243.169 82.5439 222.861 82.5439C202.553 82.5439 186.09 99.2585 186.09 119.877C186.09 140.495 202.553 157.21 222.861 157.21Z" fill="white"/>
<path d="M327.533 210.426C347.841 210.426 364.303 193.711 364.303 173.093C364.303 152.474 347.841 135.76 327.533 135.76C307.225 135.76 290.762 152.474 290.762 173.093C290.762 193.711 307.225 210.426 327.533 210.426Z" fill="white"/>
<path d="M431.228 263.574C451.536 263.574 467.999 246.86 467.999 226.241C467.999 205.623 451.536 188.908 431.228 188.908C410.92 188.908 394.457 205.623 394.457 226.241C394.457 246.86 410.92 263.574 431.228 263.574Z" fill="white"/>
<path d="M327.533 316.791C347.841 316.791 364.303 300.076 364.303 279.458C364.303 258.84 347.841 242.125 327.533 242.125C307.225 242.125 290.762 258.84 290.762 279.458C290.762 300.076 307.225 316.791 327.533 316.791Z" fill="white"/>
<path d="M536.048 316.791C556.356 316.791 572.819 300.076 572.819 279.458C572.819 258.84 556.356 242.125 536.048 242.125C515.74 242.125 499.277 258.84 499.277 279.458C499.277 300.076 515.74 316.791 536.048 316.791Z" fill="white"/>
<path d="M536.001 409.548C549.54 409.548 560.515 398.405 560.515 384.659C560.515 370.914 549.54 359.771 536.001 359.771C522.463 359.771 511.487 370.914 511.487 384.659C511.487 398.405 522.463 409.548 536.001 409.548Z" fill="white"/>
<path d="M640.658 357.527C654.197 357.527 665.172 346.383 665.172 332.638C665.172 318.892 654.197 307.749 640.658 307.749C627.12 307.749 616.145 318.892 616.145 332.638C616.145 346.383 627.12 357.527 640.658 357.527Z" fill="white"/>
<path d="M640.724 263.575C661.032 263.575 677.495 246.861 677.495 226.242C677.495 205.624 661.032 188.909 640.724 188.909C620.416 188.909 603.953 205.624 603.953 226.242C603.953 246.861 620.416 263.575 640.724 263.575Z" fill="white"/>
<path d="M536.048 210.426C556.356 210.426 572.819 193.711 572.819 173.093C572.819 152.474 556.356 135.76 536.048 135.76C515.74 135.76 499.277 152.474 499.277 173.093C499.277 193.711 515.74 210.426 536.048 210.426Z" fill="white"/>
<path d="M431.229 357.527C444.767 357.527 455.743 346.383 455.743 332.638C455.743 318.892 444.767 307.749 431.229 307.749C417.69 307.749 406.715 318.892 406.715 332.638C406.715 346.383 417.69 357.527 431.229 357.527Z" fill="white"/>
<path d="M640.724 157.21C661.032 157.21 677.495 140.495 677.495 119.877C677.495 99.2585 661.032 82.5439 640.724 82.5439C620.416 82.5439 603.953 99.2585 603.953 119.877C603.953 140.495 620.416 157.21 640.724 157.21Z" fill="white"/>
<path d="M744.353 92.7754C757.891 92.7754 768.867 81.6324 768.867 67.8867C768.867 54.1411 757.891 42.998 744.353 42.998C730.814 42.998 719.839 54.1411 719.839 67.8867C719.839 81.6324 730.814 92.7754 744.353 92.7754Z" fill="white"/>
<path d="M744.353 304.311C757.891 304.311 768.867 293.167 768.867 279.422C768.867 265.676 757.891 254.533 744.353 254.533C730.814 254.533 719.839 265.676 719.839 279.422C719.839 293.167 730.814 304.311 744.353 304.311Z" fill="white"/>
<path d="M431.229 144.795C444.767 144.795 455.743 133.652 455.743 119.906C455.743 106.161 444.767 95.0176 431.229 95.0176C417.69 95.0176 406.715 106.161 406.715 119.906C406.715 133.652 417.69 144.795 431.229 144.795Z" fill="white"/>
<path d="M327.716 409.548C341.255 409.548 352.23 398.405 352.23 384.659C352.23 370.914 341.255 359.771 327.716 359.771C314.177 359.771 303.202 370.914 303.202 384.659C303.202 398.405 314.177 409.548 327.716 409.548Z" fill="white"/>
<path d="M222.861 263.575C243.169 263.575 259.631 246.861 259.631 226.242C259.631 205.624 243.169 188.909 222.861 188.909C202.553 188.909 186.09 205.624 186.09 226.242C186.09 246.861 202.553 263.575 222.861 263.575Z" fill="white"/>
<path d="M118.119 210.426C138.427 210.426 154.89 193.711 154.89 173.093C154.89 152.474 138.427 135.76 118.119 135.76C97.8115 135.76 81.3486 152.474 81.3486 173.093C81.3486 193.711 97.8115 210.426 118.119 210.426Z" fill="white"/>
<path d="M14.4855 347.314C22.4856 347.314 28.9709 340.73 28.9709 332.607C28.9709 324.485 22.4856 317.9 14.4855 317.9C6.48536 317.9 0 324.485 0 332.607C0 340.73 6.48536 347.314 14.4855 347.314Z" fill="white"/>
<path d="M14.4874 240.951C22.4875 240.951 28.9729 234.366 28.9729 226.244C28.9729 218.122 22.4875 211.537 14.4874 211.537C6.48732 211.537 0.00195312 218.122 0.00195312 226.244C0.00195312 234.366 6.48732 240.951 14.4874 240.951Z" fill="white"/>
<path d="M222.837 346.186C230.837 346.186 237.322 339.602 237.322 331.479C237.322 323.357 230.837 316.772 222.837 316.772C214.837 316.772 208.352 323.357 208.352 331.479C208.352 339.602 214.837 346.186 222.837 346.186Z" fill="white"/>
<path d="M222.837 29.414C230.837 29.414 237.322 22.8294 237.322 14.707C237.322 6.58454 230.837 0 222.837 0C214.837 0 208.352 6.58454 208.352 14.707C208.352 22.8294 214.837 29.414 222.837 29.414Z" fill="white"/>
<path d="M118.099 82.6297C126.099 82.6297 132.584 76.0452 132.584 67.9228C132.584 59.8003 126.099 53.2158 118.099 53.2158C110.099 53.2158 103.613 59.8003 103.613 67.9228C103.613 76.0452 110.099 82.6297 118.099 82.6297Z" fill="white"/>
<path d="M327.593 82.6297C335.593 82.6297 342.078 76.0452 342.078 67.9228C342.078 59.8003 335.593 53.2158 327.593 53.2158C319.593 53.2158 313.107 59.8003 313.107 67.9228C313.107 76.0452 319.593 82.6297 327.593 82.6297Z" fill="white"/>
<path d="M744.374 399.402C752.374 399.402 758.86 392.818 758.86 384.695C758.86 376.573 752.374 369.988 744.374 369.988C736.374 369.988 729.889 376.573 729.889 384.695C729.889 392.818 736.374 399.402 744.374 399.402Z" fill="white"/>
<path d="M744.333 210.426C764.641 210.426 781.104 193.711 781.104 173.093C781.104 152.474 764.641 135.76 744.333 135.76C724.025 135.76 707.562 152.474 707.562 173.093C707.562 193.711 724.025 210.426 744.333 210.426Z" fill="white"/>
<path d="M535.941 82.6297C543.942 82.6297 550.427 76.0452 550.427 67.9228C550.427 59.8003 543.942 53.2158 535.941 53.2158C527.941 53.2158 521.456 59.8003 521.456 67.9228C521.456 76.0452 527.941 82.6297 535.941 82.6297Z" fill="white"/>
</g>
</svg>
