<svg width="441" height="227" viewBox="0 0 441 227" fill="none" xmlns="http://www.w3.org/2000/svg">
<g opacity="0.1">
<path d="M5.2656 53.8916C17.1359 53.8916 26.7587 44.1216 26.7587 32.0698C26.7587 20.018 17.1359 10.248 5.2656 10.248C-6.60473 10.248 -16.2275 20.018 -16.2275 32.0698C-16.2275 44.1216 -6.60473 53.8916 5.2656 53.8916Z" fill="white"/>
<path d="M66.4483 84.997C78.3186 84.997 87.9414 75.2271 87.9414 63.1753C87.9414 51.1234 78.3186 41.3535 66.4483 41.3535C54.5779 41.3535 44.9551 51.1234 44.9551 63.1753C44.9551 75.2271 54.5779 84.997 66.4483 84.997Z" fill="white"/>
<path d="M127.06 116.063C138.93 116.063 148.553 106.293 148.553 94.2417C148.553 82.1898 138.93 72.4199 127.06 72.4199C115.189 72.4199 105.566 82.1898 105.566 94.2417C105.566 106.293 115.189 116.063 127.06 116.063Z" fill="white"/>
<path d="M66.4483 147.169C78.3186 147.169 87.9414 137.399 87.9414 125.347C87.9414 113.295 78.3186 103.525 66.4483 103.525C54.5779 103.525 44.9551 113.295 44.9551 125.347C44.9551 137.399 54.5779 147.169 66.4483 147.169Z" fill="white"/>
<path d="M188.329 147.17C200.199 147.17 209.822 137.4 209.822 125.348C209.822 113.296 200.199 103.526 188.329 103.526C176.459 103.526 166.836 113.296 166.836 125.348C166.836 137.4 176.459 147.17 188.329 147.17Z" fill="white"/>
<path d="M188.301 201.388C196.215 201.388 202.63 194.874 202.63 186.84C202.63 178.805 196.215 172.292 188.301 172.292C180.388 172.292 173.973 178.805 173.973 186.84C173.973 194.874 180.388 201.388 188.301 201.388Z" fill="white"/>
<path d="M249.475 170.98C257.389 170.98 263.804 164.466 263.804 156.432C263.804 148.397 257.389 141.884 249.475 141.884C241.562 141.884 235.146 148.397 235.146 156.432C235.146 164.466 241.562 170.98 249.475 170.98Z" fill="white"/>
<path d="M249.514 116.063C261.384 116.063 271.007 106.293 271.007 94.2417C271.007 82.1898 261.384 72.4199 249.514 72.4199C237.643 72.4199 228.021 82.1898 228.021 94.2417C228.021 106.293 237.643 116.063 249.514 116.063Z" fill="white"/>
<path d="M188.329 84.997C200.199 84.997 209.822 75.2271 209.822 63.1753C209.822 51.1234 200.199 41.3535 188.329 41.3535C176.459 41.3535 166.836 51.1234 166.836 63.1753C166.836 75.2271 176.459 84.997 188.329 84.997Z" fill="white"/>
<path d="M127.06 170.981C134.974 170.981 141.389 164.467 141.389 156.433C141.389 148.398 134.974 141.885 127.06 141.885C119.147 141.885 112.731 148.398 112.731 156.433C112.731 164.467 119.147 170.981 127.06 170.981Z" fill="white"/>
<path d="M249.514 53.8916C261.384 53.8916 271.007 44.1216 271.007 32.0698C271.007 20.018 261.384 10.248 249.514 10.248C237.643 10.248 228.021 20.018 228.021 32.0698C228.021 44.1216 237.643 53.8916 249.514 53.8916Z" fill="white"/>
<path d="M310.087 16.2285C318 16.2285 324.415 9.71521 324.415 1.68066C324.415 -6.35389 318 -12.8672 310.087 -12.8672C302.173 -12.8672 295.758 -6.35389 295.758 1.68066C295.758 9.71521 302.173 16.2285 310.087 16.2285Z" fill="white"/>
<path d="M310.087 139.874C318 139.874 324.415 133.361 324.415 125.326C324.415 117.292 318 110.778 310.087 110.778C302.173 110.778 295.758 117.292 295.758 125.326C295.758 133.361 302.173 139.874 310.087 139.874Z" fill="white"/>
<path d="M127.06 46.6348C134.974 46.6348 141.389 40.1215 141.389 32.0869C141.389 24.0523 134.974 17.5391 127.06 17.5391C119.147 17.5391 112.731 24.0523 112.731 32.0869C112.731 40.1215 119.147 46.6348 127.06 46.6348Z" fill="white"/>
<path d="M66.5553 201.388C74.4689 201.388 80.8841 194.874 80.8841 186.84C80.8841 178.805 74.4689 172.292 66.5553 172.292C58.6418 172.292 52.2266 178.805 52.2266 186.84C52.2266 194.874 58.6418 201.388 66.5553 201.388Z" fill="white"/>
<path d="M5.2656 116.064C17.1359 116.064 26.7587 106.294 26.7587 94.2426C26.7587 82.1908 17.1359 72.4209 5.2656 72.4209C-6.60473 72.4209 -16.2275 82.1908 -16.2275 94.2426C-16.2275 106.294 -6.60473 116.064 5.2656 116.064Z" fill="white"/>
<path d="M5.25213 164.351C9.92831 164.351 13.7191 160.502 13.7191 155.755C13.7191 151.007 9.92831 147.158 5.25213 147.158C0.575946 147.158 -3.21484 151.007 -3.21484 155.755C-3.21484 160.502 0.575946 164.351 5.25213 164.351Z" fill="white"/>
<path d="M127.094 226.485C131.77 226.485 135.561 222.636 135.561 217.888C135.561 213.141 131.77 209.292 127.094 209.292C122.418 209.292 118.627 213.141 118.627 217.888C118.627 222.636 122.418 226.485 127.094 226.485Z" fill="white"/>
<path d="M66.4836 10.2984C71.1598 10.2984 74.9506 6.44963 74.9506 1.70193C74.9506 -3.04577 71.1598 -6.89453 66.4836 -6.89453C61.8074 -6.89453 58.0166 -3.04577 58.0166 1.70193C58.0166 6.44963 61.8074 10.2984 66.4836 10.2984Z" fill="white"/>
<path d="M127.094 226.485C131.77 226.485 135.561 222.636 135.561 217.888C135.561 213.141 131.77 209.292 127.094 209.292C122.418 209.292 118.627 213.141 118.627 217.888C118.627 222.636 122.418 226.485 127.094 226.485Z" fill="white"/>
<path d="M431.885 71.773C436.561 71.773 440.352 67.9242 440.352 63.1765C440.352 58.4288 436.561 54.5801 431.885 54.5801C427.209 54.5801 423.418 58.4288 423.418 63.1765C423.418 67.9242 427.209 71.773 431.885 71.773Z" fill="white"/>
<path d="M310.099 195.457C314.775 195.457 318.566 191.608 318.566 186.86C318.566 182.112 314.775 178.264 310.099 178.264C305.423 178.264 301.632 182.112 301.632 186.86C301.632 191.608 305.423 195.457 310.099 195.457Z" fill="white"/>
<path d="M371.296 53.8916C383.166 53.8916 392.789 44.1216 392.789 32.0698C392.789 20.018 383.166 10.248 371.296 10.248C359.426 10.248 349.803 20.018 349.803 32.0698C349.803 44.1216 359.426 53.8916 371.296 53.8916Z" fill="white"/>
<path d="M310.075 84.997C321.946 84.997 331.568 75.2271 331.568 63.1753C331.568 51.1234 321.946 41.3535 310.075 41.3535C298.205 41.3535 288.582 51.1234 288.582 63.1753C288.582 75.2271 298.205 84.997 310.075 84.997Z" fill="white"/>
<path d="M371.282 165.011C375.959 165.011 379.749 161.163 379.749 156.415C379.749 151.667 375.959 147.818 371.282 147.818C366.606 147.818 362.815 151.667 362.815 156.415C362.815 161.163 366.606 165.011 371.282 165.011Z" fill="white"/>
<path d="M371.357 108.808C379.271 108.808 385.686 102.294 385.686 94.2598C385.686 86.2252 379.271 79.7119 371.357 79.7119C363.444 79.7119 357.028 86.2252 357.028 94.2598C357.028 102.294 363.444 108.808 371.357 108.808Z" fill="white"/>
<path d="M188.267 10.2984C192.943 10.2984 196.734 6.44963 196.734 1.70193C196.734 -3.04577 192.943 -6.89453 188.267 -6.89453C183.591 -6.89453 179.8 -3.04577 179.8 1.70193C179.8 6.44963 183.591 10.2984 188.267 10.2984Z" fill="white"/>
<path d="M431.884 10.2984C436.56 10.2984 440.351 6.44963 440.351 1.70193C440.351 -3.04577 436.56 -6.89453 431.884 -6.89453C427.208 -6.89453 423.417 -3.04577 423.417 1.70193C423.417 6.44963 427.208 10.2984 431.884 10.2984Z" fill="white"/>
</g>
</svg>
