<svg width="615" height="509" viewBox="0 0 615 509" fill="none" xmlns="http://www.w3.org/2000/svg">
<path d="M435.048 499.59H433.909C423.871 499.292 414.36 495.029 407.461 487.735C400.562 480.44 396.837 470.71 397.103 460.675C402.718 267.949 359.385 122.71 268.317 29.0017C178.26 -63.8213 36.8766 -110.776 -151.862 -110.776C-161.926 -110.776 -171.578 -114.772 -178.694 -121.885C-185.81 -128.998 -189.808 -138.645 -189.808 -148.705C-189.808 -158.764 -185.81 -168.411 -178.694 -175.524C-171.578 -182.637 -161.926 -186.633 -151.862 -186.633C58.1006 -186.633 217.85 -131.89 322.755 -23.9208C428.698 85.009 479.292 248.758 472.942 462.749C472.659 472.61 468.544 481.972 461.469 488.85C454.394 495.728 444.917 499.581 435.048 499.59Z" fill="white" fill-opacity="0.06"/>
<path d="M545.315 576.71C536.928 576.71 528.886 573.38 522.955 567.453C517.025 561.525 513.694 553.486 513.694 545.103C513.694 341.884 497.074 234.977 464.29 144.228C462.793 140.305 462.092 136.124 462.23 131.928C462.367 127.732 463.34 123.605 465.09 119.789C466.841 115.973 469.334 112.543 472.425 109.701C475.516 106.859 479.143 104.66 483.094 103.234C487.044 101.809 491.239 101.184 495.434 101.396C499.628 101.608 503.739 102.654 507.525 104.472C511.311 106.289 514.697 108.843 517.484 111.983C520.272 115.123 522.406 118.787 523.762 122.76C559.051 220.387 576.885 339.28 576.885 545.027C576.895 549.18 576.086 553.294 574.505 557.135C572.923 560.975 570.6 564.466 567.668 567.408C564.736 570.35 561.253 572.686 557.418 574.283C553.582 575.879 549.469 576.704 545.315 576.71Z" fill="white" fill-opacity="0.06"/>
<path d="M455.108 78.0042C449.415 78.012 443.826 76.4848 438.928 73.5833C434.031 70.6819 430.008 66.5137 427.282 61.518C389.906 -8.17228 336.066 -67.6825 270.442 -111.839C210.767 -151.866 138.899 -180.944 56.7603 -198.29C48.5551 -200.027 41.3762 -204.951 36.803 -211.978C32.2297 -219.006 30.6366 -227.561 32.3742 -235.763C34.1119 -243.965 39.038 -251.14 46.0687 -255.712C53.0994 -260.283 61.6588 -261.875 69.864 -260.138C260.551 -219.833 399.506 -121.802 482.884 31.2766C485.502 36.0958 486.822 41.5126 486.714 46.9955C486.606 52.4784 485.073 57.839 482.267 62.5513C479.461 67.2637 475.477 71.1658 470.707 73.8749C465.937 76.584 460.544 78.007 455.057 78.0042H455.108Z" fill="white" fill-opacity="0.06"/>
<path d="M653.383 500.856C641.645 500.85 630.388 496.185 622.088 487.888C613.787 479.592 609.121 468.34 609.114 456.607C609.114 303.655 584.424 169.743 535.754 58.6133C533.215 53.2585 531.779 47.4487 531.53 41.5286C531.28 35.6085 532.223 29.6986 534.302 24.1496C536.381 18.6005 539.554 13.5253 543.632 9.22504C547.71 4.92478 552.611 1.48706 558.044 -0.884209C563.476 -3.25548 569.33 -4.51198 575.258 -4.57919C581.185 -4.64639 587.066 -3.52293 592.551 -1.27544C598.036 0.972058 603.014 4.29778 607.189 8.50447C611.364 12.7112 614.651 17.7132 616.855 23.2137C670.484 145.621 697.804 291.467 697.804 456.708C697.791 462.523 696.631 468.279 694.391 473.645C692.151 479.012 688.875 483.885 684.749 487.985C680.623 492.086 675.73 495.333 670.348 497.541C664.966 499.75 659.201 500.876 653.383 500.856Z" fill="white" fill-opacity="0.06"/>
</svg>
