<svg width="655" height="420" viewBox="0 0 655 420" fill="none" xmlns="http://www.w3.org/2000/svg">
<path d="M327 193C337.493 193 346 184.493 346 174C346 163.507 337.493 155 327 155C316.507 155 308 163.507 308 174C308 184.493 316.507 193 327 193Z" fill="#6263C7"/>
<path d="M119 25.5722V206.428C119.005 210.821 120.756 215.034 123.868 218.14C126.98 221.247 131.199 222.995 135.6 223H609.4C613.801 222.995 618.02 221.247 621.132 218.14C624.244 215.034 625.995 210.821 626 206.428V25.5722C625.995 21.1786 624.244 16.9665 621.132 13.8597C618.02 10.753 613.801 9.00529 609.4 9H135.6C131.199 9.00529 126.98 10.753 123.868 13.8597C120.756 16.9665 119.005 21.1786 119 25.5722ZM120.463 25.5722C120.463 21.5644 122.058 17.7208 124.897 14.8868C127.735 12.0529 131.586 10.4608 135.6 10.4608H510.644C540.85 10.4608 569.819 22.44 591.178 43.7632C612.537 65.0864 624.537 94.0068 624.537 124.162V206.428C624.537 210.436 622.942 214.279 620.103 217.113C617.265 219.947 613.414 221.539 609.4 221.539H135.6C131.586 221.539 127.735 219.947 124.897 217.113C122.058 214.279 120.463 210.436 120.463 206.428V25.5722Z" fill="#3F3D56"/>
<path d="M125.002 407L135.165 406.999L140 366L125 366.001L125.002 407Z" fill="#FFB6B6"/>
<path d="M125.001 418L158 417.999V417.578C158 414.14 156.646 410.843 154.238 408.412C151.829 405.981 148.562 404.615 145.156 404.615H145.155L139.127 400L127.881 404.616L125 404.616L125.001 418Z" fill="#2F2E41"/>
<path d="M78.0024 407L89.5207 406.999L95 366L78 366.001L78.0024 407Z" fill="#FFB6B6"/>
<path d="M78.0005 418L111 417.999V417.578C111 414.14 109.646 410.843 107.238 408.412C104.829 405.981 101.562 404.615 98.1557 404.615H98.1549L92.1271 400L80.8807 404.616L78 404.616L78.0005 418Z" fill="#2F2E41"/>
<path d="M151.376 184C151.376 184 161.526 215.225 159.652 219.335C159.963 222.331 160.403 221.007 160.772 223.474C160.772 225.273 161.285 224.98 160.772 228.68C157.779 234.117 153.244 278.876 151.25 281.043C151.25 283.247 151.386 281.923 151.25 284.13C151.386 286.337 151.386 285.373 151.386 287.479C148.19 291.747 139.708 390.227 139.708 390.227H123.14C123.14 390.227 119.013 385.462 121.349 382.361C123.685 379.26 121.144 378.065 121.349 375.995C121.554 373.924 120.777 369.46 120.633 367.423C120.489 365.386 117.688 316.861 124.416 288.829L112.149 235.455L97.2891 299.965C97.2891 299.965 104.124 354.076 97.2891 371.471C97.2891 371.471 102.8 376.067 100.356 378.731C97.9118 381.395 95.7809 379.26 97.9118 381.395C100.043 383.529 94.7155 391 94.7155 391L76.603 389.933L66.3513 288.829C66.3513 288.829 65.2407 278.874 66.9689 277.068C68.6971 275.261 68.0795 274.672 68.0795 274.672V266.134C68.0795 266.134 69.0805 213.621 69.214 210.529C69.3474 207.436 82.1327 185.024 82.1327 185.024L151.376 184Z" fill="#2F2E41"/>
<path d="M152 75.7378V137.095C149.975 143.037 148.93 149.255 148.905 155.518C148.972 165.949 151.317 177.969 151.31 183.224C151.341 183.921 151.263 184.619 151.08 185.293C140.695 214.727 85.7451 187.979 80.7497 185.474C80.5121 185.358 80.386 185.293 80.386 185.293L81.4697 152.324L81.2841 142.844L80 77.8137L81.1505 76.9137L91.2305 69.0525L92.2177 68.2831L95.2462 72.602L122.242 70.7873L132.545 68L135.759 69.2775L150.248 75.0409L152 75.7378Z" fill="#6263C7"/>
<path d="M244.331 123.15L225.151 117L220 127.136L240.516 132.938C241.187 133.97 242.141 134.8 243.272 135.335C244.402 135.871 245.664 136.089 246.916 135.967C248.167 135.845 249.359 135.386 250.357 134.643C251.354 133.9 252.119 132.901 252.563 131.76C253.008 130.619 253.116 129.38 252.874 128.183C252.633 126.985 252.052 125.877 251.196 124.983C250.341 124.088 249.245 123.443 248.032 123.119C246.819 122.795 245.538 122.806 244.331 123.15H244.331Z" fill="#FFB6B6"/>
<path d="M133.788 70L133.712 70.3019C132.27 76.0028 130.43 92.2863 134.374 96.6831C139.438 102.336 180.348 119.595 188.475 118.189C194.779 117.098 193.481 117.464 196.497 120.566C199.513 123.667 194.507 124.392 201.234 124.934C207.962 125.477 208.096 122.931 209.536 125.755C210.977 128.579 209.695 130.281 214.274 130.123C218.852 129.966 220 130.811 221.575 131.089C223.15 131.366 233.039 136 233.039 136C233.039 136 237.007 124.812 242 120.551C242 120.551 230.548 119.176 229.681 116.774C228.814 114.373 229.522 112.248 226.518 112.683C223.515 113.118 221.952 116.376 222.367 112.273C222.782 108.169 201.147 100.181 201.147 100.181C188.091 87.4733 161.265 78.6449 133.788 70Z" fill="#6263C7"/>
<path d="M74.6122 198.201L73.7322 178.107L62 177L63.6984 198.213C62.9322 199.213 62.4645 200.403 62.348 201.651C62.2315 202.898 62.4708 204.152 63.039 205.273C63.6071 206.394 64.4816 207.336 65.5642 207.995C66.6467 208.653 67.8944 209.001 69.1669 209C70.4394 208.999 71.6863 208.648 72.7674 207.987C73.8485 207.327 74.721 206.382 75.2868 205.26C75.8525 204.139 76.0891 202.883 75.9699 201.636C75.8508 200.389 75.3806 199.2 74.6122 198.201Z" fill="#FFB6B6"/>
<path d="M86 75L85.6875 75.0373C82.7803 75.3853 80.0006 76.4467 77.589 78.1299C75.1773 79.813 73.2064 82.0671 71.8469 84.6969C68.2959 91.5556 57.062 138.009 59.8126 144.384C62.3778 150.33 62.2717 148.868 60.4076 152.856C58.5434 156.843 56.0843 152.36 57.9553 158.937C59.8263 165.514 62.282 164.715 60.1221 167.108C57.9622 169.501 55.8986 168.905 57.6698 173.189C59.441 177.474 59.0489 178.869 59.3447 180.464C59.6405 182.058 58.7634 193.122 58.7634 193.122C58.7634 193.122 70.7494 192.815 76.5481 196C76.5481 196 73.7898 184.64 75.7537 182.944C77.7175 181.249 79.9772 181.148 78.5017 178.458C77.0262 175.768 73.3909 175.471 77.4183 174.372C81.4458 173.273 81.3323 149.852 81.3323 149.852L86 75Z" fill="#6263C7"/>
<path d="M115.152 49.4795C114.683 49.5853 114.213 49.6769 113.743 49.7474C112.308 49.9773 110.851 50.0506 109.4 49.9659C105.619 49.7679 101.968 48.552 98.8519 46.4532C95.7359 44.3544 93.2767 41.4547 91.7471 38.0756C90.2174 34.6966 89.6771 30.9702 90.186 27.3098C90.6949 23.6495 92.2331 20.1981 94.6301 17.3386C97.0271 14.479 100.189 12.323 103.766 11.1096C107.342 9.89627 111.193 9.67297 114.892 10.4645C118.59 11.2561 121.992 13.0315 124.719 15.5939C127.447 18.1564 129.393 21.4057 130.343 24.9815C130.386 25.1436 130.43 25.2987 130.466 25.4609C131.699 30.6268 130.778 36.059 127.907 40.5631C125.035 45.0671 120.447 48.2743 115.152 49.4795Z" fill="#FFB6B6"/>
<path d="M95.5925 48.5074C92.6575 46.2259 92.3726 41.8773 89.868 39.136C85.6804 34.5527 83.713 29.6218 85.9066 24.191C87.8468 19.3877 87.4344 13.4832 91.6131 10.3913C89.5608 9.65341 89.0778 8.12097 90.8887 8.09268C92.1098 8.0736 96.6622 10.3917 94.4717 7.50395C92.2812 4.61615 96.4277 5.75603 96.1534 4.57395C95.8791 3.39188 94.1205 2.73717 93.3449 3.67418C95.8212 0.792206 101.229 1.40664 102.986 4.7696C105.454 1.0955 108.074 -1.43263 111.851 0.898952C115.561 3.18891 115.512 6.01963 119.501 5.33933C121.376 5.01954 121.554 8.53855 122.835 9.93587C124.116 11.3332 125.988 12.4146 127.858 12.0637C129.728 11.7127 131.157 9.39852 130.11 7.82091L134.516 17.8059L136.292 15.6423C139.114 17.4689 138.187 22.2353 135.347 24.0333C132.506 25.8312 127.085 21.6756 125.544 24.6501C123.114 29.339 117.413 26.9713 113.499 23.6576C108.751 19.639 103.021 31.8577 105.308 37.6211C102.935 35.3069 98.5457 37.2274 97.3165 40.2965C96.0873 43.3656 96.9887 46.8234 97.8999 50L95.5925 48.5074Z" fill="#2F2E41"/>
<path d="M383.79 116H361.21C360.624 115.999 360.062 115.773 359.648 115.37C359.234 114.966 359.001 114.42 359 113.85V92.15C359.001 91.58 359.234 91.0335 359.648 90.6304C360.062 90.2274 360.624 90.0006 361.21 90H383.79C384.376 90.0006 384.938 90.2274 385.352 90.6304C385.766 91.0335 385.999 91.58 386 92.15V113.85C385.999 114.42 385.766 114.966 385.352 115.37C384.938 115.773 384.376 115.999 383.79 116Z" fill="#F2F2F2"/>
<path d="M387.79 118H365.21C364.624 117.999 364.062 117.773 363.648 117.37C363.234 116.967 363.001 116.42 363 115.85V94.15C363.001 93.58 363.234 93.0335 363.648 92.6304C364.062 92.2274 364.624 92.0006 365.21 92H387.79C388.376 92.0006 388.938 92.2274 389.352 92.6304C389.766 93.0335 389.999 93.58 390 94.15V115.85C389.999 116.42 389.766 116.966 389.352 117.37C388.938 117.773 388.376 117.999 387.79 118Z" fill="#F2F2F2"/>
<path d="M361.971 90C361.448 90 360.947 90.2099 360.577 90.5835C360.208 90.9571 360 91.4638 360 91.9922V113.008C360 113.536 360.208 114.043 360.577 114.417C360.947 114.79 361.448 115 361.971 115H375.411C377.954 115 380.393 113.979 382.191 112.161C383.99 110.343 385 107.878 385 105.307V91.9922C385 91.4638 384.792 90.9571 384.423 90.5835C384.053 90.2099 383.552 90 383.029 90H361.971Z" fill="white"/>
<path d="M378.612 97H367.388C367.285 97 367.187 96.9473 367.114 96.8536C367.041 96.7598 367 96.6326 367 96.5C367 96.3674 367.041 96.2402 367.114 96.1464C367.187 96.0527 367.285 96 367.388 96H378.612C378.715 96 378.813 96.0527 378.886 96.1464C378.959 96.2402 379 96.3674 379 96.5C379 96.6326 378.959 96.7598 378.886 96.8536C378.813 96.9473 378.715 97 378.612 97Z" fill="#F2F2F2"/>
<path d="M378.612 106H367.388C367.285 106 367.187 105.947 367.114 105.854C367.041 105.76 367 105.633 367 105.5C367 105.367 367.041 105.24 367.114 105.146C367.187 105.053 367.285 105 367.388 105H378.612C378.715 105 378.813 105.053 378.886 105.146C378.959 105.24 379 105.367 379 105.5C379 105.633 378.959 105.76 378.886 105.854C378.813 105.947 378.715 106 378.612 106Z" fill="#F2F2F2"/>
<path d="M383.595 102H362.405C362.297 102 362.194 101.947 362.118 101.854C362.043 101.76 362 101.633 362 101.5C362 101.367 362.043 101.24 362.118 101.146C362.194 101.053 362.297 101 362.405 101H383.595C383.703 101 383.806 101.053 383.882 101.146C383.957 101.24 384 101.367 384 101.5C384 101.633 383.957 101.76 383.882 101.854C383.806 101.947 383.703 102 383.595 102Z" fill="#F2F2F2"/>
<path d="M383.618 110H376.382C376.281 110 376.184 109.947 376.112 109.854C376.04 109.76 376 109.633 376 109.5C376 109.367 376.04 109.24 376.112 109.146C376.184 109.053 376.281 109 376.382 109H383.618C383.719 109 383.816 109.053 383.888 109.146C383.96 109.24 384 109.367 384 109.5C384 109.633 383.96 109.76 383.888 109.854C383.816 109.947 383.719 110 383.618 110Z" fill="#F2F2F2"/>
<path d="M317.898 130L317.613 129.857C300.963 121.516 282.95 121.524 262.547 129.88L262 128.507C282.694 120.031 301.009 119.991 317.975 128.387C341.851 119.18 357.2 103.575 363.599 82L365 82.4268C358.435 104.555 342.688 120.523 318.195 129.886L317.898 130Z" fill="#F2F2F2"/>
<path d="M387.437 130L387.148 129.867C370.625 122.236 352.427 122.243 331.515 129.89L331 128.528C352.179 120.783 370.66 120.746 387.485 128.418C414.477 117.802 429.973 102.522 433.547 83L435 83.2575C431.315 103.378 415.413 119.065 387.734 129.884L387.437 130Z" fill="#F2F2F2"/>
<path d="M441.769 129L441.588 128.923C428.095 123.151 410.539 123.163 386.343 128.962L386 127.546C410.412 121.696 428.209 121.682 441.984 127.508C469.328 124.181 484.234 109.293 487.547 82L489 82.1749C485.585 110.296 470.2 125.605 441.964 128.977L441.769 129Z" fill="#F2F2F2"/>
<path d="M370.5 86C374.09 86 377 83.3137 377 80C377 76.6863 374.09 74 370.5 74C366.91 74 364 76.6863 364 80C364 83.3137 366.91 86 370.5 86Z" fill="#6263C7"/>
<path d="M436 86C439.314 86 442 83.3137 442 80C442 76.6863 439.314 74 436 74C432.686 74 430 76.6863 430 80C430 83.3137 432.686 86 436 86Z" fill="#6C63FF"/>
<path d="M489 85C492.314 85 495 82.3137 495 79C495 75.6863 492.314 73 489 73C485.686 73 483 75.6863 483 79C483 82.3137 485.686 85 489 85Z" fill="#6263C7"/>
<path d="M325.943 174H264.057C262.451 173.998 260.911 173.37 259.776 172.254C258.64 171.138 258.002 169.625 258 168.046V107.954C258.002 106.375 258.64 104.862 259.776 103.746C260.911 102.63 262.451 102.002 264.057 102H325.943C327.549 102.002 329.089 102.63 330.224 103.746C331.36 104.862 331.998 106.375 332 107.954V168.046C331.998 169.625 331.36 171.138 330.224 172.254C329.089 173.37 327.549 173.998 325.943 174Z" fill="#E6E6E6"/>
<path d="M315.025 170H253.975C252.391 169.998 250.872 169.353 249.752 168.206C248.632 167.059 248.002 165.503 248 163.881V102.119C248.002 100.497 248.632 98.9415 249.752 97.7943C250.872 96.6471 252.391 96.0018 253.975 96H315.025C316.609 96.0018 318.128 96.6471 319.248 97.7943C320.368 98.9415 320.998 100.497 321 102.119V163.881C320.998 165.503 320.368 167.059 319.248 168.206C318.128 169.353 316.609 169.998 315.025 170Z" fill="#E6E6E6"/>
<path d="M265.466 98C261.364 98 257.43 99.671 254.53 102.645C251.629 105.62 250 109.654 250 113.86V162.422C250 163.154 250.141 163.88 250.414 164.556C250.687 165.233 251.088 165.848 251.593 166.366C252.098 166.884 252.698 167.295 253.358 167.575C254.018 167.856 254.725 168 255.44 168H292.534C296.009 168 299.451 167.298 302.662 165.934C305.873 164.57 308.791 162.571 311.248 160.051C313.706 157.53 315.655 154.538 316.985 151.245C318.315 147.953 319 144.423 319 140.859V103.578C319 102.099 318.427 100.68 317.407 99.6338C316.387 98.5877 315.003 98 313.56 98H265.466Z" fill="white"/>
<path d="M300.867 116H268.133C267.832 116 267.544 115.842 267.332 115.561C267.119 115.279 267 114.898 267 114.5C267 114.102 267.119 113.721 267.332 113.439C267.544 113.158 267.832 113 268.133 113H300.867C301.168 113 301.456 113.158 301.668 113.439C301.881 113.721 302 114.102 302 114.5C302 114.898 301.881 115.279 301.668 115.561C301.456 115.842 301.168 116 300.867 116Z" fill="#E6E6E6"/>
<path d="M300.87 140H268.135C267.986 140 267.839 139.975 267.701 139.925C267.563 139.875 267.438 139.801 267.333 139.708C267.227 139.615 267.144 139.505 267.087 139.383C267.029 139.262 267 139.132 267 139C267 138.868 267.029 138.738 267.087 138.617C267.144 138.495 267.227 138.385 267.333 138.292C267.438 138.199 267.563 138.125 267.701 138.075C267.839 138.025 267.986 138 268.135 138H300.87C301.17 138.001 301.458 138.106 301.669 138.294C301.881 138.481 302 138.735 302 139C302 139.265 301.881 139.519 301.669 139.706C301.458 139.894 301.17 139.999 300.87 140Z" fill="#E6E6E6"/>
<path d="M314.86 128H255.14C254.838 128 254.548 127.895 254.334 127.707C254.12 127.52 254 127.265 254 127C254 126.735 254.12 126.48 254.334 126.293C254.548 126.105 254.838 126 255.14 126H314.86C315.162 126 315.452 126.105 315.666 126.293C315.88 126.48 316 126.735 316 127C316 127.265 315.88 127.52 315.666 127.707C315.452 127.895 315.162 128 314.86 128Z" fill="#E6E6E6"/>
<path d="M315.853 150H294.147C293.997 150 293.847 149.974 293.708 149.924C293.569 149.874 293.443 149.8 293.336 149.707C293.229 149.614 293.145 149.504 293.087 149.383C293.03 149.261 293 149.131 293 149C293 148.869 293.03 148.739 293.087 148.617C293.145 148.496 293.229 148.386 293.336 148.293C293.443 148.2 293.569 148.126 293.708 148.076C293.847 148.026 293.997 148 294.147 148H315.853C316.157 148 316.449 148.105 316.664 148.293C316.879 148.48 317 148.735 317 149C317 149.265 316.879 149.52 316.664 149.707C316.449 149.895 316.157 150 315.853 150Z" fill="#E6E6E6"/>
<path d="M460.954 113H440.046C439.504 112.999 438.984 112.781 438.6 112.394C438.216 112.006 438.001 111.481 438 110.933V90.0673C438.001 89.5192 438.216 88.9937 438.6 88.6062C438.984 88.2186 439.504 88.0006 440.046 88H460.954C461.496 88.0006 462.016 88.2186 462.4 88.6062C462.784 88.9937 462.999 89.5192 463 90.0673V110.933C462.999 111.481 462.784 112.006 462.4 112.394C462.016 112.781 461.496 112.999 460.954 113Z" fill="#F2F2F2"/>
<path d="M464.872 115H443.128C442.564 114.999 442.023 114.781 441.624 114.394C441.225 114.006 441.001 113.481 441 112.933V92.0673C441.001 91.5192 441.225 90.9937 441.624 90.6062C442.023 90.2186 442.564 90.0006 443.128 90H464.872C465.436 90.0006 465.977 90.2186 466.376 90.6062C466.775 90.9937 466.999 91.5192 467 92.0673V112.933C466.999 113.481 466.775 114.006 466.376 114.394C465.977 114.781 465.436 114.999 464.872 115Z" fill="#F2F2F2"/>
<path d="M439.971 88C439.448 88 438.947 88.2015 438.577 88.5602C438.208 88.9188 438 89.4053 438 89.9125V110.087C438 110.595 438.208 111.081 438.577 111.44C438.947 111.799 439.448 112 439.971 112H453.411C455.954 112 458.393 111.02 460.191 109.275C461.99 107.529 463 105.163 463 102.695V89.9125C463 89.4053 462.792 88.9188 462.423 88.5602C462.053 88.2015 461.552 88 461.029 88H439.971Z" fill="white"/>
<path d="M456.579 94H444.421C444.309 94 444.202 93.9473 444.123 93.8536C444.044 93.7598 444 93.6326 444 93.5C444 93.3674 444.044 93.2402 444.123 93.1464C444.202 93.0527 444.309 93 444.421 93H456.579C456.691 93 456.798 93.0527 456.877 93.1464C456.956 93.2402 457 93.3674 457 93.5C457 93.6326 456.956 93.7598 456.877 93.8536C456.798 93.9473 456.691 94 456.579 94Z" fill="#F2F2F2"/>
<path d="M456.579 103H444.421C444.309 103 444.202 102.947 444.123 102.854C444.044 102.76 444 102.633 444 102.5C444 102.367 444.044 102.24 444.123 102.146C444.202 102.053 444.309 102 444.421 102H456.579C456.691 102 456.798 102.053 456.877 102.146C456.956 102.24 457 102.367 457 102.5C457 102.633 456.956 102.76 456.877 102.854C456.798 102.947 456.691 103 456.579 103Z" fill="#F2F2F2"/>
<path d="M460.618 107H453.382C453.281 107 453.184 106.947 453.112 106.854C453.04 106.76 453 106.633 453 106.5C453 106.367 453.04 106.24 453.112 106.146C453.184 106.053 453.281 106 453.382 106H460.618C460.719 106 460.816 106.053 460.888 106.146C460.96 106.24 461 106.367 461 106.5C461 106.633 460.96 106.76 460.888 106.854C460.816 106.947 460.719 107 460.618 107Z" fill="#F2F2F2"/>
<path d="M209.851 407.359C209.51 407.374 209.172 407.286 208.883 407.106C208.594 406.926 208.369 406.663 208.237 406.352C208.105 406.042 208.073 405.699 208.146 405.37C208.219 405.041 208.392 404.742 208.643 404.513L208.757 404.066C208.742 404.03 208.727 403.994 208.712 403.959C208.368 403.158 207.792 402.476 207.055 401.997C206.319 401.519 205.455 401.265 204.573 401.268C203.69 401.271 202.829 401.531 202.096 402.015C201.363 402.499 200.792 403.186 200.454 403.989C199.103 407.193 197.384 410.402 196.96 413.789C196.774 415.287 196.852 416.805 197.193 418.276C194.02 411.46 192.373 404.053 192.363 396.555C192.362 394.674 192.468 392.794 192.68 390.924C192.856 389.391 193.1 387.869 193.411 386.358C195.111 378.16 198.762 370.476 204.063 363.937C206.629 362.558 208.704 360.438 210.008 357.862C210.481 356.936 210.815 355.947 211 354.927C210.711 354.964 209.909 350.623 210.127 350.356C209.724 349.754 209.002 349.454 208.561 348.866C206.37 345.94 203.352 346.451 201.776 350.427C198.41 352.1 198.377 354.875 200.443 357.544C201.757 359.242 201.937 361.539 203.09 363.357C202.972 363.507 202.848 363.652 202.73 363.801C200.561 366.547 198.672 369.496 197.087 372.605C197.473 369.122 197.013 365.598 195.746 362.324C194.461 359.273 192.054 356.703 189.934 354.065C189.374 353.357 188.612 352.828 187.747 352.545C186.881 352.263 185.949 352.239 185.07 352.478C184.191 352.717 183.403 353.207 182.806 353.887C182.21 354.566 181.831 355.405 181.719 356.296C181.714 356.335 181.71 356.374 181.706 356.413C182.021 356.588 182.329 356.774 182.63 356.97C183.009 357.219 183.303 357.575 183.473 357.992C183.642 358.408 183.681 358.865 183.582 359.303C183.483 359.742 183.253 360.14 182.92 360.447C182.588 360.754 182.169 360.955 181.719 361.023L181.673 361.03C181.785 362.148 181.983 363.255 182.266 364.343C179.546 374.701 185.417 378.473 193.8 378.643C193.985 378.736 194.166 378.83 194.351 378.919C192.759 383.361 191.76 387.989 191.38 392.686C191.165 395.456 191.178 398.24 191.418 401.008L191.404 400.91C190.797 397.832 189.129 395.054 186.683 393.045C183.05 390.106 177.917 389.024 173.998 386.661C173.581 386.398 173.097 386.257 172.602 386.256C172.107 386.255 171.622 386.393 171.204 386.654C170.786 386.916 170.453 387.289 170.243 387.731C170.034 388.173 169.957 388.664 170.022 389.148L170.039 389.251C170.623 389.485 171.192 389.755 171.742 390.059C172.057 390.234 172.365 390.42 172.666 390.616C173.045 390.866 173.339 391.222 173.509 391.638C173.678 392.055 173.717 392.512 173.618 392.95C173.519 393.388 173.289 393.787 172.956 394.093C172.624 394.4 172.205 394.601 171.755 394.669L171.709 394.676C171.675 394.681 171.647 394.686 171.614 394.69C172.612 397.038 174.013 399.199 175.756 401.079C177.456 410.12 184.759 410.978 192.571 408.345H192.576C193.433 412.014 194.675 415.584 196.282 419H209.52C209.567 418.855 209.61 418.706 209.653 418.561C208.427 418.637 207.197 418.564 205.99 418.346C206.972 417.159 207.954 415.962 208.936 414.776C208.958 414.753 208.979 414.73 208.998 414.705C209.496 414.098 209.999 413.495 210.497 412.888L210.497 412.887C210.524 411.025 210.307 409.167 209.852 407.359L209.851 407.359Z" fill="#F2F2F2"/>
<path d="M30 419C29.9997 419.131 30.0219 419.262 30.0656 419.383C30.1092 419.505 30.1733 419.615 30.2542 419.708C30.3351 419.801 30.4312 419.875 30.5369 419.925C30.6427 419.975 30.756 420 30.8704 420H216.13C216.36 420 216.582 419.895 216.745 419.707C216.908 419.52 217 419.265 217 419C217 418.735 216.908 418.48 216.745 418.293C216.582 418.105 216.36 418 216.13 418H30.8704C30.756 418 30.6427 418.025 30.5369 418.075C30.4312 418.125 30.3351 418.199 30.2542 418.292C30.1733 418.385 30.1092 418.495 30.0656 418.617C30.0219 418.738 29.9997 418.869 30 419Z" fill="#CCCCCC"/>
<path d="M136 67.9829L135.274 68.9142L133.323 71.4122L116.475 93L92 67.7538L92.9755 66.9704L98.1684 55.8476L124.844 54L132.824 66.6822L136 67.9829Z" fill="#3F3D56"/>
</svg>
