<svg width="1072" height="1117" viewBox="0 0 1072 1117" fill="none" xmlns="http://www.w3.org/2000/svg">
<path d="M555.974 579.805C550.064 569.579 550.057 552.995 555.958 542.763L594.692 475.608C600.593 465.377 610.168 465.373 616.078 475.599L654.869 542.721C660.779 552.947 660.786 569.531 654.885 579.762L616.152 646.917C610.25 657.149 600.676 657.153 594.766 646.926L555.974 579.805Z" fill="white" fill-opacity="0.06"/>
<path d="M620.849 692.06C614.939 681.834 614.932 665.249 620.833 655.018L659.567 587.863C665.468 577.632 675.043 577.628 680.953 587.854L719.744 654.976C725.654 665.202 725.661 681.786 719.76 692.017L681.026 759.172C675.125 769.403 665.55 769.408 659.64 759.181L620.849 692.06Z" fill="white" fill-opacity="0.06"/>
<path d="M685.724 804.315C679.814 794.089 679.807 777.504 685.708 767.273L724.441 700.118C730.343 689.887 739.918 689.883 745.828 700.109L784.619 767.23C790.529 777.457 790.536 794.041 784.635 804.272L745.901 871.427C740 881.658 730.425 881.663 724.515 871.436L685.724 804.315Z" fill="white" fill-opacity="0.06"/>
<path d="M622.756 464.021C616.846 453.794 616.839 437.21 622.74 426.979L661.473 359.824C667.375 349.593 676.95 349.589 682.86 359.815L721.651 426.936C727.561 437.163 727.568 453.747 721.667 463.978L682.933 531.133C677.032 541.364 667.457 541.368 661.547 531.142L622.756 464.021Z" fill="white" fill-opacity="0.06"/>
<path d="M687.631 576.276C681.721 566.049 681.714 549.465 687.615 539.234L726.348 472.079C732.25 461.848 741.824 461.844 747.734 472.07L786.525 539.191C792.435 549.418 792.443 566.002 786.541 576.233L747.808 643.388C741.907 653.619 732.332 653.623 726.422 643.397L687.631 576.276Z" fill="white" fill-opacity="0.06"/>
<path d="M752.506 688.531C746.596 678.304 746.589 661.72 752.49 651.489L791.223 584.334C797.124 574.103 806.699 574.099 812.609 584.325L851.4 651.446C857.31 661.672 857.317 678.257 851.416 688.488L812.683 755.643C806.782 765.874 797.207 765.878 791.297 755.652L752.506 688.531Z" fill="white" fill-opacity="0.06"/>
<path d="M754.413 460.491C748.503 450.265 748.495 433.681 754.397 423.45L793.13 356.295C799.031 346.063 808.606 346.059 814.516 356.286L853.307 423.407C859.217 433.633 859.224 450.218 853.323 460.449L814.59 527.604C808.689 537.835 799.114 537.839 793.204 527.613L754.413 460.491Z" fill="white" fill-opacity="0.06"/>
<path d="M819.287 572.746C813.377 562.52 813.37 545.936 819.271 535.705L858.005 468.55C863.906 458.318 873.481 458.314 879.391 468.541L918.182 535.662C924.092 545.888 924.099 562.472 918.198 572.704L879.465 639.859C873.563 650.09 863.988 650.094 858.078 639.868L819.287 572.746Z" fill="white" fill-opacity="0.06"/>
<path d="M689.56 348.28C683.65 338.054 683.643 321.47 689.544 311.238L728.278 244.084C734.179 233.852 743.754 233.848 749.664 244.074L788.455 311.196C794.365 321.422 794.372 338.006 788.471 348.238L749.738 415.392C743.836 425.624 734.262 425.628 728.352 415.402L689.56 348.28Z" fill="white" fill-opacity="0.16"/>
<path d="M175.865 555.561C164.054 555.566 159.263 547.276 165.164 537.045L203.897 469.89C209.799 459.659 224.157 451.361 235.969 451.356L313.493 451.322C325.304 451.317 330.095 459.607 324.194 469.839L285.461 536.993C279.559 547.225 265.201 555.523 253.39 555.528L175.865 555.561Z" fill="white" fill-opacity="0.16"/>
<path d="M305.518 555.506C293.707 555.511 288.916 547.221 294.817 536.989L333.55 469.834C339.452 459.603 353.81 451.305 365.622 451.3L443.146 451.266C454.957 451.261 459.748 459.551 453.847 469.783L415.114 536.938C409.212 547.169 394.854 555.467 383.043 555.472L305.518 555.506Z" fill="white" fill-opacity="0.16"/>
<path d="M435.171 555.45C423.36 555.455 418.569 547.165 424.47 536.934L463.203 469.779C469.105 459.547 483.463 451.249 495.275 451.244L572.799 451.211C584.61 451.206 589.401 459.496 583.5 469.727L544.767 536.882C538.866 547.113 524.507 555.411 512.696 555.416L435.171 555.45Z" fill="white" fill-opacity="0.16"/>
<path d="M242.647 439.777C230.836 439.782 226.045 431.492 231.946 421.261L270.679 354.106C276.58 343.875 290.939 335.576 302.75 335.571L380.275 335.538C392.086 335.533 396.877 343.823 390.976 354.054L352.242 421.209C346.341 431.44 331.982 439.739 320.171 439.744L242.647 439.777Z" fill="white" fill-opacity="0.16"/>
<path d="M372.3 439.721C360.489 439.726 355.698 431.436 361.599 421.205L400.332 354.05C406.233 343.819 420.592 335.521 432.403 335.516L509.928 335.482C521.739 335.477 526.53 343.767 520.629 353.999L481.895 421.153C475.994 431.385 461.635 439.683 449.824 439.688L372.3 439.721Z" fill="white" fill-opacity="0.16"/>
<path d="M501.953 439.666C490.142 439.671 485.351 431.381 491.252 421.149L529.985 353.994C535.886 343.763 550.245 335.465 562.056 335.46L639.581 335.426C651.392 335.421 656.183 343.711 650.282 353.943L611.548 421.098C605.647 431.329 591.288 439.627 579.477 439.632L501.953 439.666Z" fill="white" fill-opacity="0.16"/>
<path d="M309.428 323.993C297.617 323.998 292.826 315.708 298.727 305.477L337.461 238.322C343.362 228.09 357.721 219.792 369.532 219.787L447.056 219.754C458.868 219.749 463.659 228.039 457.757 238.27L419.024 305.425C413.123 315.656 398.764 323.955 386.953 323.96L309.428 323.993Z" fill="white" fill-opacity="0.16"/>
<path d="M439.081 323.937C427.27 323.942 422.479 315.652 428.38 305.421L467.114 238.266C473.015 228.035 487.374 219.736 499.185 219.731L576.709 219.698C588.521 219.693 593.312 227.983 587.41 238.214L548.677 305.369C542.776 315.6 528.417 323.899 516.606 323.904L439.081 323.937Z" fill="white" fill-opacity="0.16"/>
<path d="M568.732 323.881C556.921 323.887 552.13 315.597 558.031 305.365L596.764 238.21C602.665 227.979 617.024 219.681 628.835 219.676L706.36 219.642C718.171 219.637 722.962 227.927 717.061 238.159L678.327 305.313C672.426 315.545 658.067 323.843 646.256 323.848L568.732 323.881Z" fill="white" fill-opacity="0.06"/>
<path d="M156.953 586.561C151.043 576.335 155.827 568.041 167.638 568.036L245.162 568.003C256.974 567.998 271.34 576.283 277.25 586.51L316.041 653.631C321.951 663.857 317.167 672.152 305.356 672.157L227.831 672.19C216.02 672.195 201.654 663.909 195.744 653.683L156.953 586.561Z" fill="white" fill-opacity="0.03"/>
<path d="M221.828 698.816C215.918 688.59 220.702 680.296 232.513 680.291L310.037 680.258C321.849 680.252 336.214 688.538 342.124 698.765L380.916 765.886C386.826 776.112 382.042 784.407 370.23 784.412L292.706 784.445C280.895 784.45 266.529 776.164 260.619 765.938L221.828 698.816Z" fill="white" fill-opacity="0.03"/>
<path d="M286.703 811.071C280.793 800.845 285.576 792.551 297.388 792.546L374.912 792.512C386.723 792.507 401.089 800.793 406.999 811.02L445.79 878.141C451.7 888.367 446.916 896.661 435.105 896.666L357.581 896.7C345.77 896.705 331.404 888.419 325.494 878.193L286.703 811.071Z" fill="white" fill-opacity="0.03"/>
<path d="M290.616 586.504C284.706 576.278 289.49 567.984 301.301 567.979L378.825 567.945C390.637 567.94 405.002 576.226 410.912 586.452L449.704 653.574C455.614 663.8 450.83 672.094 439.019 672.099L361.494 672.133C349.683 672.138 335.317 663.852 329.407 653.625L290.616 586.504Z" fill="white" fill-opacity="0.03"/>
<path d="M355.491 698.759C349.581 688.533 354.365 680.238 366.176 680.233L443.7 680.2C455.511 680.195 469.877 688.481 475.787 698.707L514.578 765.829C520.488 776.055 515.705 784.349 503.893 784.354L426.369 784.387C414.558 784.393 400.192 776.107 394.282 765.88L355.491 698.759Z" fill="white" fill-opacity="0.03"/>
<path d="M420.365 811.014C414.455 800.788 419.239 792.493 431.051 792.488L508.575 792.455C520.386 792.45 534.752 800.736 540.662 810.962L579.453 878.084C585.363 888.31 580.579 896.604 568.768 896.609L491.244 896.642C479.432 896.647 465.067 888.362 459.157 878.135L420.365 811.014Z" fill="white" fill-opacity="0.03"/>
<path d="M424.279 586.446C418.369 576.22 423.153 567.926 434.964 567.921L512.488 567.888C524.299 567.883 538.665 576.168 544.575 586.395L583.366 653.516C589.276 663.742 584.493 672.037 572.681 672.042L495.157 672.075C483.346 672.08 468.98 663.794 463.07 653.568L424.279 586.446Z" fill="white" fill-opacity="0.03"/>
<path d="M489.154 698.701C483.244 688.475 488.027 680.181 499.839 680.176L577.363 680.143C589.174 680.137 603.54 688.423 609.45 698.65L648.241 765.771C654.151 775.997 649.367 784.291 637.556 784.297L560.032 784.33C548.221 784.335 533.855 776.049 527.945 765.823L489.154 698.701Z" fill="white" fill-opacity="0.03"/>
<path d="M554.028 810.956C548.118 800.73 552.902 792.436 564.713 792.431L642.238 792.397C654.049 792.392 668.415 800.678 674.325 810.905L713.116 878.026C719.026 888.252 714.242 896.546 702.431 896.551L624.907 896.585C613.095 896.59 598.73 888.304 592.82 878.078L554.028 810.956Z" fill="white" fill-opacity="0.03"/>
</svg>
