<svg width="258" height="33" viewBox="0 0 258 33" fill="none" xmlns="http://www.w3.org/2000/svg">
<g clip-path="url(#clip0_801_6869)">
<path d="M43.0568 4.27273H44.3182L47.2841 11.517H47.3864L50.3523 4.27273H51.6136V13H50.625V6.36932H50.5398L47.8125 13H46.858L44.1307 6.36932H44.0455V13H43.0568V4.27273ZM53.7326 13V4.27273H54.7894V8.15909H59.4428V4.27273H60.4996V13H59.4428V9.09659H54.7894V13H53.7326ZM69.979 8.63636C69.979 9.55682 69.8129 10.3523 69.4805 11.0227C69.1481 11.6932 68.6921 12.2102 68.1126 12.5739C67.533 12.9375 66.8711 13.1193 66.1268 13.1193C65.3825 13.1193 64.7205 12.9375 64.141 12.5739C63.5614 12.2102 63.1055 11.6932 62.7731 11.0227C62.4407 10.3523 62.2745 9.55682 62.2745 8.63636C62.2745 7.71591 62.4407 6.92045 62.7731 6.25C63.1055 5.57955 63.5614 5.0625 64.141 4.69886C64.7205 4.33523 65.3825 4.15341 66.1268 4.15341C66.8711 4.15341 67.533 4.33523 68.1126 4.69886C68.6921 5.0625 69.1481 5.57955 69.4805 6.25C69.8129 6.92045 69.979 7.71591 69.979 8.63636ZM68.9563 8.63636C68.9563 7.88068 68.8299 7.2429 68.5771 6.72301C68.3271 6.20312 67.9876 5.80966 67.5586 5.54261C67.1325 5.27557 66.6552 5.14205 66.1268 5.14205C65.5984 5.14205 65.1197 5.27557 64.6907 5.54261C64.2646 5.80966 63.9251 6.20312 63.6722 6.72301C63.4222 7.2429 63.2972 7.88068 63.2972 8.63636C63.2972 9.39205 63.4222 10.0298 63.6722 10.5497C63.9251 11.0696 64.2646 11.4631 64.6907 11.7301C65.1197 11.9972 65.5984 12.1307 66.1268 12.1307C66.6552 12.1307 67.1325 11.9972 67.5586 11.7301C67.9876 11.4631 68.3271 11.0696 68.5771 10.5497C68.8299 10.0298 68.9563 9.39205 68.9563 8.63636ZM79.1708 11.9943L79.0515 15.0625H77.9606V13H77.3469V11.9943H79.1708ZM71.756 13V4.27273H72.7617V12.0284H77.2617V4.27273H78.2674V13H71.756ZM86.495 12.0625H85.6087L83.8871 9.50568V9.42045H84.8587L86.495 12.0625ZM86.495 6.82955L84.8587 9.47159H83.8871V9.38636L85.6087 6.82955H86.495ZM88.6768 12.0625H87.7905L86.0689 9.50568V9.42045H87.0405L88.6768 12.0625ZM88.6768 6.82955L87.0405 9.47159H86.0689V9.38636L87.7905 6.82955H88.6768ZM90.6232 13V4.27273H95.8903V5.21023H91.68V7.9375H93.896C94.521 7.9375 95.0479 8.03977 95.4769 8.24432C95.9087 8.44886 96.2354 8.73722 96.457 9.10938C96.6815 9.48153 96.7937 9.92045 96.7937 10.4261C96.7937 10.9318 96.6815 11.3778 96.457 11.7642C96.2354 12.1506 95.9087 12.4531 95.4769 12.6719C95.0479 12.8906 94.521 13 93.896 13H90.6232ZM91.68 12.0795H93.896C94.2937 12.0795 94.6303 12 94.9059 11.8409C95.1843 11.679 95.3945 11.4716 95.5366 11.2188C95.6815 10.9631 95.7539 10.6932 95.7539 10.4091C95.7539 9.99148 95.5934 9.6321 95.2724 9.33097C94.9513 9.02699 94.4925 8.875 93.896 8.875H91.68V12.0795ZM101.141 13.1364C100.511 13.1364 99.9666 12.9972 99.5092 12.7188C99.0547 12.4375 98.7038 12.0455 98.4567 11.5426C98.2124 11.0369 98.0902 10.4489 98.0902 9.77841C98.0902 9.10795 98.2124 8.51705 98.4567 8.00568C98.7038 7.49148 99.0476 7.09091 99.4879 6.80398C99.9311 6.5142 100.448 6.36932 101.039 6.36932C101.38 6.36932 101.717 6.42614 102.049 6.53977C102.381 6.65341 102.684 6.83807 102.957 7.09375C103.229 7.34659 103.447 7.68182 103.609 8.09943C103.771 8.51705 103.852 9.03125 103.852 9.64205V10.0682H98.8061V9.19886H102.829C102.829 8.82955 102.755 8.5 102.607 8.21023C102.462 7.92045 102.255 7.69176 101.985 7.52415C101.718 7.35653 101.403 7.27273 101.039 7.27273C100.638 7.27273 100.292 7.37216 99.9993 7.57102C99.7095 7.76705 99.4865 8.02273 99.3303 8.33807C99.174 8.65341 99.0959 8.99148 99.0959 9.35227V9.93182C99.0959 10.4261 99.1811 10.8452 99.3516 11.1889C99.5249 11.5298 99.7649 11.7898 100.072 11.9688C100.379 12.1449 100.735 12.233 101.141 12.233C101.406 12.233 101.644 12.196 101.857 12.1222C102.073 12.0455 102.259 11.9318 102.415 11.7812C102.572 11.6278 102.692 11.4375 102.778 11.2102L103.749 11.483C103.647 11.8125 103.475 12.1023 103.234 12.3523C102.992 12.5994 102.694 12.7926 102.339 12.9318C101.984 13.0682 101.585 13.1364 101.141 13.1364ZM104.972 11.3295H106.046C106.069 11.625 106.202 11.8494 106.447 12.0028C106.694 12.1562 107.015 12.233 107.41 12.233C107.813 12.233 108.158 12.1506 108.445 11.9858C108.732 11.8182 108.876 11.5483 108.876 11.1761C108.876 10.9574 108.822 10.767 108.714 10.6051C108.606 10.4403 108.454 10.3125 108.258 10.2216C108.062 10.1307 107.83 10.0852 107.563 10.0852H106.438V9.18182H107.563C107.964 9.18182 108.259 9.09091 108.45 8.90909C108.643 8.72727 108.739 8.5 108.739 8.22727C108.739 7.93466 108.636 7.70028 108.428 7.52415C108.221 7.34517 107.927 7.25568 107.546 7.25568C107.163 7.25568 106.843 7.34233 106.587 7.51562C106.332 7.68608 106.197 7.90625 106.183 8.17614H105.126C105.137 7.82386 105.245 7.51278 105.45 7.2429C105.654 6.97017 105.933 6.7571 106.285 6.60369C106.637 6.44744 107.04 6.36932 107.495 6.36932C107.955 6.36932 108.354 6.45028 108.692 6.61222C109.033 6.77131 109.296 6.98864 109.481 7.2642C109.668 7.53693 109.762 7.84659 109.762 8.19318C109.762 8.5625 109.658 8.8608 109.451 9.08807C109.244 9.31534 108.984 9.47727 108.671 9.57386V9.64205C108.918 9.65909 109.133 9.73864 109.315 9.88068C109.499 10.0199 109.643 10.2031 109.745 10.4304C109.847 10.6548 109.898 10.9034 109.898 11.1761C109.898 11.5739 109.792 11.9205 109.579 12.2159C109.366 12.5085 109.073 12.7358 108.701 12.8977C108.329 13.0568 107.904 13.1364 107.427 13.1364C106.964 13.1364 106.549 13.0611 106.183 12.9105C105.816 12.7571 105.525 12.5455 105.309 12.2756C105.096 12.0028 104.984 11.6875 104.972 11.3295ZM113.97 13.1364C113.379 13.1364 112.861 12.9957 112.415 12.7145C111.972 12.4332 111.625 12.0398 111.375 11.5341C111.128 11.0284 111.004 10.4375 111.004 9.76136C111.004 9.07955 111.128 8.48437 111.375 7.97585C111.625 7.46733 111.972 7.07244 112.415 6.79119C112.861 6.50994 113.379 6.36932 113.97 6.36932C114.561 6.36932 115.078 6.50994 115.521 6.79119C115.967 7.07244 116.314 7.46733 116.561 7.97585C116.811 8.48437 116.936 9.07955 116.936 9.76136C116.936 10.4375 116.811 11.0284 116.561 11.5341C116.314 12.0398 115.967 12.4332 115.521 12.7145C115.078 12.9957 114.561 13.1364 113.97 13.1364ZM113.97 12.233C114.419 12.233 114.788 12.1179 115.078 11.8878C115.368 11.6577 115.582 11.3551 115.722 10.9801C115.861 10.6051 115.93 10.1989 115.93 9.76136C115.93 9.32386 115.861 8.91619 115.722 8.53835C115.582 8.16051 115.368 7.85511 115.078 7.62216C114.788 7.3892 114.419 7.27273 113.97 7.27273C113.521 7.27273 113.152 7.3892 112.862 7.62216C112.572 7.85511 112.358 8.16051 112.219 8.53835C112.08 8.91619 112.01 9.32386 112.01 9.76136C112.01 10.1989 112.08 10.6051 112.219 10.9801C112.358 11.3551 112.572 11.6577 112.862 11.8878C113.152 12.1179 113.521 12.233 113.97 12.233ZM118.471 13V6.45455H123.619V13H122.613V7.39205H119.477V13H118.471ZM127.382 13.1534C126.967 13.1534 126.591 13.0753 126.252 12.919C125.914 12.7599 125.646 12.5312 125.447 12.233C125.248 11.9318 125.149 11.5682 125.149 11.142C125.149 10.767 125.223 10.4631 125.37 10.2301C125.518 9.99432 125.716 9.80966 125.963 9.67614C126.21 9.54261 126.483 9.44318 126.781 9.37784C127.082 9.30966 127.385 9.25568 127.689 9.21591C128.086 9.16477 128.409 9.12642 128.656 9.10085C128.906 9.07244 129.088 9.02557 129.201 8.96023C129.318 8.89489 129.376 8.78125 129.376 8.61932V8.58523C129.376 8.16477 129.261 7.83807 129.031 7.60511C128.804 7.37216 128.458 7.25568 127.995 7.25568C127.515 7.25568 127.139 7.3608 126.866 7.57102C126.593 7.78125 126.402 8.00568 126.291 8.24432L125.336 7.90341C125.507 7.50568 125.734 7.19602 126.018 6.97443C126.305 6.75 126.618 6.59375 126.956 6.50568C127.297 6.41477 127.632 6.36932 127.961 6.36932C128.172 6.36932 128.413 6.39489 128.686 6.44602C128.961 6.49432 129.227 6.59517 129.483 6.74858C129.741 6.90199 129.956 7.13352 130.126 7.44318C130.297 7.75284 130.382 8.16761 130.382 8.6875V13H129.376V12.1136H129.325C129.257 12.2557 129.143 12.4077 128.984 12.5696C128.825 12.7315 128.613 12.8693 128.349 12.983C128.085 13.0966 127.762 13.1534 127.382 13.1534ZM127.535 12.25C127.933 12.25 128.268 12.1719 128.541 12.0156C128.816 11.8594 129.024 11.6577 129.163 11.4105C129.305 11.1634 129.376 10.9034 129.376 10.6307V9.71023C129.333 9.76136 129.24 9.80824 129.095 9.85085C128.953 9.89062 128.788 9.92614 128.6 9.95739C128.416 9.9858 128.235 10.0114 128.059 10.0341C127.886 10.054 127.745 10.071 127.637 10.0852C127.376 10.1193 127.132 10.1747 126.904 10.2514C126.68 10.3253 126.498 10.4375 126.359 10.5881C126.223 10.7358 126.154 10.9375 126.154 11.1932C126.154 11.5426 126.284 11.8068 126.542 11.9858C126.804 12.1619 127.135 12.25 127.535 12.25ZM134.876 13.1364C134.263 13.1364 133.734 12.9915 133.291 12.7017C132.848 12.4119 132.507 12.0128 132.268 11.5043C132.03 10.9957 131.911 10.4148 131.911 9.76136C131.911 9.09659 132.033 8.50994 132.277 8.00142C132.524 7.49006 132.868 7.09091 133.308 6.80398C133.751 6.5142 134.268 6.36932 134.859 6.36932C135.32 6.36932 135.734 6.45455 136.104 6.625C136.473 6.79545 136.776 7.03409 137.011 7.34091C137.247 7.64773 137.393 8.00568 137.45 8.41477H136.445C136.368 8.11648 136.197 7.85227 135.933 7.62216C135.672 7.3892 135.32 7.27273 134.876 7.27273C134.484 7.27273 134.141 7.375 133.845 7.57955C133.553 7.78125 133.324 8.06676 133.159 8.43608C132.997 8.80256 132.916 9.23295 132.916 9.72727C132.916 10.233 132.996 10.6733 133.155 11.0483C133.317 11.4233 133.544 11.7145 133.837 11.9219C134.132 12.1293 134.479 12.233 134.876 12.233C135.138 12.233 135.375 12.1875 135.588 12.0966C135.801 12.0057 135.982 11.875 136.129 11.7045C136.277 11.5341 136.382 11.3295 136.445 11.0909H137.45C137.393 11.4773 137.253 11.8253 137.028 12.1349C136.807 12.4418 136.513 12.6861 136.146 12.8679C135.783 13.0469 135.359 13.1364 134.876 13.1364ZM143.301 9.26705V10.2045H139.688V9.26705H143.301ZM139.926 6.45455V13H138.92V6.45455H139.926ZM144.068 6.45455V13H143.062V6.45455H144.068ZM148.564 13.1364C147.973 13.1364 147.455 12.9957 147.009 12.7145C146.565 12.4332 146.219 12.0398 145.969 11.5341C145.722 11.0284 145.598 10.4375 145.598 9.76136C145.598 9.07955 145.722 8.48437 145.969 7.97585C146.219 7.46733 146.565 7.07244 147.009 6.79119C147.455 6.50994 147.973 6.36932 148.564 6.36932C149.155 6.36932 149.672 6.50994 150.115 6.79119C150.561 7.07244 150.908 7.46733 151.155 7.97585C151.405 8.48437 151.53 9.07955 151.53 9.76136C151.53 10.4375 151.405 11.0284 151.155 11.5341C150.908 12.0398 150.561 12.4332 150.115 12.7145C149.672 12.9957 149.155 13.1364 148.564 13.1364ZM148.564 12.233C149.013 12.233 149.382 12.1179 149.672 11.8878C149.962 11.6577 150.176 11.3551 150.315 10.9801C150.455 10.6051 150.524 10.1989 150.524 9.76136C150.524 9.32386 150.455 8.91619 150.315 8.53835C150.176 8.16051 149.962 7.85511 149.672 7.62216C149.382 7.3892 149.013 7.27273 148.564 7.27273C148.115 7.27273 147.746 7.3892 147.456 7.62216C147.166 7.85511 146.952 8.16051 146.812 8.53835C146.673 8.91619 146.604 9.32386 146.604 9.76136C146.604 10.1989 146.673 10.6051 146.812 10.9801C146.952 11.3551 147.166 11.6577 147.456 11.8878C147.746 12.1179 148.115 12.233 148.564 12.233ZM155.724 13.1364C155.11 13.1364 154.582 12.9915 154.139 12.7017C153.696 12.4119 153.355 12.0128 153.116 11.5043C152.877 10.9957 152.758 10.4148 152.758 9.76136C152.758 9.09659 152.88 8.50994 153.125 8.00142C153.372 7.49006 153.716 7.09091 154.156 6.80398C154.599 6.5142 155.116 6.36932 155.707 6.36932C156.167 6.36932 156.582 6.45455 156.951 6.625C157.321 6.79545 157.623 7.03409 157.859 7.34091C158.095 7.64773 158.241 8.00568 158.298 8.41477H157.292C157.216 8.11648 157.045 7.85227 156.781 7.62216C156.52 7.3892 156.167 7.27273 155.724 7.27273C155.332 7.27273 154.988 7.375 154.693 7.57955C154.4 7.78125 154.172 8.06676 154.007 8.43608C153.845 8.80256 153.764 9.23295 153.764 9.72727C153.764 10.233 153.843 10.6733 154.002 11.0483C154.164 11.4233 154.392 11.7145 154.684 11.9219C154.98 12.1293 155.326 12.233 155.724 12.233C155.985 12.233 156.223 12.1875 156.436 12.0966C156.649 12.0057 156.829 11.875 156.977 11.7045C157.125 11.5341 157.23 11.3295 157.292 11.0909H158.298C158.241 11.4773 158.1 11.8253 157.876 12.1349C157.654 12.4418 157.36 12.6861 156.994 12.8679C156.63 13.0469 156.207 13.1364 155.724 13.1364ZM159.252 7.39205V6.45455H164.571V7.39205H162.423V13H161.417V7.39205H159.252ZM166.907 8.82386H168.782C169.549 8.82386 170.136 9.01847 170.542 9.40767C170.948 9.79687 171.151 10.2898 171.151 10.8864C171.151 11.2784 171.06 11.6349 170.879 11.956C170.697 12.2741 170.43 12.5284 170.077 12.7188C169.725 12.9062 169.293 13 168.782 13H166.038V6.45455H167.043V12.0625H168.782C169.18 12.0625 169.506 11.9574 169.762 11.7472C170.018 11.5369 170.146 11.267 170.146 10.9375C170.146 10.5909 170.018 10.3082 169.762 10.0895C169.506 9.87074 169.18 9.76136 168.782 9.76136H166.907V8.82386ZM177.063 11.517L180.216 6.45455H181.375V13H180.37V7.9375L177.233 13H176.057V6.45455H177.063V11.517ZM190.973 9.26705V10.2045H187.359V9.26705H190.973ZM187.598 6.45455V13H186.592V6.45455H187.598ZM191.74 6.45455V13H190.734V6.45455H191.74ZM195.503 13.1534C195.088 13.1534 194.712 13.0753 194.374 12.919C194.036 12.7599 193.767 12.5312 193.568 12.233C193.369 11.9318 193.27 11.5682 193.27 11.142C193.27 10.767 193.344 10.4631 193.491 10.2301C193.639 9.99432 193.837 9.80966 194.084 9.67614C194.331 9.54261 194.604 9.44318 194.902 9.37784C195.203 9.30966 195.506 9.25568 195.81 9.21591C196.207 9.16477 196.53 9.12642 196.777 9.10085C197.027 9.07244 197.209 9.02557 197.322 8.96023C197.439 8.89489 197.497 8.78125 197.497 8.61932V8.58523C197.497 8.16477 197.382 7.83807 197.152 7.60511C196.925 7.37216 196.58 7.25568 196.116 7.25568C195.636 7.25568 195.26 7.3608 194.987 7.57102C194.714 7.78125 194.523 8.00568 194.412 8.24432L193.457 7.90341C193.628 7.50568 193.855 7.19602 194.139 6.97443C194.426 6.75 194.739 6.59375 195.077 6.50568C195.418 6.41477 195.753 6.36932 196.082 6.36932C196.293 6.36932 196.534 6.39489 196.807 6.44602C197.082 6.49432 197.348 6.59517 197.604 6.74858C197.862 6.90199 198.077 7.13352 198.247 7.44318C198.418 7.75284 198.503 8.16761 198.503 8.6875V13H197.497V12.1136H197.446C197.378 12.2557 197.264 12.4077 197.105 12.5696C196.946 12.7315 196.734 12.8693 196.47 12.983C196.206 13.0966 195.884 13.1534 195.503 13.1534ZM195.656 12.25C196.054 12.25 196.389 12.1719 196.662 12.0156C196.938 11.8594 197.145 11.6577 197.284 11.4105C197.426 11.1634 197.497 10.9034 197.497 10.6307V9.71023C197.455 9.76136 197.361 9.80824 197.216 9.85085C197.074 9.89062 196.909 9.92614 196.722 9.95739C196.537 9.9858 196.357 10.0114 196.18 10.0341C196.007 10.054 195.866 10.071 195.759 10.0852C195.497 10.1193 195.253 10.1747 195.026 10.2514C194.801 10.3253 194.619 10.4375 194.48 10.5881C194.344 10.7358 194.276 10.9375 194.276 11.1932C194.276 11.5426 194.405 11.8068 194.663 11.9858C194.925 12.1619 195.256 12.25 195.656 12.25ZM199.64 14.875V12.0625H200.185C200.319 11.9233 200.434 11.7727 200.53 11.6108C200.627 11.4489 200.711 11.2571 200.782 11.0355C200.855 10.8111 200.918 10.5384 200.969 10.2173C201.02 9.89347 201.066 9.50284 201.105 9.04545L201.327 6.45455H205.486V12.0625H206.492V14.875H205.486V13H200.645V14.875H199.64ZM201.327 12.0625H204.48V7.39205H202.265L202.094 9.04545C202.023 9.73011 201.935 10.3281 201.83 10.8395C201.725 11.3509 201.557 11.7585 201.327 12.0625ZM210.571 13.1364C209.94 13.1364 209.396 12.9972 208.939 12.7188C208.484 12.4375 208.134 12.0455 207.886 11.5426C207.642 11.0369 207.52 10.4489 207.52 9.77841C207.52 9.10795 207.642 8.51705 207.886 8.00568C208.134 7.49148 208.477 7.09091 208.918 6.80398C209.361 6.5142 209.878 6.36932 210.469 6.36932C210.81 6.36932 211.146 6.42614 211.479 6.53977C211.811 6.65341 212.114 6.83807 212.386 7.09375C212.659 7.34659 212.876 7.68182 213.038 8.09943C213.2 8.51705 213.281 9.03125 213.281 9.64205V10.0682H208.236V9.19886H212.259C212.259 8.82955 212.185 8.5 212.037 8.21023C211.892 7.92045 211.685 7.69176 211.415 7.52415C211.148 7.35653 210.832 7.27273 210.469 7.27273C210.068 7.27273 209.722 7.37216 209.429 7.57102C209.139 7.76705 208.916 8.02273 208.76 8.33807C208.604 8.65341 208.526 8.99148 208.526 9.35227V9.93182C208.526 10.4261 208.611 10.8452 208.781 11.1889C208.955 11.5298 209.195 11.7898 209.501 11.9688C209.808 12.1449 210.165 12.233 210.571 12.233C210.835 12.233 211.074 12.196 211.287 12.1222C211.503 12.0455 211.689 11.9318 211.845 11.7812C212.001 11.6278 212.122 11.4375 212.207 11.2102L213.179 11.483C213.077 11.8125 212.905 12.1023 212.663 12.3523C212.422 12.5994 212.124 12.7926 211.768 12.9318C211.413 13.0682 211.014 13.1364 210.571 13.1364ZM214.226 13L216.885 9.67614L214.26 6.45455H215.453L217.635 9.25H218.181V6.45455H219.186V9.25H219.715L221.897 6.45455H223.09L220.482 9.67614L223.124 13H221.914L219.698 10.1875H219.186V13H218.181V10.1875H217.669L215.436 13H214.226ZM228.942 9.26705V10.2045H225.328V9.26705H228.942ZM225.567 6.45455V13H224.561V6.45455H225.567ZM229.709 6.45455V13H228.703V6.45455H229.709ZM234.205 13.1364C233.614 13.1364 233.095 12.9957 232.649 12.7145C232.206 12.4332 231.859 12.0398 231.609 11.5341C231.362 11.0284 231.239 10.4375 231.239 9.76136C231.239 9.07955 231.362 8.48437 231.609 7.97585C231.859 7.46733 232.206 7.07244 232.649 6.79119C233.095 6.50994 233.614 6.36932 234.205 6.36932C234.795 6.36932 235.313 6.50994 235.756 6.79119C236.202 7.07244 236.548 7.46733 236.795 7.97585C237.045 8.48437 237.17 9.07955 237.17 9.76136C237.17 10.4375 237.045 11.0284 236.795 11.5341C236.548 12.0398 236.202 12.4332 235.756 12.7145C235.313 12.9957 234.795 13.1364 234.205 13.1364ZM234.205 12.233C234.653 12.233 235.023 12.1179 235.312 11.8878C235.602 11.6577 235.817 11.3551 235.956 10.9801C236.095 10.6051 236.165 10.1989 236.165 9.76136C236.165 9.32386 236.095 8.91619 235.956 8.53835C235.817 8.16051 235.602 7.85511 235.312 7.62216C235.023 7.3892 234.653 7.27273 234.205 7.27273C233.756 7.27273 233.386 7.3892 233.097 7.62216C232.807 7.85511 232.592 8.16051 232.453 8.53835C232.314 8.91619 232.244 9.32386 232.244 9.76136C232.244 10.1989 232.314 10.6051 232.453 10.9801C232.592 11.3551 232.807 11.6577 233.097 11.8878C233.386 12.1179 233.756 12.233 234.205 12.233ZM241.365 13.1364C240.751 13.1364 240.223 12.9915 239.779 12.7017C239.336 12.4119 238.995 12.0128 238.757 11.5043C238.518 10.9957 238.399 10.4148 238.399 9.76136C238.399 9.09659 238.521 8.50994 238.765 8.00142C239.012 7.49006 239.356 7.09091 239.797 6.80398C240.24 6.5142 240.757 6.36932 241.348 6.36932C241.808 6.36932 242.223 6.45455 242.592 6.625C242.961 6.79545 243.264 7.03409 243.5 7.34091C243.735 7.64773 243.882 8.00568 243.939 8.41477H242.933C242.856 8.11648 242.686 7.85227 242.422 7.62216C242.16 7.3892 241.808 7.27273 241.365 7.27273C240.973 7.27273 240.629 7.375 240.333 7.57955C240.041 7.78125 239.812 8.06676 239.647 8.43608C239.485 8.80256 239.404 9.23295 239.404 9.72727C239.404 10.233 239.484 10.6733 239.643 11.0483C239.805 11.4233 240.032 11.7145 240.325 11.9219C240.62 12.1293 240.967 12.233 241.365 12.233C241.626 12.233 241.863 12.1875 242.076 12.0966C242.289 12.0057 242.47 11.875 242.618 11.7045C242.765 11.5341 242.87 11.3295 242.933 11.0909H243.939C243.882 11.4773 243.741 11.8253 243.517 12.1349C243.295 12.4418 243.001 12.6861 242.635 12.8679C242.271 13.0469 241.848 13.1364 241.365 13.1364ZM244.893 7.39205V6.45455H250.211V7.39205H248.064V13H247.058V7.39205H244.893ZM252.548 8.82386H254.423C255.19 8.82386 255.776 9.01847 256.183 9.40767C256.589 9.79687 256.792 10.2898 256.792 10.8864C256.792 11.2784 256.701 11.6349 256.519 11.956C256.337 12.2741 256.07 12.5284 255.718 12.7188C255.366 12.9062 254.934 13 254.423 13H251.678V6.45455H252.684V12.0625H254.423C254.82 12.0625 255.147 11.9574 255.403 11.7472C255.658 11.5369 255.786 11.267 255.786 10.9375C255.786 10.5909 255.658 10.3082 255.403 10.0895C255.147 9.87074 254.82 9.76136 254.423 9.76136H252.548V8.82386ZM42.9205 28V21.4545H43.9261V24.3011H44.5909L46.9432 21.4545H48.2386L45.5966 24.608L48.2727 28H46.9773L44.8295 25.2386H43.9261V28H42.9205ZM49.3658 30.4545V21.4545H50.3374V22.4943H50.4567C50.5305 22.3807 50.6328 22.2358 50.7635 22.0597C50.897 21.8807 51.0874 21.7216 51.3345 21.5824C51.5845 21.4403 51.9226 21.3693 52.3487 21.3693C52.8999 21.3693 53.3857 21.5071 53.8061 21.7827C54.2266 22.0582 54.5547 22.4489 54.7905 22.9545C55.0263 23.4602 55.1442 24.0568 55.1442 24.7443C55.1442 25.4375 55.0263 26.0384 54.7905 26.5469C54.5547 27.0526 54.228 27.4446 53.8104 27.723C53.3928 27.9986 52.9112 28.1364 52.3658 28.1364C51.9453 28.1364 51.6087 28.0668 51.3558 27.9276C51.103 27.7855 50.9084 27.625 50.772 27.446C50.6357 27.2642 50.5305 27.1136 50.4567 26.9943H50.3714V30.4545H49.3658ZM50.3544 24.7273C50.3544 25.2216 50.4268 25.6577 50.5717 26.0355C50.7166 26.4105 50.9283 26.7045 51.2067 26.9176C51.4851 27.1278 51.826 27.233 52.2294 27.233C52.6499 27.233 53.0007 27.1222 53.282 26.9006C53.5661 26.6761 53.7791 26.375 53.9212 25.9972C54.0661 25.6165 54.1385 25.1932 54.1385 24.7273C54.1385 24.267 54.0675 23.8523 53.9254 23.483C53.7862 23.1108 53.5746 22.8168 53.2905 22.6009C53.0092 22.3821 52.6555 22.2727 52.2294 22.2727C51.8203 22.2727 51.4766 22.3764 51.1982 22.5838C50.9197 22.7884 50.7095 23.0753 50.5675 23.4446C50.4254 23.8111 50.3544 24.2386 50.3544 24.7273ZM57.6839 26.517L60.8374 21.4545H61.9964V28H60.9908V22.9375L57.8544 28H56.6783V21.4545H57.6839V26.517ZM62.9478 22.392V21.4545H68.266V22.392H66.1183V28H65.1126V22.392H62.9478ZM70.7386 26.517L73.892 21.4545H75.0511V28H74.0455V22.9375L70.9091 28H69.733V21.4545H70.7386V26.517ZM81.9386 21.4545V28H80.9329V21.4545H81.9386ZM81.5465 24.5739V25.5114C81.3192 25.5966 81.0934 25.6719 80.869 25.7372C80.6445 25.7997 80.4087 25.8494 80.1616 25.8864C79.9144 25.9205 79.6431 25.9375 79.3477 25.9375C78.6062 25.9375 78.011 25.7372 77.5621 25.3366C77.1161 24.9361 76.8931 24.3352 76.8931 23.5341V21.4375H77.8988V23.5341C77.8988 23.8693 77.9627 24.1449 78.0906 24.3608C78.2184 24.5767 78.3917 24.7372 78.6104 24.8423C78.8292 24.9474 79.0749 25 79.3477 25C79.7738 25 80.1587 24.9616 80.5025 24.8849C80.8491 24.8054 81.1971 24.7017 81.5465 24.5739ZM86.5281 28.1364C85.8974 28.1364 85.3533 27.9972 84.896 27.7188C84.4414 27.4375 84.0906 27.0455 83.8434 26.5426C83.5991 26.0369 83.4769 25.4489 83.4769 24.7784C83.4769 24.108 83.5991 23.517 83.8434 23.0057C84.0906 22.4915 84.4343 22.0909 84.8746 21.804C85.3178 21.5142 85.8349 21.3693 86.4258 21.3693C86.7667 21.3693 87.1033 21.4261 87.4357 21.5398C87.7681 21.6534 88.0707 21.8381 88.3434 22.0938C88.6161 22.3466 88.8335 22.6818 88.9954 23.0994C89.1573 23.517 89.2383 24.0312 89.2383 24.642V25.0682H84.1928V24.1989H88.2156C88.2156 23.8295 88.1417 23.5 87.994 23.2102C87.8491 22.9205 87.6417 22.6918 87.3718 22.5241C87.1048 22.3565 86.7894 22.2727 86.4258 22.2727C86.0252 22.2727 85.6786 22.3722 85.386 22.571C85.0962 22.767 84.8732 23.0227 84.717 23.3381C84.5607 23.6534 84.4826 23.9915 84.4826 24.3523V24.9318C84.4826 25.4261 84.5678 25.8452 84.7383 26.1889C84.9116 26.5298 85.1516 26.7898 85.4585 26.9688C85.7653 27.1449 86.1218 27.233 86.5281 27.233C86.7923 27.233 87.0309 27.196 87.244 27.1222C87.4599 27.0455 87.646 26.9318 87.8022 26.7812C87.9585 26.6278 88.0792 26.4375 88.1644 26.2102L89.136 26.483C89.0337 26.8125 88.8619 27.1023 88.6204 27.3523C88.3789 27.5994 88.0806 27.7926 87.7255 27.9318C87.3704 28.0682 86.9712 28.1364 86.5281 28.1364ZM93.4272 28.1364C92.8136 28.1364 92.2852 27.9915 91.842 27.7017C91.3988 27.4119 91.0579 27.0128 90.8192 26.5043C90.5806 25.9957 90.4613 25.4148 90.4613 24.7614C90.4613 24.0966 90.5835 23.5099 90.8278 23.0014C91.0749 22.4901 91.4187 22.0909 91.859 21.804C92.3022 21.5142 92.8192 21.3693 93.4102 21.3693C93.8704 21.3693 94.2852 21.4545 94.6545 21.625C95.0238 21.7955 95.3263 22.0341 95.5621 22.3409C95.7979 22.6477 95.9442 23.0057 96.0011 23.4148H94.9954C94.9187 23.1165 94.7482 22.8523 94.484 22.6222C94.2227 22.3892 93.8704 22.2727 93.4272 22.2727C93.0352 22.2727 92.6914 22.375 92.396 22.5795C92.1033 22.7812 91.8746 23.0668 91.7099 23.4361C91.5479 23.8026 91.467 24.233 91.467 24.7273C91.467 25.233 91.5465 25.6733 91.7056 26.0483C91.8675 26.4233 92.0948 26.7145 92.3874 26.9219C92.6829 27.1293 93.0295 27.233 93.4272 27.233C93.6886 27.233 93.9258 27.1875 94.1388 27.0966C94.3519 27.0057 94.5323 26.875 94.68 26.7045C94.8278 26.5341 94.9329 26.3295 94.9954 26.0909H96.0011C95.9442 26.4773 95.8036 26.8253 95.5792 27.1349C95.3576 27.4418 95.0636 27.6861 94.6971 27.8679C94.3335 28.0469 93.9102 28.1364 93.4272 28.1364ZM97.4712 28V21.4545H98.4769V24.3011H99.1417L101.494 21.4545H102.789L100.147 24.608L102.824 28H101.528L99.3803 25.2386H98.4769V28H97.4712ZM104.922 26.517L108.076 21.4545H109.235V28H108.229V22.9375L105.093 28H103.917V21.4545H104.922V26.517ZM111.827 21.4545L113.395 24.1307L114.963 21.4545H116.122L114.009 24.7273L116.122 28H114.963L113.395 25.4602L111.827 28H110.668L112.747 24.7273L110.668 21.4545H111.827ZM126.08 21.4545V27.0625H127V30.1136H125.995V28H120.932V21.4545H121.938V27.0625H125.074V21.4545H126.08ZM129.555 26.517L132.708 21.4545H133.868V28H132.862V22.9375L129.725 28H128.549V21.4545H129.555V26.517ZM138.369 30.233V19.2727H139.374V30.233H138.369ZM138.369 28.1364C137.925 28.1364 137.522 28.0568 137.158 27.8977C136.795 27.7358 136.482 27.5071 136.221 27.2116C135.96 26.9134 135.758 26.5568 135.616 26.142C135.474 25.7273 135.403 25.267 135.403 24.7614C135.403 24.25 135.474 23.7869 135.616 23.3722C135.758 22.9545 135.96 22.5966 136.221 22.2983C136.482 22 136.795 21.7713 137.158 21.6122C137.522 21.4503 137.925 21.3693 138.369 21.3693H138.675V28.1364H138.369ZM138.369 27.233H138.539V22.2727H138.369C138.033 22.2727 137.742 22.3409 137.495 22.4773C137.248 22.6108 137.043 22.794 136.881 23.027C136.722 23.2571 136.603 23.5213 136.523 23.8196C136.447 24.1179 136.408 24.4318 136.408 24.7614C136.408 25.1989 136.478 25.6051 136.617 25.9801C136.756 26.3551 136.971 26.6577 137.261 26.8878C137.55 27.1179 137.92 27.233 138.369 27.233ZM139.374 28.1364H139.067V21.3693H139.374C139.817 21.3693 140.221 21.4503 140.585 21.6122C140.948 21.7713 141.261 22 141.522 22.2983C141.783 22.5966 141.985 22.9545 142.127 23.3722C142.269 23.7869 142.34 24.25 142.34 24.7614C142.34 25.267 142.269 25.7273 142.127 26.142C141.985 26.5568 141.783 26.9134 141.522 27.2116C141.261 27.5071 140.948 27.7358 140.585 27.8977C140.221 28.0568 139.817 28.1364 139.374 28.1364ZM139.374 27.233C139.712 27.233 140.004 27.1676 140.248 27.0369C140.495 26.9034 140.698 26.7216 140.857 26.4915C141.019 26.2585 141.138 25.9943 141.215 25.6989C141.295 25.4006 141.335 25.0881 141.335 24.7614C141.335 24.3239 141.265 23.9162 141.126 23.5384C140.987 23.1605 140.772 22.8551 140.482 22.6222C140.192 22.3892 139.823 22.2727 139.374 22.2727H139.204V27.233H139.374ZM143.877 30.4545V21.4545H144.849V22.4943H144.968C145.042 22.3807 145.145 22.2358 145.275 22.0597C145.409 21.8807 145.599 21.7216 145.846 21.5824C146.096 21.4403 146.434 21.3693 146.86 21.3693C147.412 21.3693 147.897 21.5071 148.318 21.7827C148.738 22.0582 149.066 22.4489 149.302 22.9545C149.538 23.4602 149.656 24.0568 149.656 24.7443C149.656 25.4375 149.538 26.0384 149.302 26.5469C149.066 27.0526 148.74 27.4446 148.322 27.723C147.904 27.9986 147.423 28.1364 146.877 28.1364C146.457 28.1364 146.12 28.0668 145.868 27.9276C145.615 27.7855 145.42 27.625 145.284 27.446C145.147 27.2642 145.042 27.1136 144.968 26.9943H144.883V30.4545H143.877ZM144.866 24.7273C144.866 25.2216 144.939 25.6577 145.083 26.0355C145.228 26.4105 145.44 26.7045 145.718 26.9176C145.997 27.1278 146.338 27.233 146.741 27.233C147.162 27.233 147.512 27.1222 147.794 26.9006C148.078 26.6761 148.291 26.375 148.433 25.9972C148.578 25.6165 148.65 25.1932 148.65 24.7273C148.65 24.267 148.579 23.8523 148.437 23.483C148.298 23.1108 148.086 22.8168 147.802 22.6009C147.521 22.3821 147.167 22.2727 146.741 22.2727C146.332 22.2727 145.988 22.3764 145.71 22.5838C145.431 22.7884 145.221 23.0753 145.079 23.4446C144.937 23.8111 144.866 24.2386 144.866 24.7273ZM153.849 28.1364C153.258 28.1364 152.74 27.9957 152.294 27.7145C151.85 27.4332 151.504 27.0398 151.254 26.5341C151.007 26.0284 150.883 25.4375 150.883 24.7614C150.883 24.0795 151.007 23.4844 151.254 22.9759C151.504 22.4673 151.85 22.0724 152.294 21.7912C152.74 21.5099 153.258 21.3693 153.849 21.3693C154.44 21.3693 154.957 21.5099 155.4 21.7912C155.846 22.0724 156.193 22.4673 156.44 22.9759C156.69 23.4844 156.815 24.0795 156.815 24.7614C156.815 25.4375 156.69 26.0284 156.44 26.5341C156.193 27.0398 155.846 27.4332 155.4 27.7145C154.957 27.9957 154.44 28.1364 153.849 28.1364ZM153.849 27.233C154.298 27.233 154.667 27.1179 154.957 26.8878C155.247 26.6577 155.461 26.3551 155.6 25.9801C155.74 25.6051 155.809 25.1989 155.809 24.7614C155.809 24.3239 155.74 23.9162 155.6 23.5384C155.461 23.1605 155.247 22.8551 154.957 22.6222C154.667 22.3892 154.298 22.2727 153.849 22.2727C153.4 22.2727 153.031 22.3892 152.741 22.6222C152.451 22.8551 152.237 23.1605 152.098 23.5384C151.958 23.9162 151.889 24.3239 151.889 24.7614C151.889 25.1989 151.958 25.6051 152.098 25.9801C152.237 26.3551 152.451 26.6577 152.741 26.8878C153.031 27.1179 153.4 27.233 153.849 27.233ZM158.35 28V21.4545H161.026C161.731 21.4545 162.29 21.6136 162.705 21.9318C163.12 22.25 163.327 22.6705 163.327 23.1932C163.327 23.5909 163.21 23.8991 162.974 24.1179C162.738 24.3338 162.435 24.4801 162.066 24.5568C162.308 24.5909 162.542 24.6761 162.769 24.8125C162.999 24.9489 163.19 25.1364 163.34 25.375C163.491 25.6108 163.566 25.9006 163.566 26.2443C163.566 26.5795 163.481 26.8793 163.31 27.1435C163.14 27.4077 162.896 27.6165 162.577 27.7699C162.259 27.9233 161.879 28 161.435 28H158.35ZM159.305 27.0795H161.435C161.782 27.0795 162.053 26.9972 162.249 26.8324C162.445 26.6676 162.543 26.4432 162.543 26.1591C162.543 25.821 162.445 25.5554 162.249 25.3622C162.053 25.1662 161.782 25.0682 161.435 25.0682H159.305V27.0795ZM159.305 24.1989H161.026C161.296 24.1989 161.528 24.1619 161.721 24.0881C161.914 24.0114 162.062 23.9034 162.164 23.7642C162.269 23.6222 162.322 23.4545 162.322 23.2614C162.322 22.9858 162.207 22.7699 161.977 22.6136C161.746 22.4545 161.43 22.375 161.026 22.375H159.305V24.1989ZM165.958 23.8239H167.833C168.6 23.8239 169.186 24.0185 169.593 24.4077C169.999 24.7969 170.202 25.2898 170.202 25.8864C170.202 26.2784 170.111 26.6349 169.929 26.956C169.748 27.2741 169.48 27.5284 169.128 27.7188C168.776 27.9062 168.344 28 167.833 28H165.088V21.4545H166.094V27.0625H167.833C168.23 27.0625 168.557 26.9574 168.813 26.7472C169.069 26.5369 169.196 26.267 169.196 25.9375C169.196 25.5909 169.069 25.3082 168.813 25.0895C168.557 24.8707 168.23 24.7614 167.833 24.7614H165.958V23.8239ZM171.242 28V21.4545H172.248V28H171.242ZM174.838 21.4545L176.407 24.1307L177.975 21.4545H179.134L177.02 24.7273L179.134 28H177.975L176.407 25.4602L174.838 28H173.679L175.759 24.7273L173.679 21.4545H174.838ZM183.569 22.392V21.4545H188.887V22.392H186.739V28H185.734V22.392H183.569ZM192.759 28.1364C192.128 28.1364 191.584 27.9972 191.126 27.7188C190.672 27.4375 190.321 27.0455 190.074 26.5426C189.83 26.0369 189.707 25.4489 189.707 24.7784C189.707 24.108 189.83 23.517 190.074 23.0057C190.321 22.4915 190.665 22.0909 191.105 21.804C191.548 21.5142 192.065 21.3693 192.656 21.3693C192.997 21.3693 193.334 21.4261 193.666 21.5398C193.999 21.6534 194.301 21.8381 194.574 22.0938C194.847 22.3466 195.064 22.6818 195.226 23.0994C195.388 23.517 195.469 24.0312 195.469 24.642V25.0682H190.423V24.1989H194.446C194.446 23.8295 194.372 23.5 194.224 23.2102C194.08 22.9205 193.872 22.6918 193.602 22.5241C193.335 22.3565 193.02 22.2727 192.656 22.2727C192.256 22.2727 191.909 22.3722 191.616 22.571C191.327 22.767 191.104 23.0227 190.947 23.3381C190.791 23.6534 190.713 23.9915 190.713 24.3523V24.9318C190.713 25.4261 190.798 25.8452 190.969 26.1889C191.142 26.5298 191.382 26.7898 191.689 26.9688C191.996 27.1449 192.352 27.233 192.759 27.233C193.023 27.233 193.261 27.196 193.474 27.1222C193.69 27.0455 193.876 26.9318 194.033 26.7812C194.189 26.6278 194.31 26.4375 194.395 26.2102L195.366 26.483C195.264 26.8125 195.092 27.1023 194.851 27.3523C194.609 27.5994 194.311 27.7926 193.956 27.9318C193.601 28.0682 193.202 28.1364 192.759 28.1364ZM197.573 21.4545L199.141 24.1307L200.709 21.4545H201.868L199.755 24.7273L201.868 28H200.709L199.141 25.4602L197.573 28H196.414L198.493 24.7273L196.414 21.4545H197.573ZM207.684 24.267V25.2045H204.07V24.267H207.684ZM204.309 21.4545V28H203.303V21.4545H204.309ZM208.451 21.4545V28H207.445V21.4545H208.451ZM212.947 28.1364C212.356 28.1364 211.837 27.9957 211.391 27.7145C210.948 27.4332 210.602 27.0398 210.352 26.5341C210.104 26.0284 209.981 25.4375 209.981 24.7614C209.981 24.0795 210.104 23.4844 210.352 22.9759C210.602 22.4673 210.948 22.0724 211.391 21.7912C211.837 21.5099 212.356 21.3693 212.947 21.3693C213.538 21.3693 214.055 21.5099 214.498 21.7912C214.944 22.0724 215.29 22.4673 215.538 22.9759C215.788 23.4844 215.913 24.0795 215.913 24.7614C215.913 25.4375 215.788 26.0284 215.538 26.5341C215.29 27.0398 214.944 27.4332 214.498 27.7145C214.055 27.9957 213.538 28.1364 212.947 28.1364ZM212.947 27.233C213.396 27.233 213.765 27.1179 214.055 26.8878C214.344 26.6577 214.559 26.3551 214.698 25.9801C214.837 25.6051 214.907 25.1989 214.907 24.7614C214.907 24.3239 214.837 23.9162 214.698 23.5384C214.559 23.1605 214.344 22.8551 214.055 22.6222C213.765 22.3892 213.396 22.2727 212.947 22.2727C212.498 22.2727 212.129 22.3892 211.839 22.6222C211.549 22.8551 211.335 23.1605 211.195 23.5384C211.056 23.9162 210.987 24.3239 210.987 24.7614C210.987 25.1989 211.056 25.6051 211.195 25.9801C211.335 26.3551 211.549 26.6577 211.839 26.8878C212.129 27.1179 212.498 27.233 212.947 27.233ZM216.868 28V27.0625H217.107C217.303 27.0625 217.466 27.0241 217.597 26.9474C217.728 26.8679 217.833 26.7301 217.912 26.5341C217.995 26.3352 218.057 26.0597 218.1 25.7074C218.145 25.3523 218.178 24.9006 218.198 24.3523L218.317 21.4545H222.681V28H221.675V22.392H219.272L219.169 24.7273C219.147 25.2642 219.098 25.7372 219.025 26.1463C218.953 26.5526 218.844 26.8935 218.696 27.169C218.551 27.4446 218.358 27.652 218.117 27.7912C217.875 27.9304 217.573 28 217.209 28H216.868ZM227.185 28.1364C226.594 28.1364 226.076 27.9957 225.63 27.7145C225.186 27.4332 224.84 27.0398 224.59 26.5341C224.343 26.0284 224.219 25.4375 224.219 24.7614C224.219 24.0795 224.343 23.4844 224.59 22.9759C224.84 22.4673 225.186 22.0724 225.63 21.7912C226.076 21.5099 226.594 21.3693 227.185 21.3693C227.776 21.3693 228.293 21.5099 228.736 21.7912C229.182 22.0724 229.529 22.4673 229.776 22.9759C230.026 23.4844 230.151 24.0795 230.151 24.7614C230.151 25.4375 230.026 26.0284 229.776 26.5341C229.529 27.0398 229.182 27.4332 228.736 27.7145C228.293 27.9957 227.776 28.1364 227.185 28.1364ZM227.185 27.233C227.634 27.233 228.003 27.1179 228.293 26.8878C228.583 26.6577 228.797 26.3551 228.936 25.9801C229.076 25.6051 229.145 25.1989 229.145 24.7614C229.145 24.3239 229.076 23.9162 228.936 23.5384C228.797 23.1605 228.583 22.8551 228.293 22.6222C228.003 22.3892 227.634 22.2727 227.185 22.2727C226.736 22.2727 226.367 22.3892 226.077 22.6222C225.787 22.8551 225.573 23.1605 225.434 23.5384C225.294 23.9162 225.225 24.3239 225.225 24.7614C225.225 25.1989 225.294 25.6051 225.434 25.9801C225.573 26.3551 225.787 26.6577 226.077 26.8878C226.367 27.1179 226.736 27.233 227.185 27.233ZM235.726 21.4545V22.392H232.692V28H231.686V21.4545H235.726ZM238.2 26.517L241.353 21.4545H242.512V28H241.506V22.9375L238.37 28H237.194V21.4545H238.2V26.517ZM245.36 26.517L248.513 21.4545H249.672V28H248.667V22.9375L245.53 28H244.354V21.4545H245.36V26.517ZM247.848 19.2727H248.786C248.786 19.733 248.627 20.1094 248.309 20.402C247.99 20.6946 247.559 20.8409 247.013 20.8409C246.476 20.8409 246.049 20.6946 245.73 20.402C245.415 20.1094 245.257 19.733 245.257 19.2727H246.195C246.195 19.4943 246.256 19.6889 246.378 19.8565C246.503 20.0241 246.715 20.108 247.013 20.108C247.311 20.108 247.525 20.0241 247.652 19.8565C247.783 19.6889 247.848 19.4943 247.848 19.2727ZM251.395 27.0625L253.031 24.4205H254.003V24.5057L252.281 27.0625H251.395ZM251.395 21.8295H252.281L254.003 24.3864V24.4716H253.031L251.395 21.8295ZM253.577 27.0625L255.213 24.4205H256.185V24.5057L254.463 27.0625H253.577ZM253.577 21.8295H254.463L256.185 24.3864V24.4716H255.213L253.577 21.8295Z" fill="#21222E"/>
<g clip-path="url(#clip1_801_6869)">
<path d="M29.04 12.7877C27.28 12.7877 25.85 13.9977 25.41 15.5927H19.03C18.645 14.9327 17.93 14.4927 17.16 14.4927C16.335 14.4927 15.62 14.9327 15.29 15.5927H7.64497C7.58997 15.3177 7.47997 15.0977 7.36997 14.8227L14.465 8.27766C15.235 8.82766 16.17 9.15766 17.215 9.15766C19.745 9.15766 21.835 7.06766 21.835 4.53766C21.835 2.00766 19.69 -0.0273438 17.16 -0.0273438C14.63 -0.0273438 12.54 2.06266 12.54 4.59266C12.54 5.41766 12.76 6.18766 13.145 6.84766L6.04997 13.3927C5.44497 13.0077 4.72997 12.7327 3.95997 12.7327C1.86997 12.7327 0.219971 14.4377 0.219971 16.4727C0.219971 18.6177 1.92497 20.3227 3.95997 20.3227C5.71997 20.3227 7.14997 19.1127 7.58997 17.5177H15.125C15.455 18.2877 16.225 18.8377 17.105 18.8377C17.985 18.8377 18.755 18.2877 19.085 17.5177H25.3C25.41 17.8477 25.52 18.1777 25.685 18.4527L19.25 24.6127C18.48 24.1177 17.6 23.7877 16.61 23.7877C14.08 23.7877 11.99 25.8777 11.99 28.4077C11.99 30.9377 14.08 33.0277 16.61 33.0277C19.14 33.0277 21.23 30.9377 21.23 28.4077C21.23 27.5277 20.955 26.7027 20.57 26.0427L27.17 19.7727C27.72 20.1027 28.38 20.2677 29.04 20.2677C31.13 20.2677 32.78 18.5627 32.78 16.5277C32.78 14.4927 31.075 12.7877 29.04 12.7877ZM17.16 1.89766C18.645 1.89766 19.855 3.10766 19.855 4.59266C19.855 6.07766 18.645 7.28766 17.16 7.28766C15.675 7.28766 14.465 6.07766 14.465 4.59266C14.465 3.10766 15.675 1.89766 17.16 1.89766ZM3.95997 18.3977C2.91497 18.3977 2.08997 17.5727 2.08997 16.5277C2.08997 15.4827 2.91497 14.6577 3.95997 14.6577C5.00497 14.6577 5.82997 15.4827 5.82997 16.5277C5.82997 17.5727 5.00497 18.3977 3.95997 18.3977ZM17.16 16.9127C16.995 16.9127 16.885 16.8027 16.885 16.6377C16.885 16.4727 16.995 16.3627 17.16 16.3627C17.325 16.3627 17.435 16.4727 17.435 16.6377C17.435 16.8027 17.325 16.9127 17.16 16.9127ZM16.665 31.0477C15.18 31.0477 13.97 29.8377 13.97 28.3527C13.97 26.8677 15.18 25.6577 16.665 25.6577C18.15 25.6577 19.36 26.8677 19.36 28.3527C19.36 29.8377 18.15 31.0477 16.665 31.0477ZM29.04 18.3977C28.05 18.3977 27.17 17.5727 27.17 16.5277C27.17 15.5377 27.995 14.6577 29.04 14.6577C30.085 14.6577 30.91 15.4827 30.91 16.5277C30.855 17.5727 30.03 18.3977 29.04 18.3977Z" fill="#21222E"/>
</g>
</g>
<defs>
<clipPath id="clip0_801_6869">
<rect width="258" height="33" fill="white"/>
</clipPath>
<clipPath id="clip1_801_6869">
<rect width="33" height="33" fill="white"/>
</clipPath>
</defs>
</svg>
