<svg width="72" height="72" viewBox="0 0 72 72" fill="none" xmlns="http://www.w3.org/2000/svg">
<rect width="72" height="72" rx="36" fill="white"/>
<path d="M21.75 41.5416L24.9167 41.5417" stroke="#21222E" stroke-width="2" stroke-linecap="round" stroke-linejoin="round"/>
<path d="M21.7505 35.9994L24.9169 35.9999" stroke="#21222E" stroke-width="2" stroke-linecap="round" stroke-linejoin="round"/>
<path d="M21.7505 30.4584L24.9166 30.4585" stroke="#21222E" stroke-width="2" stroke-linecap="round" stroke-linejoin="round"/>
<path d="M50.2502 30.4585L47.0835 30.4584" stroke="#21222E" stroke-width="2" stroke-linecap="round" stroke-linejoin="round"/>
<path d="M50.2499 36.0007L47.0835 36.0001" stroke="#21222E" stroke-width="2" stroke-linecap="round" stroke-linejoin="round"/>
<path d="M50.2496 41.5417L47.0835 41.5416" stroke="#21222E" stroke-width="2" stroke-linecap="round" stroke-linejoin="round"/>
<path d="M30.4582 21.75L30.4581 24.9167" stroke="#21222E" stroke-width="2" stroke-linecap="round" stroke-linejoin="round"/>
<path d="M36.0009 21.7502L36.0004 24.9166" stroke="#21222E" stroke-width="2" stroke-linecap="round" stroke-linejoin="round"/>
<path d="M41.5417 21.7505L41.5416 24.9166" stroke="#21222E" stroke-width="2" stroke-linecap="round" stroke-linejoin="round"/>
<path d="M41.5416 50.2499L41.5417 47.0833" stroke="#21222E" stroke-width="2" stroke-linecap="round" stroke-linejoin="round"/>
<path d="M35.9994 50.2496L35.9999 47.0833" stroke="#21222E" stroke-width="2" stroke-linecap="round" stroke-linejoin="round"/>
<path d="M30.4581 50.2493L30.4582 47.0833" stroke="#21222E" stroke-width="2" stroke-linecap="round" stroke-linejoin="round"/>
<path fill-rule="evenodd" clip-rule="evenodd" d="M40.7498 47.0834H31.2498C27.752 47.0834 24.9165 44.2479 24.9165 40.7501L24.9165 31.2501C24.9165 27.7523 27.752 24.9167 31.2498 24.9167L40.7498 24.9167C44.2476 24.9167 47.0832 27.7523 47.0832 31.2501V40.7501C47.0832 44.2479 44.2476 47.0834 40.7498 47.0834Z" stroke="#21222E" stroke-width="2" stroke-linecap="round" stroke-linejoin="round"/>
<path d="M30.8257 38.185H36.4375" stroke="#21222E" stroke-width="2" stroke-linecap="round" stroke-linejoin="round"/>
<path d="M36.9183 39.6417L34.5591 32.3584H32.7224L30.3633 39.6417" stroke="#21222E" stroke-width="2" stroke-linecap="round" stroke-linejoin="round"/>
<path d="M40.924 39.6417V32.3584" stroke="#21222E" stroke-width="2" stroke-linecap="round" stroke-linejoin="round"/>
</svg>
