<svg width="38" height="38" viewBox="0 0 38 38" fill="none" xmlns="http://www.w3.org/2000/svg">
<path d="M4.75 24.5416L7.91667 24.5417" stroke="#21222E" stroke-width="2" stroke-linecap="round" stroke-linejoin="round"/>
<path d="M4.75049 18.9994L7.91687 18.9999" stroke="#21222E" stroke-width="2" stroke-linecap="round" stroke-linejoin="round"/>
<path d="M4.75049 13.4584L7.91659 13.4585" stroke="#21222E" stroke-width="2" stroke-linecap="round" stroke-linejoin="round"/>
<path d="M33.2502 13.4585L30.0835 13.4584" stroke="#21222E" stroke-width="2" stroke-linecap="round" stroke-linejoin="round"/>
<path d="M33.2499 19.0007L30.0835 19.0001" stroke="#21222E" stroke-width="2" stroke-linecap="round" stroke-linejoin="round"/>
<path d="M33.2496 24.5417L30.0835 24.5416" stroke="#21222E" stroke-width="2" stroke-linecap="round" stroke-linejoin="round"/>
<path d="M13.4582 4.75L13.4581 7.91667" stroke="#21222E" stroke-width="2" stroke-linecap="round" stroke-linejoin="round"/>
<path d="M19.0009 4.75024L19.0004 7.91663" stroke="#21222E" stroke-width="2" stroke-linecap="round" stroke-linejoin="round"/>
<path d="M24.5417 4.75049L24.5416 7.91659" stroke="#21222E" stroke-width="2" stroke-linecap="round" stroke-linejoin="round"/>
<path d="M24.5416 33.2499L24.5417 30.0833" stroke="#21222E" stroke-width="2" stroke-linecap="round" stroke-linejoin="round"/>
<path d="M18.9994 33.2496L18.9999 30.0833" stroke="#21222E" stroke-width="2" stroke-linecap="round" stroke-linejoin="round"/>
<path d="M13.4581 33.2493L13.4582 30.0833" stroke="#21222E" stroke-width="2" stroke-linecap="round" stroke-linejoin="round"/>
<path fill-rule="evenodd" clip-rule="evenodd" d="M23.7498 30.0834L14.2498 30.0834C10.752 30.0834 7.9165 27.2479 7.9165 23.7501L7.9165 14.2501C7.9165 10.7523 10.752 7.91675 14.2498 7.91675L23.7498 7.91675C27.2476 7.91675 30.0832 10.7523 30.0832 14.2501L30.0832 23.7501C30.0832 27.2479 27.2476 30.0834 23.7498 30.0834Z" stroke="#21222E" stroke-width="2" stroke-linecap="round" stroke-linejoin="round"/>
<path d="M13.8257 21.185H19.4375" stroke="#21222E" stroke-width="2" stroke-linecap="round" stroke-linejoin="round"/>
<path d="M19.9183 22.6417L17.5591 15.3584H15.7224L13.3633 22.6417" stroke="#21222E" stroke-width="2" stroke-linecap="round" stroke-linejoin="round"/>
<path d="M23.924 22.6417V15.3584" stroke="#21222E" stroke-width="2" stroke-linecap="round" stroke-linejoin="round"/>
</svg>
