<svg width="38" height="38" viewBox="0 0 38 38" fill="none" xmlns="http://www.w3.org/2000/svg">
<path d="M4.74414 16.5162V12.9443C4.74384 11.7933 5.36783 10.7327 6.37407 10.1739L9.49612 8.43945" stroke="#21222E" stroke-width="2.25" stroke-linecap="round" stroke-linejoin="round"/>
<path d="M33.2559 21.4836V25.0555C33.2556 26.206 32.6317 27.2658 31.626 27.8244L28.5039 29.5604" stroke="#21222E" stroke-width="2.25" stroke-linecap="round" stroke-linejoin="round"/>
<path d="M14.8438 16.6968L19.0001 18.9999L23.1565 16.6968" stroke="#21222E" stroke-width="2.25" stroke-linecap="round" stroke-linejoin="round"/>
<path d="M19 19V23.752" stroke="#21222E" stroke-width="2.25" stroke-linecap="round" stroke-linejoin="round"/>
<path d="M33.2559 16.5162V12.9443C33.2556 11.7939 32.6317 10.734 31.626 10.1755L28.5039 8.43945" stroke="#21222E" stroke-width="2.25" stroke-linecap="round" stroke-linejoin="round"/>
<path d="M4.74414 21.4836V25.0555C4.74441 26.206 5.36833 27.2658 6.37407 27.8244L9.49612 29.5604" stroke="#21222E" stroke-width="2.25" stroke-linecap="round" stroke-linejoin="round"/>
<path d="M23.752 32.1995L20.5381 33.9846C19.5811 34.5164 18.4174 34.5164 17.4604 33.9846L14.248 32.1995" stroke="#21222E" stroke-width="2.25" stroke-linecap="round" stroke-linejoin="round"/>
<path d="M14.248 5.80047L17.462 4.01531C18.4189 3.4835 19.5827 3.4835 20.5397 4.01531L23.752 5.80047" stroke="#21222E" stroke-width="2.25" stroke-linecap="round" stroke-linejoin="round"/>
</svg>
