<svg width="72" height="72" viewBox="0 0 72 72" fill="none" xmlns="http://www.w3.org/2000/svg">
<rect width="72" height="72" rx="36" fill="white"/>
<path d="M21.7441 33.5162V29.9443C21.7438 28.7933 22.3678 27.7327 23.3741 27.1739L26.4961 25.4395" stroke="#21222E" stroke-width="2.25" stroke-linecap="round" stroke-linejoin="round"/>
<path d="M50.2559 38.4836V42.0555C50.2556 43.206 49.6317 44.2658 48.626 44.8244L45.5039 46.5604" stroke="#21222E" stroke-width="2.25" stroke-linecap="round" stroke-linejoin="round"/>
<path d="M31.8438 33.6968L36.0001 35.9999L40.1565 33.6968" stroke="#21222E" stroke-width="2.25" stroke-linecap="round" stroke-linejoin="round"/>
<path d="M36 36V40.752" stroke="#21222E" stroke-width="2.25" stroke-linecap="round" stroke-linejoin="round"/>
<path d="M50.2559 33.5162V29.9443C50.2556 28.7939 49.6317 27.734 48.626 27.1755L45.5039 25.4395" stroke="#21222E" stroke-width="2.25" stroke-linecap="round" stroke-linejoin="round"/>
<path d="M21.7441 38.4836V42.0555C21.7444 43.206 22.3683 44.2658 23.3741 44.8244L26.4961 46.5604" stroke="#21222E" stroke-width="2.25" stroke-linecap="round" stroke-linejoin="round"/>
<path d="M40.752 49.1995L37.5381 50.9846C36.5811 51.5164 35.4174 51.5164 34.4604 50.9846L31.248 49.1995" stroke="#21222E" stroke-width="2.25" stroke-linecap="round" stroke-linejoin="round"/>
<path d="M31.248 22.8005L34.462 21.0153C35.4189 20.4835 36.5827 20.4835 37.5397 21.0153L40.752 22.8005" stroke="#21222E" stroke-width="2.25" stroke-linecap="round" stroke-linejoin="round"/>
</svg>
