<svg width="38" height="38" viewBox="0 0 38 38" fill="none" xmlns="http://www.w3.org/2000/svg">
<path d="M10.2485 27.7119V29.2959" stroke="#21222E" stroke-width="2" stroke-linecap="round" stroke-linejoin="round"/>
<path d="M15.0005 27.7119V29.2959" stroke="#21222E" stroke-width="2" stroke-linecap="round" stroke-linejoin="round"/>
<path d="M20.584 28.5039H28.504" stroke="#21222E" stroke-width="2" stroke-linecap="round" stroke-linejoin="round"/>
<rect x="4.74414" y="23.752" width="28.5119" height="9.50396" rx="1.5" stroke="#21222E" stroke-width="2" stroke-linecap="round" stroke-linejoin="round"/>
<path fill-rule="evenodd" clip-rule="evenodd" d="M12.5787 7.76691C9.63262 8.16242 7.49884 10.7759 7.70071 13.7415C7.90258 16.7071 10.3708 19.0074 13.3433 19H25.7861C27.4032 19 28.8975 18.1373 29.706 16.7368C30.5146 15.3363 30.5146 13.6109 29.706 12.2104C28.8975 10.81 27.4032 9.94724 25.7861 9.94724C25.7881 6.62591 23.3849 3.7916 20.1079 3.25063C16.8309 2.70965 13.6442 4.62114 12.5787 7.76691Z" stroke="#21222E" stroke-width="2" stroke-linecap="round" stroke-linejoin="round"/>
</svg>
