<svg width="72" height="72" viewBox="0 0 72 72" fill="none" xmlns="http://www.w3.org/2000/svg">
<rect width="72" height="72" rx="36" fill="white"/>
<path d="M27.2485 44.7119V46.2959" stroke="#21222E" stroke-width="2" stroke-linecap="round" stroke-linejoin="round"/>
<path d="M32.0005 44.7119V46.2959" stroke="#21222E" stroke-width="2" stroke-linecap="round" stroke-linejoin="round"/>
<path d="M37.584 45.5039H45.504" stroke="#21222E" stroke-width="2" stroke-linecap="round" stroke-linejoin="round"/>
<rect x="21.7441" y="40.752" width="28.5119" height="9.50396" rx="1.5" stroke="#21222E" stroke-width="2" stroke-linecap="round" stroke-linejoin="round"/>
<path fill-rule="evenodd" clip-rule="evenodd" d="M29.5787 24.7669C26.6326 25.1624 24.4988 27.7759 24.7007 30.7415C24.9026 33.7071 27.3708 36.0074 30.3433 36H42.7861C44.4032 36 45.8975 35.1373 46.706 33.7368C47.5146 32.3363 47.5146 30.6109 46.706 29.2104C45.8975 27.81 44.4032 26.9472 42.7861 26.9472C42.7881 23.6259 40.3849 20.7916 37.1079 20.2506C33.8309 19.7097 30.6442 21.6211 29.5787 24.7669Z" stroke="#21222E" stroke-width="2" stroke-linecap="round" stroke-linejoin="round"/>
</svg>
