<svg width="72" height="72" viewBox="0 0 72 72" fill="none" xmlns="http://www.w3.org/2000/svg">
<rect width="72" height="72" rx="36" fill="white"/>
<path d="M31.1362 42.3333L30.3446 48.6666" stroke="#21222E" stroke-width="2" stroke-linecap="round" stroke-linejoin="round"/>
<path d="M48.6667 31.25V25.5943C48.6667 23.4712 46.9455 21.75 44.8223 21.75L25.5943 21.75C23.4712 21.75 21.75 23.4712 21.75 25.5943L21.75 38.489C21.75 40.6122 23.4712 42.3333 25.5943 42.3333H36" stroke="#21222E" stroke-width="2" stroke-linecap="round" stroke-linejoin="round"/>
<path d="M27.9692 48.6667H35.9999" stroke="#21222E" stroke-width="2" stroke-linecap="round" stroke-linejoin="round"/>
<rect x="40.75" y="42.3333" width="11.0833" height="7.91667" rx="1.5" stroke="#21222E" stroke-width="2" stroke-linecap="round" stroke-linejoin="round"/>
<path d="M43.125 42.3334V39.9584C43.125 38.2095 44.5428 36.7917 46.2917 36.7917V36.7917C48.0406 36.7917 49.4583 38.2095 49.4583 39.9584V39.9584V42.3334" stroke="#21222E" stroke-width="2" stroke-linecap="round" stroke-linejoin="round"/>
<path d="M36 35.2084H39.1667" stroke="#21222E" stroke-width="2" stroke-linecap="round" stroke-linejoin="round"/>
<path d="M29.1069 35.7626L31.2226 33.8625" stroke="#21222E" stroke-width="2" stroke-linecap="round" stroke-linejoin="round"/>
<path d="M28.0562 34.8183L29.1072 35.7626" stroke="#21222E" stroke-width="2" stroke-linecap="round" stroke-linejoin="round"/>
<path d="M36 28.8749H42.3333" stroke="#21222E" stroke-width="2" stroke-linecap="round" stroke-linejoin="round"/>
<path d="M29.1069 29.4291L31.2226 27.5291" stroke="#21222E" stroke-width="2" stroke-linecap="round" stroke-linejoin="round"/>
<path d="M28.0562 28.4848L29.1072 29.4291" stroke="#21222E" stroke-width="2" stroke-linecap="round" stroke-linejoin="round"/>
</svg>
