<svg width="38" height="38" viewBox="0 0 38 38" fill="none" xmlns="http://www.w3.org/2000/svg">
<path d="M14.1362 25.3333L13.3446 31.6666" stroke="#21222E" stroke-width="2" stroke-linecap="round" stroke-linejoin="round"/>
<path d="M31.6667 14.25V8.59433C31.6667 6.47117 29.9455 4.75 27.8223 4.75L8.59433 4.75C6.47117 4.75 4.75 6.47117 4.75 8.59433L4.75 21.489C4.75 23.6122 6.47117 25.3333 8.59433 25.3333H19" stroke="#21222E" stroke-width="2" stroke-linecap="round" stroke-linejoin="round"/>
<path d="M10.9692 31.6667H18.9999" stroke="#21222E" stroke-width="2" stroke-linecap="round" stroke-linejoin="round"/>
<rect x="23.75" y="25.3333" width="11.0833" height="7.91667" rx="1.5" stroke="#21222E" stroke-width="2" stroke-linecap="round" stroke-linejoin="round"/>
<path d="M26.125 25.3334V22.9584C26.125 21.2095 27.5428 19.7917 29.2917 19.7917V19.7917C31.0406 19.7917 32.4583 21.2095 32.4583 22.9584V22.9584V25.3334" stroke="#21222E" stroke-width="2" stroke-linecap="round" stroke-linejoin="round"/>
<path d="M19 18.2084H22.1667" stroke="#21222E" stroke-width="2" stroke-linecap="round" stroke-linejoin="round"/>
<path d="M12.1069 18.7626L14.2226 16.8625" stroke="#21222E" stroke-width="2" stroke-linecap="round" stroke-linejoin="round"/>
<path d="M11.0562 17.8183L12.1072 18.7626" stroke="#21222E" stroke-width="2" stroke-linecap="round" stroke-linejoin="round"/>
<path d="M19 11.8749H25.3333" stroke="#21222E" stroke-width="2" stroke-linecap="round" stroke-linejoin="round"/>
<path d="M12.1069 12.4291L14.2226 10.5291" stroke="#21222E" stroke-width="2" stroke-linecap="round" stroke-linejoin="round"/>
<path d="M11.0562 11.4848L12.1072 12.4291" stroke="#21222E" stroke-width="2" stroke-linecap="round" stroke-linejoin="round"/>
</svg>
