<svg width="250" height="28" viewBox="0 0 250 28" fill="none" xmlns="http://www.w3.org/2000/svg">
<path d="M6.95436 18.8601C7.75138 18.8601 8.3975 18.2041 8.3975 17.3949C8.3975 16.5857 7.75138 15.9297 6.95436 15.9297C6.15734 15.9297 5.51123 16.5857 5.51123 17.3949C5.51123 18.2041 6.15734 18.8601 6.95436 18.8601Z" fill="#21222E"/>
<path d="M13.1203 10.2003C14.3158 10.2003 15.285 9.2163 15.285 8.00249C15.285 6.78867 14.3158 5.80469 13.1203 5.80469C11.9247 5.80469 10.9556 6.78867 10.9556 8.00249C10.9556 9.2163 11.9247 10.2003 13.1203 10.2003Z" fill="#21222E"/>
<path d="M19.2819 13.3331C20.4774 13.3331 21.4466 12.3491 21.4466 11.1353C21.4466 9.92149 20.4774 8.9375 19.2819 8.9375C18.0864 8.9375 17.1172 9.92149 17.1172 11.1353C17.1172 12.3491 18.0864 13.3331 19.2819 13.3331Z" fill="#21222E"/>
<path d="M25.386 16.462C26.5815 16.462 27.5507 15.478 27.5507 14.2642C27.5507 13.0504 26.5815 12.0664 25.386 12.0664C24.1905 12.0664 23.2213 13.0504 23.2213 14.2642C23.2213 15.478 24.1905 16.462 25.386 16.462Z" fill="#21222E"/>
<path d="M19.282 19.5948C20.4775 19.5948 21.4467 18.6108 21.4467 17.397C21.4467 16.1832 20.4775 15.1992 19.282 15.1992C18.0865 15.1992 17.1173 16.1832 17.1173 17.397C17.1173 18.6108 18.0865 19.5948 19.282 19.5948Z" fill="#21222E"/>
<path d="M31.5573 19.5948C32.7528 19.5948 33.722 18.6108 33.722 17.397C33.722 16.1832 32.7528 15.1992 31.5573 15.1992C30.3617 15.1992 29.3926 16.1832 29.3926 17.397C29.3926 18.6108 30.3617 19.5948 31.5573 19.5948Z" fill="#21222E"/>
<path d="M31.554 25.0554C32.351 25.0554 32.9971 24.3994 32.9971 23.5902C32.9971 22.781 32.351 22.125 31.554 22.125C30.757 22.125 30.1108 22.781 30.1108 23.5902C30.1108 24.3994 30.757 25.0554 31.554 25.0554Z" fill="#21222E"/>
<path d="M37.7156 21.9929C38.5126 21.9929 39.1587 21.3369 39.1587 20.5277C39.1587 19.7185 38.5126 19.0625 37.7156 19.0625C36.9186 19.0625 36.2725 19.7185 36.2725 20.5277C36.2725 21.3369 36.9186 21.9929 37.7156 21.9929Z" fill="#21222E"/>
<path d="M37.7194 16.462C38.9149 16.462 39.8841 15.478 39.8841 14.2642C39.8841 13.0504 38.9149 12.0664 37.7194 12.0664C36.5239 12.0664 35.5547 13.0504 35.5547 14.2642C35.5547 15.478 36.5239 16.462 37.7194 16.462Z" fill="#21222E"/>
<path d="M31.5578 13.3331C32.7533 13.3331 33.7225 12.3491 33.7225 11.1353C33.7225 9.92149 32.7533 8.9375 31.5578 8.9375C30.3622 8.9375 29.3931 9.92149 29.3931 11.1353C29.3931 12.3491 30.3622 13.3331 31.5578 13.3331Z" fill="#21222E"/>
<path d="M25.387 21.9929C26.184 21.9929 26.8301 21.3369 26.8301 20.5277C26.8301 19.7185 26.184 19.0625 25.387 19.0625C24.59 19.0625 23.9438 19.7185 23.9438 20.5277C23.9438 21.3369 24.59 21.9929 25.387 21.9929Z" fill="#21222E"/>
<path d="M37.7194 10.2003C38.9149 10.2003 39.8841 9.2163 39.8841 8.00249C39.8841 6.78867 38.9149 5.80469 37.7194 5.80469C36.5239 5.80469 35.5547 6.78867 35.5547 8.00249C35.5547 9.2163 36.5239 10.2003 37.7194 10.2003Z" fill="#21222E"/>
<path d="M43.8196 6.40696C44.6166 6.40696 45.2627 5.75097 45.2627 4.94176C45.2627 4.13256 44.6166 3.47656 43.8196 3.47656C43.0226 3.47656 42.3765 4.13256 42.3765 4.94176C42.3765 5.75097 43.0226 6.40696 43.8196 6.40696Z" fill="#21222E"/>
<path d="M43.8196 18.8601C44.6166 18.8601 45.2627 18.2041 45.2627 17.3949C45.2627 16.5857 44.6166 15.9297 43.8196 15.9297C43.0226 15.9297 42.3765 16.5857 42.3765 17.3949C42.3765 18.2041 43.0226 18.8601 43.8196 18.8601Z" fill="#21222E"/>
<path d="M25.387 9.46946C26.184 9.46946 26.8301 8.81347 26.8301 8.00426C26.8301 7.19505 26.184 6.53906 25.387 6.53906C24.59 6.53906 23.9438 7.19505 23.9438 8.00426C23.9438 8.81347 24.59 9.46946 25.387 9.46946Z" fill="#21222E"/>
<path d="M19.2927 25.0554C20.0898 25.0554 20.7359 24.3994 20.7359 23.5902C20.7359 22.781 20.0898 22.125 19.2927 22.125C18.4957 22.125 17.8496 22.781 17.8496 23.5902C17.8496 24.3994 18.4957 25.0554 19.2927 25.0554Z" fill="#21222E"/>
<path d="M13.1201 16.462C14.3157 16.462 15.2848 15.478 15.2848 14.2642C15.2848 13.0504 14.3157 12.0664 13.1201 12.0664C11.9246 12.0664 10.9554 13.0504 10.9554 14.2642C10.9554 15.478 11.9246 16.462 13.1201 16.462Z" fill="#21222E"/>
<path d="M6.95328 13.3331C8.14881 13.3331 9.11798 12.3491 9.11798 11.1353C9.11798 9.92149 8.14881 8.9375 6.95328 8.9375C5.75774 8.9375 4.78857 9.92149 4.78857 11.1353C4.78857 12.3491 5.75774 13.3331 6.95328 13.3331Z" fill="#EC0B43"/>
<path d="M0.852762 21.3918C1.32373 21.3918 1.70552 21.0041 1.70552 20.526C1.70552 20.0478 1.32373 19.6602 0.852762 19.6602C0.381794 19.6602 0 20.0478 0 20.526C0 21.0041 0.381794 21.3918 0.852762 21.3918Z" fill="#21222E"/>
<path d="M0.852762 15.13C1.32373 15.13 1.70552 14.7424 1.70552 14.2642C1.70552 13.7861 1.32373 13.3984 0.852762 13.3984C0.381794 13.3984 0 13.7861 0 14.2642C0 14.7424 0.381794 15.13 0.852762 15.13Z" fill="#21222E"/>
<path d="M13.1189 21.3254C13.5898 21.3254 13.9716 20.9377 13.9716 20.4596C13.9716 19.9814 13.5898 19.5938 13.1189 19.5938C12.6479 19.5938 12.2661 19.9814 12.2661 20.4596C12.2661 20.9377 12.6479 21.3254 13.1189 21.3254Z" fill="#21222E"/>
<path d="M13.1186 2.67692C13.5896 2.67692 13.9714 2.28928 13.9714 1.81111C13.9714 1.33294 13.5896 0.945312 13.1186 0.945312C12.6477 0.945312 12.2659 1.33294 12.2659 1.81111C12.2659 2.28928 12.6477 2.67692 13.1186 2.67692Z" fill="#21222E"/>
<path d="M25.3894 27.5832C25.8603 27.5832 26.2421 27.1955 26.2421 26.7174C26.2421 26.2392 25.8603 25.8516 25.3894 25.8516C24.9184 25.8516 24.5366 26.2392 24.5366 26.7174C24.5366 27.1955 24.9184 27.5832 25.3894 27.5832Z" fill="#21222E"/>
<path d="M6.95188 5.80973C7.42285 5.80973 7.80465 5.42209 7.80465 4.94393C7.80465 4.46576 7.42285 4.07812 6.95188 4.07812C6.48092 4.07812 6.09912 4.46576 6.09912 4.94393C6.09912 5.42209 6.48092 5.80973 6.95188 5.80973Z" fill="#21222E"/>
<path d="M19.2854 5.80973C19.7563 5.80973 20.1381 5.42209 20.1381 4.94393C20.1381 4.46576 19.7563 4.07812 19.2854 4.07812C18.8144 4.07812 18.4326 4.46576 18.4326 4.94393C18.4326 5.42209 18.8144 5.80973 19.2854 5.80973Z" fill="#21222E"/>
<path d="M25.3894 27.5832C25.8603 27.5832 26.2421 27.1955 26.2421 26.7174C26.2421 26.2392 25.8603 25.8516 25.3894 25.8516C24.9184 25.8516 24.5366 26.2392 24.5366 26.7174C24.5366 27.1955 24.9184 27.5832 25.3894 27.5832Z" fill="#21222E"/>
<path d="M56.0876 12.0011C56.5586 12.0011 56.9404 11.6135 56.9404 11.1353C56.9404 10.6572 56.5586 10.2695 56.0876 10.2695C55.6167 10.2695 55.2349 10.6572 55.2349 11.1353C55.2349 11.6135 55.6167 12.0011 56.0876 12.0011Z" fill="#21222E"/>
<path d="M43.822 24.4582C44.293 24.4582 44.6748 24.0705 44.6748 23.5924C44.6748 23.1142 44.293 22.7266 43.822 22.7266C43.351 22.7266 42.9692 23.1142 42.9692 23.5924C42.9692 24.0705 43.351 24.4582 43.822 24.4582Z" fill="#21222E"/>
<path d="M49.9855 10.2003C51.181 10.2003 52.1502 9.2163 52.1502 8.00249C52.1502 6.78867 51.181 5.80469 49.9855 5.80469C48.79 5.80469 47.8208 6.78867 47.8208 8.00249C47.8208 9.2163 48.79 10.2003 49.9855 10.2003Z" fill="#21222E"/>
<path d="M43.8185 13.3331C45.014 13.3331 45.9832 12.3491 45.9832 11.1353C45.9832 9.92149 45.014 8.9375 43.8185 8.9375C42.623 8.9375 41.6538 9.92149 41.6538 11.1353C41.6538 12.3491 42.623 13.3331 43.8185 13.3331Z" fill="#21222E"/>
<path d="M49.9836 21.3918C50.4546 21.3918 50.8364 21.0041 50.8364 20.526C50.8364 20.0478 50.4546 19.6602 49.9836 19.6602C49.5127 19.6602 49.1309 20.0478 49.1309 20.526C49.1309 21.0041 49.5127 21.3918 49.9836 21.3918Z" fill="#21222E"/>
<path d="M49.991 15.7312C50.788 15.7312 51.4341 15.0752 51.4341 14.266C51.4341 13.4568 50.788 12.8008 49.991 12.8008C49.194 12.8008 48.5479 13.4568 48.5479 14.266C48.5479 15.0752 49.194 15.7312 49.991 15.7312Z" fill="#21222E"/>
<path d="M31.551 5.80973C32.022 5.80973 32.4038 5.42209 32.4038 4.94393C32.4038 4.46576 32.022 4.07812 31.551 4.07812C31.08 4.07812 30.6982 4.46576 30.6982 4.94393C30.6982 5.42209 31.08 5.80973 31.551 5.80973Z" fill="#21222E"/>
<path d="M49.9837 2.67692C50.4547 2.67692 50.8365 2.28928 50.8365 1.81111C50.8365 1.33294 50.4547 0.945312 49.9837 0.945312C49.5128 0.945312 49.131 1.33294 49.131 1.81111C49.131 2.28928 49.5128 2.67692 49.9837 2.67692Z" fill="#21222E"/>
<path d="M56.0876 5.80973C56.5586 5.80973 56.9404 5.42209 56.9404 4.94393C56.9404 4.46576 56.5586 4.07812 56.0876 4.07812C55.6167 4.07812 55.2349 4.46576 55.2349 4.94393C55.2349 5.42209 55.6167 5.80973 56.0876 5.80973Z" fill="#21222E"/>
<path d="M74.1237 9.80249C74.3205 9.33629 74.3861 8.93669 74.2549 8.67029C74.2549 8.47049 73.9925 8.33729 73.7301 8.20409C73.0742 7.93769 72.5494 8.20409 72.2214 9.06989L69.9255 14.8641L66.6456 8.87009C66.4489 8.53709 66.2521 8.20409 65.9897 8.20409C65.7273 8.07089 65.3337 8.07089 65.0713 8.20409C64.8745 8.40389 64.6777 8.67029 64.6777 9.00329C64.6777 9.33629 64.6777 9.66929 64.9401 10.0023L68.8759 17.0619C68.7447 17.5281 68.548 17.9277 68.3512 18.1275C68.1544 18.3273 67.9576 18.3939 67.6952 18.3939H67.3672C67.236 18.3939 67.1048 18.3939 66.9736 18.2607L66.58 18.1275C65.9241 17.9277 65.5961 18.1275 65.3993 18.6603C65.1369 19.3263 65.3993 19.7259 66.0553 20.1255C66.4488 20.3253 67.0392 20.4585 67.6952 20.4585C68.548 20.4585 69.2039 20.1255 69.6631 19.5261C70.3191 19.0599 70.7783 18.0609 71.303 16.8621L74.2549 9.73589L74.1237 9.80249ZM77.4036 20.4585C77.7315 20.4585 78.0595 20.3253 78.1907 20.0589C78.3875 19.8591 78.5187 19.5927 78.5187 19.2597V15.1305H83.8977V19.2597C83.8977 19.5927 83.8977 19.9257 84.0945 20.0589C84.2913 20.3253 84.5536 20.3919 84.9472 20.3919C85.2752 20.3919 85.6032 20.3919 85.7344 20.0589C85.9312 19.8591 86.0624 19.5927 86.0624 19.2597V9.26969C86.0624 8.93669 85.9312 8.60369 85.7344 8.47049C85.5376 8.20409 85.2752 8.13749 84.9472 8.13749C84.5536 8.13749 84.2913 8.13749 84.0945 8.47049C83.8977 8.67029 83.8321 8.93669 83.8321 9.26969V13.1325H78.3875V9.26969C78.3875 8.93669 78.2563 8.60369 78.0595 8.47049C77.8627 8.20409 77.6004 8.13749 77.2724 8.13749C76.9444 8.13749 76.6164 8.13749 76.4196 8.47049C76.2884 8.67029 76.1572 8.93669 76.1572 9.26969V19.2597C76.1572 19.5927 76.2884 19.9257 76.4196 20.0589C76.6164 20.3253 76.9444 20.3919 77.2724 20.3919L77.4036 20.4585ZM90.3262 20.4585C90.6542 20.4585 90.9822 20.1921 91.3757 19.7925L96.8859 12.1335V19.2597C96.8859 19.5927 96.8859 19.9257 97.1483 20.0589C97.4107 20.3253 97.6731 20.3919 98.0666 20.3919C98.3946 20.3919 98.7226 20.3919 98.8538 20.0589C99.0506 19.8591 99.1162 19.5927 99.1162 19.2597V9.26969C99.1162 8.60369 98.7882 8.13749 98.0666 8.13749C97.6731 8.13749 97.4107 8.33729 97.0171 8.80349L91.5725 16.4625V9.26969C91.5725 8.93669 91.4413 8.60369 91.2445 8.47049C91.0478 8.20409 90.7854 8.13749 90.4574 8.13749C90.0638 8.13749 89.8014 8.13749 89.6046 8.47049C89.4078 8.67029 89.3422 8.93669 89.3422 9.26969V19.2597C89.3422 19.5927 89.4734 19.9257 89.6702 20.1255C89.867 20.3253 90.1294 20.3919 90.4574 20.3919L90.3262 20.4585ZM109.087 13.7985C109.481 13.5987 109.743 13.2657 110.071 12.8661C110.399 12.2001 110.53 11.8005 110.53 11.2011C110.53 9.06989 109.021 7.87109 106.069 7.87109C105.02 7.87109 104.102 8.00429 103.314 8.20409C102.658 8.20409 102.265 8.73689 102.265 9.40289V19.0599C102.265 19.7259 102.527 20.1255 103.183 20.2587C104.036 20.4585 105.02 20.5251 106.135 20.5251C109.415 20.5251 110.989 19.1931 110.989 16.7289C110.989 16.0629 110.792 15.3969 110.333 14.8641C110.005 14.3313 109.546 13.9983 109.021 13.7319L109.087 13.7985ZM106.069 13.2657H104.298V9.93569H105.873C107.513 9.93569 108.234 10.4685 108.234 11.5341C108.234 12.5997 107.578 13.1991 106.069 13.1991V13.2657ZM108.234 18.2607C107.775 18.4605 107.119 18.5937 106.266 18.5937H104.298V14.9307H106.266C107.972 14.9307 108.89 15.5967 108.89 16.7955C108.89 17.4615 108.628 17.9277 108.234 18.1275V18.2607ZM121.682 20.1255C121.878 19.9257 121.944 19.7259 121.944 19.4595C121.944 19.0599 121.813 18.7935 121.616 18.6603C121.419 18.4605 121.157 18.3939 120.829 18.3939H115.909V15.0639H119.714C120.042 15.0639 120.37 15.0639 120.501 14.7975C120.698 14.6643 120.763 14.3979 120.763 14.1315C120.763 13.7985 120.763 13.4655 120.501 13.3323C120.304 13.1991 120.042 13.0659 119.714 13.0659H115.909V10.1355H120.632C120.96 10.1355 121.288 10.1355 121.419 9.86909C121.616 9.66929 121.747 9.46949 121.747 9.20309C121.747 8.80349 121.616 8.53709 121.419 8.40389C121.222 8.20409 120.96 8.13749 120.632 8.13749H114.728C114.466 8.13749 114.072 8.13749 113.941 8.47049C113.744 8.67029 113.679 8.93669 113.679 9.26969V19.2597C113.679 19.5927 113.679 19.9257 114.007 20.0589C114.138 20.3253 114.4 20.3919 114.663 20.3919H120.763C121.091 20.3919 121.419 20.3919 121.55 20.1255H121.682ZM132.505 12.0003C132.505 10.6683 132.112 9.60269 131.193 9.00329C130.537 8.33729 129.225 8.07089 127.913 8.07089C126.864 8.07089 125.945 8.20409 125.158 8.33729C124.502 8.47049 124.174 8.87009 124.174 9.66929V19.3263C124.174 19.6593 124.174 19.9923 124.437 20.1255C124.633 20.3919 124.896 20.4585 125.289 20.4585C125.617 20.4585 125.945 20.4585 126.077 20.1255C126.273 19.9257 126.405 19.6593 126.405 19.3263V16.1961H127.848C129.16 16.1961 130.275 15.9297 131.128 15.1971C131.98 14.5311 132.439 13.4655 132.439 12.0669L132.505 12.0003ZM126.405 10.1355L127.717 10.0023C129.422 10.0023 130.209 10.6683 130.209 12.0003C130.209 13.5321 129.356 14.1981 127.717 14.1981C127.061 14.1981 126.733 14.1981 126.405 14.0649V10.0689V10.1355ZM142.345 17.7945C141.492 18.3273 140.639 18.4605 139.852 18.4605C138.868 18.4605 138.081 18.1941 137.425 17.3949C136.769 16.7289 136.441 15.5967 136.441 14.2647C136.441 12.9327 136.769 11.9337 137.359 11.1345C138.343 9.80249 139.983 9.60269 142.082 10.4685C142.738 10.7349 143.263 10.6017 143.394 10.1355C143.722 9.60269 143.591 9.13649 143.001 8.80349C142.345 8.13749 141.164 7.93769 139.721 7.93769C138.015 7.93769 136.638 8.60369 135.654 9.66929C134.67 10.8681 134.145 12.3333 134.145 14.3313C134.145 16.3293 134.604 17.7945 135.457 18.9933C136.507 20.0589 137.884 20.6583 139.721 20.6583C141.164 20.6583 142.345 20.3253 143.263 19.5927C143.591 19.3263 143.788 19.0599 143.919 18.7269C143.919 18.4605 143.919 18.1941 143.722 17.9277C143.46 17.5281 143.066 17.4615 142.41 17.7945H142.345ZM155.005 8.13749C154.611 8.13749 154.349 8.33729 153.955 8.80349L148.511 16.4625V9.26969C148.511 8.93669 148.38 8.60369 148.183 8.47049C147.92 8.20409 147.658 8.13749 147.33 8.13749C146.936 8.13749 146.674 8.13749 146.477 8.47049C146.28 8.67029 146.215 8.93669 146.215 9.26969V19.2597C146.215 19.5927 146.215 19.9257 146.477 20.1255C146.674 20.3253 146.936 20.3919 147.264 20.3919C147.592 20.3919 147.92 20.1921 148.314 19.7259L153.824 12.1335V19.2597C153.824 19.5927 153.824 19.9257 154.087 20.0589C154.283 20.3253 154.546 20.3919 154.939 20.3919C155.267 20.3919 155.595 20.3919 155.726 20.0589C155.923 19.8591 155.989 19.5927 155.989 19.2597V9.26969C155.989 8.60369 155.595 8.13749 154.874 8.13749H155.005ZM168.387 9.13649C168.387 8.80349 168.256 8.47049 168.059 8.47049C167.862 8.20409 167.6 8.13749 167.272 8.13749H159.072C158.744 8.13749 158.416 8.13749 158.285 8.40389C158.088 8.53709 158.022 8.80349 158.022 9.06989C158.022 9.40289 158.022 9.73589 158.219 9.86909C158.416 10.0689 158.678 10.1355 159.006 10.1355H162.024V19.2597C162.024 19.5927 162.155 19.9257 162.352 20.0589C162.549 20.3253 162.811 20.3919 163.205 20.3919C163.533 20.3919 163.86 20.3919 163.992 20.0589C164.188 19.8591 164.32 19.5927 164.32 19.2597V10.1355H167.272C167.6 10.1355 167.928 10.1355 168.059 9.86909C168.256 9.66929 168.387 9.40289 168.387 9.20309V9.13649ZM177.57 18.4605H172.519V15.1305H176.324C176.652 15.1305 176.98 14.9973 177.111 14.7975C177.308 14.6643 177.439 14.3979 177.439 14.1315C177.439 13.7985 177.308 13.4655 177.111 13.3323C176.914 13.1991 176.652 13.0659 176.324 13.0659H172.519V10.1355H177.308C177.636 10.1355 177.964 10.1355 178.095 9.86909C178.292 9.66929 178.357 9.46949 178.357 9.20309C178.357 8.80349 178.226 8.53709 178.029 8.40389C177.833 8.20409 177.57 8.13749 177.242 8.13749H171.339C171.011 8.13749 170.683 8.13749 170.551 8.47049C170.42 8.67029 170.289 8.93669 170.289 9.26969V19.2597C170.289 19.5927 170.42 19.9257 170.617 20.0589C170.879 20.3253 171.142 20.3919 171.535 20.3919H177.57C177.833 20.3919 178.095 20.3919 178.226 20.1255C178.489 19.9257 178.62 19.7259 178.62 19.4595C178.62 19.0599 178.489 18.7935 178.292 18.6603C178.095 18.4605 177.833 18.3939 177.636 18.3939L177.57 18.4605ZM189.706 9.13649C189.706 8.80349 189.575 8.47049 189.443 8.47049C189.247 8.20409 188.984 8.13749 188.656 8.13749H180.391C180.063 8.13749 179.866 8.13749 179.735 8.40389C179.473 8.53709 179.341 8.80349 179.341 9.06989C179.341 9.40289 179.473 9.73589 179.669 9.86909C179.669 10.0689 179.997 10.1355 180.325 10.1355H183.343V19.2597C183.343 19.5927 183.343 19.9257 183.605 20.0589C183.802 20.3253 184.13 20.3919 184.458 20.3919C184.786 20.3919 185.114 20.3919 185.245 20.0589C185.442 19.8591 185.573 19.5927 185.573 19.2597V10.1355H188.591C188.919 10.1355 189.247 10.1355 189.378 9.86909C189.509 9.66929 189.64 9.40289 189.64 9.20309L189.706 9.13649ZM206.302 19.2597V9.26969C206.302 8.60369 205.974 8.13749 205.252 8.13749C204.793 8.13749 204.399 8.33729 204.137 8.80349L198.758 16.3959V9.26969C198.758 8.93669 198.627 8.60369 198.43 8.47049C198.233 8.20409 197.971 8.13749 197.577 8.13749C197.249 8.13749 196.921 8.13749 196.79 8.47049C196.593 8.67029 196.528 8.93669 196.528 9.26969V19.2597C196.528 19.5927 196.528 19.9257 196.79 20.1255C196.987 20.3253 197.249 20.3919 197.577 20.3919C197.905 20.3919 198.233 20.1921 198.561 19.7259L204.006 12.2667V19.3929C204.006 19.7259 204.203 20.0589 204.399 20.1921C204.596 20.4585 204.859 20.5251 205.252 20.5251C205.515 20.5251 205.777 20.5251 205.908 20.1921C206.171 19.9923 206.236 19.7259 206.236 19.3929L206.302 19.2597ZM217.453 8.13749H209.319C209.057 8.13749 208.794 8.13749 208.663 8.40389C208.401 8.53709 208.335 8.80349 208.335 9.06989C208.335 9.40289 208.335 9.73589 208.598 9.86909C208.729 10.0689 208.991 10.1355 209.254 10.1355H212.337V19.2597C212.337 19.5927 212.337 19.9257 212.599 20.0589C212.862 20.3253 213.124 20.3919 213.517 20.3919C213.845 20.3919 214.173 20.3919 214.305 20.0589C214.501 19.8591 214.633 19.5927 214.633 19.2597V10.1355H217.65C217.978 10.1355 218.306 10.1355 218.437 9.86909C218.634 9.66929 218.765 9.40289 218.765 9.20309C218.765 8.80349 218.634 8.53709 218.437 8.40389C218.24 8.20409 217.978 8.13749 217.65 8.13749H217.453ZM230.573 8.13749C230.114 8.13749 229.786 8.33729 229.458 8.80349L226.047 14.3979L222.57 8.87009C222.307 8.20409 221.914 8.07089 221.455 8.07089C221.127 8.07089 220.799 8.07089 220.668 8.33729C220.536 8.53709 220.405 8.87009 220.405 9.20309V19.1931C220.405 19.8591 220.733 20.3253 221.455 20.3253C222.111 20.3253 222.504 19.9257 222.504 19.1931V12.3999L224.931 16.3959C225.128 16.7289 225.456 16.9287 225.915 16.9287C226.309 16.9287 226.571 16.7289 226.899 16.2627L229.326 12.2667V19.2597C229.326 19.5927 229.326 19.9257 229.589 20.0589C229.851 20.3253 230.114 20.3919 230.507 20.3919C230.835 20.3919 231.163 20.3919 231.294 20.0589C231.491 19.8591 231.622 19.5927 231.622 19.2597V9.26969C231.622 8.93669 231.622 8.60369 231.425 8.47049C231.229 8.20409 230.966 8.13749 230.638 8.13749H230.573ZM244.348 9.73589C243.233 8.53709 241.724 7.93769 240.019 7.93769C238.313 7.93769 236.739 8.60369 235.689 9.73589C234.64 10.9347 234.181 12.3999 234.181 14.2647C234.181 16.1295 234.705 17.5947 235.755 18.7935C236.739 19.9923 238.182 20.5917 240.019 20.5917C241.724 20.5917 243.167 19.9257 244.217 18.7935C245.201 17.6613 245.726 16.1295 245.726 14.2647C245.726 12.4665 245.201 10.9347 244.217 9.73589H244.348ZM242.511 17.3949C241.855 18.0609 241.068 18.5271 240.019 18.5271C238.838 18.5271 238.051 18.1275 237.395 17.3949C236.739 16.5957 236.476 15.5301 236.476 14.2647C236.476 12.9993 236.804 11.9337 237.395 11.1345C238.051 10.4685 238.838 10.0023 240.019 10.0023C241.003 10.0023 241.855 10.4019 242.446 11.1345C243.102 11.9337 243.364 12.9993 243.364 14.2647C243.364 15.5967 243.167 16.5957 242.511 17.3949Z" fill="#21222E"/>
</svg>
