<svg width="25" height="24" viewBox="0 0 25 24" fill="none" xmlns="http://www.w3.org/2000/svg">
<g clip-path="url(#clip0_624_23706)">
<path d="M21.2461 9.32C19.9661 9.32 18.9261 10.2 18.6061 11.36H13.9661C13.6861 10.88 13.1661 10.56 12.6061 10.56C12.0061 10.56 11.4861 10.88 11.2461 11.36H5.68613C5.64613 11.16 5.56613 11 5.48613 10.8L10.6461 6.04C11.2061 6.44 11.8861 6.68 12.6461 6.68C14.4861 6.68 16.0061 5.16 16.0061 3.32C16.0061 1.48 14.4461 0 12.6061 0C10.7661 0 9.24613 1.52 9.24613 3.36C9.24613 3.96 9.40613 4.52 9.68613 5L4.52613 9.76C4.08613 9.48 3.56613 9.28 3.00613 9.28C1.48613 9.28 0.286133 10.52 0.286133 12C0.286133 13.56 1.52613 14.8 3.00613 14.8C4.28613 14.8 5.32613 13.92 5.64613 12.76H11.1261C11.3661 13.32 11.9261 13.72 12.5661 13.72C13.2061 13.72 13.7661 13.32 14.0061 12.76H18.5261C18.6061 13 18.6861 13.24 18.8061 13.44L14.1261 17.92C13.5661 17.56 12.9261 17.32 12.2061 17.32C10.3661 17.32 8.84613 18.84 8.84613 20.68C8.84613 22.52 10.3661 24.04 12.2061 24.04C14.0461 24.04 15.5661 22.52 15.5661 20.68C15.5661 20.04 15.3661 19.44 15.0861 18.96L19.8861 14.4C20.2861 14.64 20.7661 14.76 21.2461 14.76C22.7661 14.76 23.9661 13.52 23.9661 12.04C23.9661 10.56 22.7261 9.32 21.2461 9.32ZM12.6061 1.4C13.6861 1.4 14.5661 2.28 14.5661 3.36C14.5661 4.44 13.6861 5.32 12.6061 5.32C11.5261 5.32 10.6461 4.44 10.6461 3.36C10.6461 2.28 11.5261 1.4 12.6061 1.4ZM3.00613 13.4C2.24613 13.4 1.64613 12.8 1.64613 12.04C1.64613 11.28 2.24613 10.68 3.00613 10.68C3.76613 10.68 4.36613 11.28 4.36613 12.04C4.36613 12.8 3.76613 13.4 3.00613 13.4ZM12.6061 12.32C12.4861 12.32 12.4061 12.24 12.4061 12.12C12.4061 12 12.4861 11.92 12.6061 11.92C12.7261 11.92 12.8061 12 12.8061 12.12C12.8061 12.24 12.7261 12.32 12.6061 12.32ZM12.2461 22.6C11.1661 22.6 10.2861 21.72 10.2861 20.64C10.2861 19.56 11.1661 18.68 12.2461 18.68C13.3261 18.68 14.2061 19.56 14.2061 20.64C14.2061 21.72 13.3261 22.6 12.2461 22.6ZM21.2461 13.4C20.5261 13.4 19.8861 12.8 19.8861 12.04C19.8861 11.32 20.4861 10.68 21.2461 10.68C22.0061 10.68 22.6061 11.28 22.6061 12.04C22.5661 12.8 21.9661 13.4 21.2461 13.4Z" fill="#21222E"/>
</g>
<defs>
<clipPath id="clip0_624_23706">
<rect width="24" height="24" fill="white" transform="translate(0.286133)"/>
</clipPath>
</defs>
</svg>
